<svg width="17" height="16" viewBox="0 0 17 16" fill="none" xmlns="http://www.w3.org/2000/svg">
<path d="M8.37337 14.3416C8.02971 14.5584 7.85791 14.6667 7.66671 14.6667C7.47551 14.6667 7.30364 14.5583 6.96004 14.3416L5.68613 13.5382C5.36281 13.3343 5.20115 13.2324 5.02173 13.2265C4.82785 13.2201 4.66333 13.3179 4.31395 13.5382C3.92267 13.785 3.14462 14.4648 2.64134 14.1406C2.33337 13.9422 2.33337 13.4384 2.33337 12.4306V5.33339C2.33337 3.44776 2.33337 2.50495 2.8847 1.91916C3.43603 1.33337 4.32338 1.33337 6.09808 1.33337H9.23531C11.01 1.33337 11.8974 1.33337 12.4487 1.91916C13 2.50495 13 3.44776 13 5.33339V8.00004" stroke="#067CB0" stroke-linecap="round" stroke-linejoin="round"/>
<path d="M7.66673 7.33337H5.00006" stroke="#067CB0" stroke-linecap="round" stroke-linejoin="round"/>
<path d="M11.6667 9.33337V14.6667M14.3334 12H9.00006" stroke="#067CB0" stroke-linecap="round" stroke-linejoin="round"/>
<path d="M10.3334 4.66663H5.00006" stroke="#067CB0" stroke-linecap="round" stroke-linejoin="round"/>
</svg>
