<svg width="16" height="16" viewBox="0 0 16 16" fill="none" xmlns="http://www.w3.org/2000/svg">
<path d="M2 13.332V11.979C2 11.1508 2.37285 10.3386 3.12645 9.9951C4.04567 9.5761 5.14808 9.33203 6.33333 9.33203C7.1632 9.33203 7.95247 9.4517 8.66667 9.66723" stroke="#067CB0" stroke-linecap="round" stroke-linejoin="round"/>
<path d="M6.33333 7.33464C7.622 7.33464 8.66667 6.28997 8.66667 5.0013C8.66667 3.71264 7.622 2.66797 6.33333 2.66797C5.04467 2.66797 4 3.71264 4 5.0013C4 6.28997 5.04467 7.33464 6.33333 7.33464Z" stroke="#067CB0" stroke-linecap="round" stroke-linejoin="round"/>
<path d="M9.66699 2.76172C10.6308 3.04857 11.3337 3.94142 11.3337 4.99843C11.3337 6.05543 10.6308 6.9483 9.66699 7.23517" stroke="#067CB0" stroke-linecap="round" stroke-linejoin="round"/>
<path d="M12 9.33203V13.332M10 11.332H14" stroke="#067CB0" stroke-linecap="round" stroke-linejoin="round"/>
</svg>
