<svg width="22" height="18" viewBox="0 0 22 18" fill="none" xmlns="http://www.w3.org/2000/svg">
<path d="M0.75 6.75L5.75 0.75M5.75 0.75L11.1642 6.16421C11.4532 6.45324 11.5978 6.59776 11.7815 6.67388C11.9653 6.75 12.1697 6.75 12.5784 6.75H20.75L16.9494 2.18926C16.3596 1.48152 16.0647 1.12764 15.6616 0.938821C15.2584 0.75 14.7978 0.75 13.8765 0.75H5.75Z" stroke="#067CB0" stroke-width="1.5" stroke-linecap="round" stroke-linejoin="round"/>
<path d="M9.75 4.75V16.75H1.75V5.60714" stroke="#067CB0" stroke-width="1.5" stroke-linecap="round" stroke-linejoin="round"/>
<path d="M9.75 16.75H19.75V5.75" stroke="#067CB0" stroke-width="1.5" stroke-linecap="round" stroke-linejoin="round"/>
<path d="M2.75 4.25V0.75" stroke="#067CB0" stroke-width="1.5" stroke-linecap="round" stroke-linejoin="round"/>
<path d="M5.75801 8.75L5.74902 8.75" stroke="#067CB0" stroke-width="2" stroke-linecap="round" stroke-linejoin="round"/>
<path d="M5.75 16.75V12.75" stroke="#067CB0" stroke-width="1.5" stroke-linecap="round" stroke-linejoin="round"/>
<path d="M13.75 10.75L15.75 10.75" stroke="#067CB0" stroke-width="1.5" stroke-linecap="round" stroke-linejoin="round"/>
</svg>
