<svg width="16" height="16" viewBox="0 0 16 16" fill="none" xmlns="http://www.w3.org/2000/svg">
<path d="M4.66663 11.9998L4.66663 10.6665" stroke="#067CB0" stroke-linecap="round"/>
<path d="M8 12L8 10" stroke="#067CB0" stroke-linecap="round"/>
<path d="M11.3334 11.9998L11.3334 8.6665" stroke="#067CB0" stroke-linecap="round"/>
<path d="M4 7.16667C3.72386 7.16667 3.5 7.39052 3.5 7.66667C3.5 7.94281 3.72386 8.16667 4 8.16667V7.66667V7.16667ZM11.1008 4.5814C11.2378 4.34164 11.1545 4.03622 10.9147 3.89921C10.675 3.76221 10.3696 3.84551 10.2325 4.08526L10.6667 4.33333L11.1008 4.5814ZM9.25196 3.70318C8.9795 3.74813 8.79506 4.00543 8.84 4.27789C8.88494 4.55035 9.14225 4.73479 9.41471 4.68985L9.33333 4.19652L9.25196 3.70318ZM10.1784 4.05712L10.0971 3.56379L10.0971 3.56379L10.1784 4.05712ZM11.1212 4.59302L10.6406 4.73072L11.1212 4.59302ZM10.8527 5.47104C10.9287 5.7365 11.2056 5.89005 11.471 5.814C11.7365 5.73794 11.89 5.46109 11.814 5.19563L11.3333 5.33333L10.8527 5.47104ZM10.8494 4.04769L11.0965 3.61301L11.0965 3.61301L10.8494 4.04769ZM4 7.66667V8.16667C7.11611 8.16667 9.65094 7.11865 11.1008 4.5814L10.6667 4.33333L10.2325 4.08526C9.01573 6.21469 6.88389 7.16667 4 7.16667V7.66667ZM9.33333 4.19652L9.41471 4.68985L10.2598 4.55045L10.1784 4.05712L10.0971 3.56379L9.25196 3.70318L9.33333 4.19652ZM11.1212 4.59302L10.6406 4.73072L10.8527 5.47104L11.3333 5.33333L11.814 5.19563L11.6019 4.45531L11.1212 4.59302ZM10.1784 4.05712L10.2598 4.55045C10.4495 4.51916 10.5485 4.50366 10.6182 4.50048C10.6761 4.49784 10.6479 4.50828 10.6023 4.48238L10.8494 4.04769L11.0965 3.61301C10.9129 3.50863 10.7268 3.49448 10.5726 3.50152C10.4301 3.50802 10.2626 3.53647 10.0971 3.56379L10.1784 4.05712ZM11.1212 4.59302L11.6019 4.45531C11.5614 4.31402 11.5174 4.15587 11.4594 4.02736C11.3926 3.8794 11.2869 3.72124 11.0965 3.61301L10.8494 4.04769L10.6023 4.48238C10.5821 4.4709 10.5638 4.45499 10.5509 4.4392C10.5402 4.42611 10.5402 4.42164 10.5479 4.43879C10.5561 4.45685 10.5675 4.48689 10.5839 4.53855C10.6003 4.59015 10.6177 4.65097 10.6406 4.73072L11.1212 4.59302Z" fill="#067CB0"/>
<path d="M1.66663 7.99984C1.66663 5.01428 1.66663 3.52149 2.59412 2.594C3.52162 1.6665 5.0144 1.6665 7.99996 1.6665C10.9855 1.6665 12.4783 1.6665 13.4058 2.594C14.3333 3.52149 14.3333 5.01428 14.3333 7.99984C14.3333 10.9854 14.3333 12.4782 13.4058 13.4057C12.4783 14.3332 10.9855 14.3332 7.99996 14.3332C5.0144 14.3332 3.52162 14.3332 2.59412 13.4057C1.66663 12.4782 1.66663 10.9854 1.66663 7.99984Z" stroke="#067CB0"/>
</svg>
