<svg width="19" height="19" viewBox="0 0 19 19" fill="none" xmlns="http://www.w3.org/2000/svg">
<path d="M11.583 5.33073C11.583 5.33073 11.9997 5.33073 12.4163 6.16406C12.4163 6.16406 13.7399 4.08073 14.9163 3.66406" stroke="#196C26" stroke-width="1.5" stroke-linecap="round" stroke-linejoin="round"/>
<path d="M17.4163 4.91667C17.4163 7.21785 15.5509 9.08333 13.2497 9.08333C10.9485 9.08333 9.08301 7.21785 9.08301 4.91667C9.08301 2.61548 10.9485 0.75 13.2497 0.75C15.5509 0.75 17.4163 2.61548 17.4163 4.91667Z" stroke="#196C26" stroke-width="1.5" stroke-linecap="round"/>
<path d="M0.75 7.41667H1.5H0.75ZM7.80882 1.5C8.22304 1.5 8.55882 1.16421 8.55882 0.75C8.55882 0.335786 8.22304 0 7.80882 0V0.75V1.5ZM7.80882 17.4167V18.1667V17.4167ZM0.75 10.75H0H0.75ZM8.69118 17.4167V16.6667V17.4167ZM14.7163 16.4404L15.2312 16.9856L14.7163 16.4404ZM16.4999 11.0991C16.5001 10.6849 16.1645 10.349 15.7503 10.3488C15.3361 10.3486 15.0001 10.6842 14.9999 11.0984L15.7499 11.0988L16.4999 11.0991ZM8.69118 17.4167V16.6667H7.80882V17.4167V18.1667H8.69118V17.4167ZM0.75 10.75L1.5 10.75L1.5 7.41667H0.75H1.78814e-07L0 10.75H0.75ZM0.75 7.41667H1.5C1.5 5.8229 1.50178 4.70741 1.62173 3.86479C1.73796 3.04836 1.95177 2.59923 2.29871 2.27157L1.78374 1.72631L1.26877 1.18105C0.581969 1.8297 0.278916 2.6544 0.136704 3.65339C-0.0017814 4.62621 2.38419e-07 5.86773 1.78814e-07 7.41667H0.75ZM7.80882 0.75V0C6.1651 -5.96046e-08 4.86099 -0.00142366 3.84163 0.128013C2.80487 0.259657 1.94952 0.53812 1.26877 1.18105L1.78374 1.72631L2.29871 2.27157C2.6517 1.93819 3.14511 1.7285 4.03057 1.61606C4.93342 1.50142 6.12499 1.5 7.80882 1.5V0.75ZM7.80882 17.4167V16.6667C6.12499 16.6667 4.93342 16.6652 4.03057 16.5506C3.14511 16.4382 2.6517 16.2285 2.29871 15.8951L1.78374 16.4404L1.26877 16.9856C1.94952 17.6285 2.80487 17.907 3.84162 18.0387C4.86099 18.1681 6.1651 18.1667 7.80882 18.1667V17.4167ZM0.75 10.75H0C-5.96046e-08 12.2989 -0.00178182 13.5405 0.136703 14.5133C0.278915 15.5123 0.581969 16.337 1.26877 16.9856L1.78374 16.4404L2.29871 15.8951C1.95177 15.5674 1.73796 15.1183 1.62173 14.3019C1.50178 13.4593 1.5 12.3438 1.5 10.75L0.75 10.75ZM8.69118 17.4167V18.1667C10.3349 18.1667 11.639 18.1681 12.6584 18.0387C13.6951 17.907 14.5505 17.6285 15.2312 16.9856L14.7163 16.4404L14.2013 15.8951C13.8483 16.2285 13.3549 16.4382 12.4694 16.5506C11.5666 16.6652 10.375 16.6667 8.69118 16.6667V17.4167ZM15.7499 11.0988L14.9999 11.0984C14.9992 12.5718 14.9877 13.6084 14.8647 14.3929C14.7458 15.1512 14.5357 15.5792 14.2013 15.8951L14.7163 16.4404L15.2312 16.9856C15.8916 16.362 16.1977 15.575 16.3466 14.6252C16.4914 13.7017 16.4992 12.5373 16.4999 11.0991L15.7499 11.0988Z" fill="#196C26"/>
<path d="M4.91602 9.91406H8.24935" stroke="#196C26" stroke-width="1.5" stroke-linecap="round"/>
<path d="M4.91602 13.25L11.5827 13.25" stroke="#196C26" stroke-width="1.5" stroke-linecap="round"/>
</svg>
