<svg width="20" height="21" viewBox="0 0 20 21" fill="none" xmlns="http://www.w3.org/2000/svg">
<path d="M2.10831 12.4943C1.9311 13.6219 2.72338 14.4045 3.69342 14.7945C7.41238 16.2898 12.5877 16.2898 16.3066 14.7945C17.2767 14.4045 18.069 13.6219 17.8918 12.4943C17.7829 11.8014 17.2444 11.2244 16.8454 10.661C16.3228 9.91393 16.2709 9.0991 16.2708 8.23219C16.2708 4.88193 13.4633 2.16602 10 2.16602C6.53682 2.16602 3.72932 4.88193 3.72932 8.23219C3.72923 9.0991 3.67731 9.91393 3.15472 10.661C2.75574 11.2244 2.21722 11.8014 2.10831 12.4943Z" stroke="black" stroke-width="1.25" stroke-linecap="round" stroke-linejoin="round"/>
<path d="M7.5 18C8.16344 18.5183 9.03958 18.8333 10 18.8333C10.9604 18.8333 11.8366 18.5183 12.5 18" stroke="black" stroke-width="1.25" stroke-linecap="round" stroke-linejoin="round"/>
</svg>
