<svg width="20" height="20" viewBox="0 0 20 20" fill="none" xmlns="http://www.w3.org/2000/svg">
<path d="M10 11.6654C10.9205 11.6654 11.6667 10.9192 11.6667 9.9987C11.6667 9.07822 10.9205 8.33203 10 8.33203C9.07957 8.33203 8.33337 9.07822 8.33337 9.9987C8.33337 10.9192 9.07957 11.6654 10 11.6654Z" stroke="#16A34A" stroke-width="1.25" stroke-linecap="round" stroke-linejoin="round"/>
<path d="M6.25 6.66797C5.41667 7.5013 5 8.7513 5 10.0013C5 11.2513 5.41667 12.5013 6.25 13.3346" stroke="#16A34A" stroke-width="1.25" stroke-linecap="round" stroke-linejoin="round"/>
<path d="M3.74996 5C2.49996 6.25 1.66663 7.91667 1.66663 10C1.66663 12.0833 2.49996 13.75 3.74996 15" stroke="#16A34A" stroke-width="1.25" stroke-linecap="round" stroke-linejoin="round"/>
<path d="M13.75 13.3346C14.5833 12.5013 15 11.2513 15 10.0013C15 8.7513 14.5833 7.5013 13.75 6.66797" stroke="#16A34A" stroke-width="1.25" stroke-linecap="round" stroke-linejoin="round"/>
<path d="M16.25 15C17.5 13.75 18.3333 12.0833 18.3333 10C18.3333 7.91667 17.5 6.25 16.25 5" stroke="#16A34A" stroke-width="1.25" stroke-linecap="round" stroke-linejoin="round"/>
</svg>
