<svg width="20" height="20" viewBox="0 0 20 20" fill="none" xmlns="http://www.w3.org/2000/svg">
<path d="M1.66663 7.14219C1.66663 6.14538 2.06861 5.53449 2.90048 5.07154L6.32485 3.16584C8.11921 2.16726 9.01638 1.66797 9.99996 1.66797C10.9835 1.66797 11.8807 2.16726 13.675 3.16584L17.0995 5.07154C17.9313 5.53449 18.3333 6.14539 18.3333 7.14219C18.3333 7.41249 18.3333 7.54764 18.3038 7.65875C18.1487 8.24251 17.6197 8.33464 17.1089 8.33464H2.89103C2.38018 8.33464 1.85123 8.2425 1.69614 7.65875C1.66663 7.54764 1.66663 7.41249 1.66663 7.14219Z" stroke="#ACE6FF" stroke-width="1.25"/>
<path d="M9.99658 5.83203H10.0041" stroke="#ACE6FF" stroke-width="1.66667" stroke-linecap="round" stroke-linejoin="round"/>
<path d="M3.33337 8.33203V15.4154M6.66671 8.33203V15.4154" stroke="#ACE6FF" stroke-width="1.25"/>
<path d="M13.3334 8.33203V15.4154M16.6667 8.33203V15.4154" stroke="#ACE6FF" stroke-width="1.25"/>
<path d="M15.8333 15.418H4.16663C2.78592 15.418 1.66663 16.5372 1.66663 17.918C1.66663 18.1481 1.85318 18.3346 2.08329 18.3346H17.9166C18.1467 18.3346 18.3333 18.1481 18.3333 17.918C18.3333 16.5372 17.214 15.418 15.8333 15.418Z" stroke="#ACE6FF" stroke-width="1.25"/>
</svg>
