<svg width="20" height="20" viewBox="0 0 20 20" fill="none" xmlns="http://www.w3.org/2000/svg">
<path d="M1.66666 7.14219C1.66666 6.14538 2.06864 5.53449 2.90051 5.07154L6.32488 3.16584C8.11924 2.16726 9.01641 1.66797 9.99999 1.66797C10.9836 1.66797 11.8807 2.16726 13.6751 3.16584L17.0995 5.07154C17.9313 5.53449 18.3333 6.14539 18.3333 7.14219C18.3333 7.41249 18.3333 7.54764 18.3038 7.65875C18.1487 8.24251 17.6197 8.33464 17.1089 8.33464H2.89106C2.38021 8.33464 1.85126 8.2425 1.69617 7.65875C1.66666 7.54764 1.66666 7.41249 1.66666 7.14219Z" stroke="#004C6E" stroke-width="1.25"/>
<path d="M9.99655 5.83203H10.0041" stroke="#004C6E" stroke-width="1.66667" stroke-linecap="round" stroke-linejoin="round"/>
<path d="M3.33334 8.33203V15.4154M6.66668 8.33203V15.4154" stroke="#004C6E" stroke-width="1.25"/>
<path d="M13.3333 8.33203V15.4154M16.6667 8.33203V15.4154" stroke="#004C6E" stroke-width="1.25"/>
<path d="M15.8333 15.418H4.16666C2.78595 15.418 1.66666 16.5372 1.66666 17.918C1.66666 18.1481 1.85321 18.3346 2.08332 18.3346H17.9167C18.1467 18.3346 18.3333 18.1481 18.3333 17.918C18.3333 16.5372 17.2141 15.418 15.8333 15.418Z" stroke="#004C6E" stroke-width="1.25"/>
</svg>
