<svg width="17" height="16" viewBox="0 0 17 16" fill="none" xmlns="http://www.w3.org/2000/svg">
<path d="M10.6667 11C10.9944 10.6629 11.8666 9.33337 12.3334 9.33337M14.0001 11C13.6724 10.6629 12.8002 9.33337 12.3334 9.33337M12.3334 9.33337V14.6667" stroke="#067CB0" stroke-linecap="round" stroke-linejoin="round"/>
<path d="M12.6667 1.33337V2.66671M4.66675 1.33337V2.66671" stroke="#067CB0" stroke-linecap="round" stroke-linejoin="round"/>
<path d="M9.00004 14.6667H8.03337C5.34637 14.6667 4.00287 14.6667 3.16812 13.7642C2.33337 12.8618 2.33337 11.4094 2.33337 8.5045V8.16216C2.33337 5.25729 2.33337 3.80486 3.16812 2.90243C4.00287 2 5.34637 2 8.03337 2H9.30004C11.987 2 13.3305 2 14.1653 2.90243C14.9512 3.75202 14.9972 5.08909 14.9999 7.66667" stroke="#067CB0" stroke-linecap="round" stroke-linejoin="round"/>
<path d="M2.66675 5.33337H14.6667" stroke="#067CB0" stroke-linecap="round" stroke-linejoin="round"/>
</svg>
