<svg width="16" height="17" viewBox="0 0 16 17" fill="none" xmlns="http://www.w3.org/2000/svg">
<path fill-rule="evenodd" clip-rule="evenodd" d="M7.99935 2.49984C4.68564 2.49984 1.99935 5.18613 1.99935 8.49984C1.99935 11.8135 4.68564 14.4998 7.99935 14.4998C11.3131 14.4998 13.9993 11.8135 13.9993 8.49984C13.9993 5.18613 11.3131 2.49984 7.99935 2.49984ZM0.666016 8.49984C0.666016 4.44975 3.94926 1.1665 7.99935 1.1665C12.0494 1.1665 15.3327 4.44975 15.3327 8.49984C15.3327 12.5499 12.0494 15.8332 7.99935 15.8332C3.94926 15.8332 0.666016 12.5499 0.666016 8.49984ZM10.4708 6.6951C10.7311 6.95545 10.7311 7.37756 10.4708 7.63791L7.80409 10.3046C7.54374 10.5649 7.12163 10.5649 6.86128 10.3046L5.52794 8.97124C5.2676 8.71089 5.2676 8.28878 5.52794 8.02843C5.78829 7.76808 6.2104 7.76808 6.47075 8.02843L7.33268 8.89036L9.52794 6.6951C9.78829 6.43475 10.2104 6.43475 10.4708 6.6951Z" fill="#047857"/>
</svg>
