<svg width="64" height="64" viewBox="0 0 64 64" fill="none" xmlns="http://www.w3.org/2000/svg">
<path fill-rule="evenodd" clip-rule="evenodd" d="M43.9996 11.2018C39.2447 8.45823 33.6929 7.42771 28.2701 8.28206C22.8474 9.1364 17.8814 11.824 14.2004 15.8966C10.5193 19.9692 8.34569 25.1807 8.04199 30.6619C7.73828 36.1431 9.32286 41.5628 12.5315 46.0172C15.7401 50.4715 20.3787 53.6913 25.6739 55.1395C30.9691 56.5877 36.6007 56.1768 41.6296 53.9753C46.6585 51.7739 50.7807 47.915 53.3088 43.0421C55.8369 38.1692 56.6181 32.5769 55.522 27.1978C55.2279 25.7547 56.1594 24.3464 57.6025 24.0524C59.0456 23.7583 60.4539 24.6898 60.7479 26.1329C62.0876 32.7074 61.1328 39.5424 58.043 45.4982C54.9531 51.4539 49.9148 56.1704 43.7684 58.861C37.6219 61.5517 30.7388 62.0539 24.267 60.2839C17.7951 58.5138 12.1256 54.5786 8.20395 49.1344C4.28233 43.6902 2.34563 37.0661 2.71682 30.3668C3.08801 23.6675 5.74465 17.298 10.2437 12.3203C14.7428 7.34272 20.8123 4.05791 27.4401 3.01371C34.068 1.96951 40.8534 3.22904 46.665 6.58224C47.9406 7.31828 48.3781 8.94907 47.6421 10.2247C46.906 11.5004 45.2752 11.9378 43.9996 11.2018ZM60.551 8.77975C61.5924 9.82115 61.5924 11.5096 60.551 12.551L33.8843 39.2177C32.8429 40.2591 31.1545 40.2591 30.1131 39.2177L22.1131 31.2177C21.0717 30.1763 21.0717 28.4878 22.1131 27.4464C23.1545 26.405 24.8429 26.405 25.8843 27.4464L31.9987 33.5608L56.7797 8.77975C57.8211 7.73835 59.5096 7.73835 60.551 8.77975Z" fill="#047857"/>
</svg>
