<svg width="20" height="20" viewBox="0 0 20 20" fill="none" xmlns="http://www.w3.org/2000/svg">
<path d="M13.333 8.33594L15.1242 8.87327C16.2685 9.2166 16.8407 9.38827 17.1702 9.8311C17.4997 10.2739 17.4997 10.8714 17.4997 12.066V18.3359" stroke="#196C26" stroke-width="1.25" stroke-linejoin="round"/>
<path d="M6.66699 7.5H9.16699M6.66699 10.8333H9.16699" stroke="#196C26" stroke-width="1.25" stroke-linecap="round" stroke-linejoin="round"/>
<path d="M9.99967 18.3307V15.8307C9.99967 15.0451 9.99967 14.6522 9.75559 14.4081C9.51151 14.1641 9.11867 14.1641 8.33301 14.1641H7.49967C6.714 14.1641 6.32117 14.1641 6.07708 14.4081C5.83301 14.6522 5.83301 15.0451 5.83301 15.8307V18.3307" stroke="#196C26" stroke-width="1.25" stroke-linejoin="round"/>
<path d="M1.66699 18.3359H18.3337" stroke="#196C26" stroke-width="1.25" stroke-linecap="round"/>
<path d="M2.5 18.3307V5.5951C2.5 3.50281 2.5 2.45666 3.15932 1.9376C3.81864 1.41854 4.78952 1.70036 6.73127 2.26398L10.8979 3.47341C12.0697 3.81354 12.6556 3.9836 12.9944 4.44711C13.3333 4.91062 13.3333 5.54193 13.3333 6.80454V18.3307" stroke="#196C26" stroke-width="1.25" stroke-linecap="round" stroke-linejoin="round"/>
</svg>
