<svg width="20" height="21" viewBox="0 0 20 21" fill="none" xmlns="http://www.w3.org/2000/svg">
<path d="M7.5 13C7.5 10.643 7.5 9.4645 8.23223 8.73223C8.9645 8 10.143 8 12.5 8H13.3333C15.6903 8 16.8688 8 17.6011 8.73223C18.3333 9.4645 18.3333 10.643 18.3333 13V13.8333C18.3333 16.1903 18.3333 17.3688 17.6011 18.1011C16.8688 18.8333 15.6903 18.8333 13.3333 18.8333H12.5C10.143 18.8333 8.9645 18.8333 8.23223 18.1011C7.5 17.3688 7.5 16.1903 7.5 13.8333V13Z" stroke="white" stroke-width="1.25" stroke-linecap="round" stroke-linejoin="round"/>
<path d="M14.1665 8.0013C14.1645 5.53706 14.1273 4.26064 13.41 3.38666C13.2715 3.21788 13.1167 3.06312 12.948 2.9246C12.026 2.16797 10.6562 2.16797 7.91663 2.16797C5.17706 2.16797 3.80728 2.16797 2.88532 2.9246C2.71653 3.06311 2.56178 3.21788 2.42326 3.38666C1.66663 4.30862 1.66663 5.6784 1.66663 8.41797C1.66663 11.1576 1.66663 12.5273 2.42326 13.4493C2.56177 13.6181 2.71653 13.7728 2.88532 13.9113C3.7593 14.6286 5.03572 14.6659 7.49996 14.6679" stroke="white" stroke-width="1.25" stroke-linecap="round" stroke-linejoin="round"/>
</svg>
