<svg width="16" height="16" viewBox="0 0 16 16" fill="none" xmlns="http://www.w3.org/2000/svg">
<g clip-path="url(#clip0_1153_16854)">
<path fill-rule="evenodd" clip-rule="evenodd" d="M2.66663 1.99935C2.30148 1.99935 1.99996 2.30087 1.99996 2.66602V9.33268C1.99996 9.69783 2.30148 9.99935 2.66663 9.99935C3.03482 9.99935 3.33329 10.2978 3.33329 10.666C3.33329 11.0342 3.03482 11.3327 2.66663 11.3327C1.5651 11.3327 0.666626 10.4342 0.666626 9.33268V2.66602C0.666626 1.56449 1.5651 0.666016 2.66663 0.666016H9.33329C10.4348 0.666016 11.3333 1.56449 11.3333 2.66602C11.3333 3.03421 11.0348 3.33268 10.6666 3.33268C10.2984 3.33268 9.99996 3.03421 9.99996 2.66602C9.99996 2.30087 9.69844 1.99935 9.33329 1.99935H2.66663ZM6.66663 5.99935C6.29844 5.99935 5.99996 6.29783 5.99996 6.66602V13.3327C5.99996 13.7009 6.29844 13.9993 6.66663 13.9993H13.3333C13.7015 13.9993 14 13.7009 14 13.3327V6.66602C14 6.29783 13.7015 5.99935 13.3333 5.99935H6.66663ZM4.66663 6.66602C4.66663 5.56145 5.56206 4.66602 6.66663 4.66602H13.3333C14.4379 4.66602 15.3333 5.56145 15.3333 6.66602V13.3327C15.3333 14.4373 14.4379 15.3327 13.3333 15.3327H6.66663C5.56206 15.3327 4.66663 14.4373 4.66663 13.3327V6.66602Z" fill="#71717A"/>
</g>
<defs>
<clipPath id="clip0_1153_16854">
<rect width="16" height="16" fill="white"/>
</clipPath>
</defs>
</svg>
