<svg width="18" height="19" viewBox="0 0 18 19" fill="none" xmlns="http://www.w3.org/2000/svg">
<path fill-rule="evenodd" clip-rule="evenodd" d="M12.9986 2.71948C11.734 1.96787 10.2763 1.60474 8.80692 1.6753C7.33753 1.74586 5.92132 2.247 4.73458 3.11633C3.54783 3.98567 2.64295 5.18481 2.13255 6.56452C1.62215 7.94423 1.52877 9.44358 1.86404 10.876C2.19931 12.3083 2.94842 13.6105 4.01814 14.6203C5.08785 15.6302 6.43094 16.3032 7.88022 16.5555C9.32951 16.8078 10.821 16.6284 12.1691 16.0395C12.5908 15.8552 13.0821 16.0478 13.2663 16.4695C13.4506 16.8913 13.258 17.3825 12.8363 17.5668C11.1886 18.2865 9.3657 18.5059 7.59435 18.1975C5.82299 17.8891 4.18145 17.0666 2.87402 15.8323C1.56659 14.598 0.651013 13.0065 0.241239 11.2558C-0.168536 9.50512 -0.0544101 7.67258 0.569411 5.98627C1.19323 4.29996 2.2992 2.83433 3.74967 1.77181C5.20014 0.709293 6.93105 0.0967964 8.72698 0.0105538C10.5229 -0.0756887 12.3046 0.368132 13.8502 1.28678C15.3958 2.20542 16.6371 3.55833 17.4196 5.1771C17.6199 5.59147 17.4464 6.08975 17.032 6.29006C16.6177 6.49037 16.1194 6.31684 15.9191 5.90248C15.2788 4.57802 14.2632 3.4711 12.9986 2.71948ZM9.16931 3.33639C9.62955 3.33639 10.0026 3.70948 10.0026 4.16972V8.65469L12.8753 10.091C13.287 10.2969 13.4538 10.7974 13.248 11.2091C13.0422 11.6207 12.5416 11.7876 12.13 11.5817L8.79663 9.91507C8.51431 9.77391 8.33598 9.48536 8.33598 9.16972V4.16972C8.33598 3.70948 8.70907 3.33639 9.16931 3.33639ZM15.836 7.91972C16.2962 7.91972 16.6693 8.29281 16.6693 8.75305V13.7531C16.6693 14.2133 16.2962 14.5864 15.836 14.5864C15.3757 14.5864 15.0026 14.2133 15.0026 13.7531V8.75305C15.0026 8.29281 15.3757 7.91972 15.836 7.91972ZM15.0026 17.0864C15.0026 16.6261 15.3757 16.253 15.836 16.253H15.8443C16.3046 16.253 16.6776 16.6261 16.6776 17.0864C16.6776 17.5466 16.3046 17.9197 15.8443 17.9197H15.836C15.3757 17.9197 15.0026 17.5466 15.0026 17.0864Z" fill="#80551C"/>
</svg>
