<svg width="20" height="20" viewBox="0 0 20 20" fill="none" xmlns="http://www.w3.org/2000/svg">
<path d="M3.33325 15.538V6.71172C3.33325 4.33338 3.33325 3.14421 4.06549 2.40536C4.79772 1.6665 5.97623 1.6665 8.33325 1.6665H11.6666C14.0236 1.6665 15.2021 1.6665 15.9343 2.40536C16.6666 3.14421 16.6666 4.33338 16.6666 6.71172V15.538C16.6666 16.7978 16.6666 17.4276 16.2816 17.6755C15.6525 18.0808 14.68 17.231 14.1908 16.9226C13.7867 16.6677 13.5847 16.5403 13.3603 16.5329C13.118 16.5249 12.9123 16.6472 12.4757 16.9226L10.8833 17.9268C10.4537 18.1977 10.2389 18.3332 9.99992 18.3332C9.76092 18.3332 9.54617 18.1977 9.11658 17.9268L7.52419 16.9226C7.12004 16.6677 6.91797 16.5403 6.69369 16.5329C6.45135 16.5249 6.24569 16.6472 5.80898 16.9226C5.31988 17.231 4.34731 18.0808 3.71821 17.6755C3.33325 17.4276 3.33325 16.7978 3.33325 15.538Z" stroke="#0098DB" stroke-width="1.25" stroke-linecap="round" stroke-linejoin="round"/>
<path d="M9.16675 9.1665H6.66675" stroke="#0098DB" stroke-width="1.25" stroke-linecap="round" stroke-linejoin="round"/>
<path d="M11.6667 5.8335H6.66675" stroke="#0098DB" stroke-width="1.25" stroke-linecap="round" stroke-linejoin="round"/>
</svg>
