<svg width="20" height="20" viewBox="0 0 20 20" fill="none" xmlns="http://www.w3.org/2000/svg">
<path d="M12.5 2.08325V3.33325C12.5 4.51176 12.5 5.10102 12.8661 5.46714C13.2322 5.83325 13.8215 5.83325 15 5.83325H16.25" stroke="#141B34" stroke-width="1.25" stroke-linecap="round" stroke-linejoin="round"/>
<path d="M3.33301 13.3334V6.66675C3.33301 4.30972 3.33301 3.13121 4.06524 2.39898C4.79747 1.66675 5.97598 1.66675 8.33301 1.66675H11.8093C12.1499 1.66675 12.3203 1.66675 12.4734 1.73018C12.6265 1.79361 12.747 1.91405 12.9878 2.15491L16.1782 5.34526C16.419 5.58611 16.5395 5.70655 16.6029 5.85969C16.6663 6.01283 16.6663 6.18315 16.6663 6.52377V13.3334C16.6663 15.6904 16.6663 16.8689 15.9341 17.6012C15.2018 18.3334 14.0233 18.3334 11.6663 18.3334H8.33301C5.97598 18.3334 4.79747 18.3334 4.06524 17.6012C3.33301 16.8689 3.33301 15.6904 3.33301 13.3334Z" stroke="#141B34" stroke-width="1.25" stroke-linecap="round" stroke-linejoin="round"/>
<path d="M6.66699 9.16675H13.3337M6.66699 11.6667H13.3337M6.66699 14.1667H10.1427" stroke="#141B34" stroke-width="1.25" stroke-linecap="round" stroke-linejoin="round"/>
</svg>
