<svg width="20" height="20" viewBox="0 0 20 20" fill="none" xmlns="http://www.w3.org/2000/svg">
<path d="M3.33331 15.5381V6.71184C3.33331 4.3335 3.33331 3.14433 4.06555 2.40548C4.79778 1.66663 5.97629 1.66663 8.33331 1.66663H11.6666C14.0236 1.66663 15.2021 1.66663 15.9344 2.40548C16.6666 3.14433 16.6666 4.3335 16.6666 6.71184V15.5381C16.6666 16.7979 16.6666 17.4277 16.2816 17.6756C15.6526 18.0809 14.6801 17.2311 14.1909 16.9227C13.7867 16.6678 13.5847 16.5404 13.3604 16.533C13.1181 16.525 12.9124 16.6473 12.4757 16.9227L10.8833 17.927C10.4537 18.1978 10.239 18.3333 9.99998 18.3333C9.76098 18.3333 9.54623 18.1978 9.11665 17.927L7.52425 16.9227C7.1201 16.6678 6.91803 16.5404 6.69375 16.533C6.45141 16.525 6.24575 16.6473 5.80904 16.9227C5.31994 17.2311 4.34737 18.0809 3.71827 17.6756C3.33331 17.4277 3.33331 16.7979 3.33331 15.5381Z" stroke="#402080" stroke-width="1.25" stroke-linecap="round" stroke-linejoin="round"/>
<path d="M9.16669 9.16663H6.66669" stroke="#402080" stroke-width="1.25" stroke-linecap="round" stroke-linejoin="round"/>
<path d="M11.6667 5.83337H6.66669" stroke="#402080" stroke-width="1.25" stroke-linecap="round" stroke-linejoin="round"/>
</svg>
