<svg width="17" height="16" viewBox="0 0 17 16" fill="none" xmlns="http://www.w3.org/2000/svg">
<path d="M2.33337 8.0013C2.33337 5.01574 2.33337 3.52296 3.26087 2.59546C4.18837 1.66797 5.68115 1.66797 8.66671 1.66797C11.6522 1.66797 13.145 1.66797 14.0726 2.59546C15 3.52296 15 5.01574 15 8.0013C15 10.9868 15 12.4796 14.0726 13.4072C13.145 14.3346 11.6522 14.3346 8.66671 14.3346C5.68115 14.3346 4.18837 14.3346 3.26087 13.4072C2.33337 12.4796 2.33337 10.9868 2.33337 8.0013Z" stroke="#067CB0" stroke-linecap="round" stroke-linejoin="round"/>
<path d="M11 7.00132C11 7.00132 9.28157 9.33466 8.66671 9.33466C8.05184 9.33466 6.33337 7.00132 6.33337 7.00132M8.66671 9.00132V4.66797M6.33337 11.3347H11" stroke="#067CB0" stroke-linecap="round" stroke-linejoin="round"/>
</svg>
