<svg width="20" height="20" viewBox="0 0 20 20" fill="none" xmlns="http://www.w3.org/2000/svg">
<path d="M18.8638 5.53033C19.1567 5.23744 19.1567 4.76256 18.8638 4.46967C18.5709 4.17678 18.0961 4.17678 17.8032 4.46967L18.3335 5L18.8638 5.53033ZM12.1686 9.06812L12.6372 8.48247L12.1686 9.06812ZM10.4024 7.65514L10.8709 7.06949L10.4024 7.65514ZM8.11558 7.84932L8.67614 8.34759L8.11558 7.84932ZM1.9396 13.6684C1.66442 13.978 1.6923 14.452 2.00189 14.7272C2.31148 15.0024 2.78553 14.9745 3.06072 14.6649L2.50016 14.1667L1.9396 13.6684ZM9.19354 6.98128L9.13009 6.23397H9.13009L9.19354 6.98128ZM13.3177 9.71539L13.2763 8.96654H13.2763L13.3177 9.71539ZM5.00016 15.75C5.41438 15.75 5.75016 15.4142 5.75016 15C5.75016 14.5858 5.41438 14.25 5.00016 14.25V15V15.75ZM2.41683 11.6667C2.41683 11.2524 2.08104 10.9167 1.66683 10.9167C1.25262 10.9167 0.91683 11.2524 0.91683 11.6667H1.66683H2.41683ZM1.91091 14.7559L1.38058 15.2863V15.2863L1.91091 14.7559ZM18.3335 5L17.8032 4.46967L13.858 8.41485L14.3883 8.94518L14.9186 9.47551L18.8638 5.53033L18.3335 5ZM12.1686 9.06812L12.6372 8.48247L10.8709 7.06949L10.4024 7.65514L9.9339 8.24079L11.7001 9.65377L12.1686 9.06812ZM8.11558 7.84932L7.55503 7.35104L1.9396 13.6684L2.50016 14.1667L3.06072 14.6649L8.67614 8.34759L8.11558 7.84932ZM10.4024 7.65514L10.8709 7.06949C10.5945 6.84837 10.3307 6.63533 10.091 6.49037C9.83272 6.33422 9.51547 6.20125 9.13009 6.23397L9.19354 6.98128L9.257 7.72859C9.203 7.73318 9.1977 7.70314 9.3148 7.77395C9.45042 7.85596 9.62531 7.99392 9.9339 8.24079L10.4024 7.65514ZM8.11558 7.84932L8.67614 8.34759C8.93869 8.05222 9.08781 7.88675 9.20767 7.78305C9.31116 7.69351 9.31099 7.72401 9.257 7.72859L9.19354 6.98128L9.13009 6.23397C8.74471 6.2667 8.45442 6.45125 8.22621 6.64871C8.01436 6.83201 7.79019 7.08648 7.55503 7.35104L8.11558 7.84932ZM14.3883 8.94518L13.858 8.41485C13.593 8.6798 13.4439 8.82694 13.3255 8.91836C13.2241 8.99674 13.2255 8.96935 13.2763 8.96654L13.3177 9.71539L13.3592 10.4642C13.728 10.4438 14.0138 10.2822 14.2427 10.1053C14.4547 9.94146 14.6819 9.71229 14.9186 9.47551L14.3883 8.94518ZM12.1686 9.06812L11.7001 9.65377C11.9616 9.86296 12.2127 10.0656 12.4415 10.2051C12.6886 10.3556 12.9904 10.4847 13.3592 10.4642L13.3177 9.71539L13.2763 8.96654C13.327 8.96373 13.3314 8.99079 13.222 8.9241C13.0943 8.8463 12.9298 8.71654 12.6372 8.48247L12.1686 9.06812ZM5.00016 15V14.25H3.3335V15V15.75H5.00016V15ZM1.66683 13.3333H2.41683V11.6667H1.66683H0.91683V13.3333H1.66683ZM3.3335 15V14.25C2.91946 14.25 2.68438 14.2484 2.51904 14.2262C2.37528 14.2068 2.4007 14.1851 2.44124 14.2256L1.91091 14.7559L1.38058 15.2863C1.66519 15.5709 2.00907 15.6711 2.31917 15.7128C2.60769 15.7516 2.96186 15.75 3.3335 15.75V15ZM1.66683 13.3333H0.91683C0.91683 13.705 0.915237 14.0591 0.954027 14.3477C0.995718 14.6578 1.09596 15.0016 1.38058 15.2863L1.91091 14.7559L2.44124 14.2256C2.48178 14.2661 2.45998 14.2916 2.44065 14.1478C2.41842 13.9825 2.41683 13.7474 2.41683 13.3333H1.66683Z" fill="#DC2626"/>
</svg>
