<svg width="19" height="14" viewBox="0 0 19 14" fill="none" xmlns="http://www.w3.org/2000/svg">
<path fill-rule="evenodd" clip-rule="evenodd" d="M9.16718 1.66668C7.55807 1.66668 5.98519 2.14447 4.64795 3.03947C3.31902 3.9289 2.28229 5.19057 1.66732 6.66622C2.28229 8.14186 3.31902 9.40353 4.64795 10.293C5.98519 11.188 7.55807 11.6658 9.16718 11.6658C10.7763 11.6658 12.3492 11.188 13.6864 10.293C15.0153 9.40353 16.0521 8.14186 16.667 6.66622C16.0521 5.19057 15.0153 3.9289 13.6864 3.03947C12.3492 2.14447 10.7763 1.66668 9.16718 1.66668ZM3.72093 1.65438C5.33247 0.575793 7.22799 0 9.16718 0C11.1064 0 13.0019 0.575793 14.6134 1.65438C16.225 2.73297 17.48 4.26578 18.2193 6.05849C18.2231 6.06767 18.2267 6.07691 18.2302 6.08621C18.3691 6.46041 18.3691 6.87203 18.2302 7.24622C18.2267 7.25553 18.2231 7.26477 18.2193 7.27395C17.48 9.06665 16.225 10.5995 14.6134 11.6781C13.0019 12.7566 11.1064 13.3324 9.16718 13.3324C7.22799 13.3324 5.33247 12.7566 3.72093 11.6781C2.10938 10.5995 0.854381 9.06665 0.115035 7.27395C0.111251 7.26477 0.107631 7.25553 0.104177 7.24622C-0.0347256 6.87203 -0.0347256 6.46041 0.104177 6.08621C0.107631 6.07691 0.111251 6.06767 0.115035 6.05849C0.854381 4.26578 2.10938 2.73297 3.72093 1.65438ZM9.16716 4.99944C8.24668 4.99944 7.50048 5.74564 7.50048 6.66612C7.50048 7.58661 8.24668 8.3328 9.16716 8.3328C10.0876 8.3328 10.8338 7.58661 10.8338 6.66612C10.8338 5.74564 10.0876 4.99944 9.16716 4.99944ZM5.8338 6.66612C5.8338 4.82515 7.3262 3.33276 9.16716 3.33276C11.0081 3.33276 12.5005 4.82515 12.5005 6.66612C12.5005 8.50709 11.0081 9.99949 9.16716 9.99949C7.3262 9.99949 5.8338 8.50709 5.8338 6.66612Z" fill="#09090B"/>
</svg>
