<svg width="50" height="50" viewBox="0 0 50 50" fill="none" xmlns="http://www.w3.org/2000/svg">
<path d="M43.7062 45.7878L39.2433 41.325M39.2433 41.325C39.4814 41.0869 39.7027 40.8321 39.9053 40.5624C40.8003 39.3712 41.3306 37.8904 41.3306 36.2857C41.3306 32.3498 38.14 29.1592 34.2041 29.1592C30.2682 29.1592 27.0775 32.3498 27.0775 36.2857C27.0775 40.2216 30.2682 43.4123 34.2041 43.4123C36.172 43.4123 37.9537 42.6146 39.2433 41.325Z" stroke="#0098DB" stroke-width="3.11787" stroke-linecap="round"/>
<path d="M22.9203 45.7881H22.3535C15.5748 45.7881 12.1854 45.7881 9.83166 44.1297C9.15727 43.6546 8.55856 43.0911 8.05371 42.4564C6.2917 40.241 6.2917 37.0511 6.2917 30.6711V25.3802C6.2917 19.221 6.2917 16.1414 7.26642 13.6818C8.83342 9.72767 12.1473 6.60868 16.3486 5.13387C18.9619 4.21648 22.234 4.21648 28.7782 4.21648C32.5177 4.21648 34.3874 4.21648 35.8808 4.7407C38.2815 5.58345 40.1752 7.36573 41.0706 9.62524C41.6276 11.0307 41.6276 12.7905 41.6276 16.31V25.0023" stroke="#0098DB" stroke-width="3.11787" stroke-linecap="round" stroke-linejoin="round"/>
<path d="M6.29171 25.002C6.29171 21.1754 9.39375 18.0734 13.2203 18.0734C14.6042 18.0734 16.2357 18.3158 17.5812 17.9553C18.7767 17.635 19.7105 16.7012 20.0309 15.5057C20.3914 14.1602 20.1489 12.5286 20.1489 11.1447C20.1489 7.31819 23.251 4.21615 27.0775 4.21615" stroke="#0098DB" stroke-width="3.11787" stroke-linecap="round" stroke-linejoin="round"/>
</svg>
