<svg width="18" height="18" viewBox="0 0 18 18" fill="none" xmlns="http://www.w3.org/2000/svg">
<path fill-rule="evenodd" clip-rule="evenodd" d="M3.16675 2.33268C2.70651 2.33268 2.33341 2.70578 2.33341 3.16602V8.16602H8.16675V2.33268H3.16675ZM3.16675 0.666016C1.78604 0.666016 0.666748 1.7853 0.666748 3.16602V14.8327C0.666748 16.2134 1.78604 17.3327 3.16675 17.3327H14.8334C16.2141 17.3327 17.3334 16.2134 17.3334 14.8327V3.16602C17.3334 1.7853 16.2141 0.666016 14.8334 0.666016H3.16675ZM9.83342 2.33268V8.16602H15.6667V3.16602C15.6667 2.70578 15.2937 2.33268 14.8334 2.33268H9.83342ZM15.6667 9.83268H9.83342V15.666H14.8334C15.2937 15.666 15.6667 15.2929 15.6667 14.8327V9.83268ZM8.16675 15.666V9.83268H2.33341V14.8327C2.33341 15.2929 2.70651 15.666 3.16675 15.666H8.16675Z" fill="#71717A"/>
</svg>
