<svg width="20" height="20" viewBox="0 0 20 20" fill="none" xmlns="http://www.w3.org/2000/svg">
<path d="M15.8333 8.75V8.3333C15.8333 5.19064 15.8332 3.61926 14.857 2.64296C13.8807 1.66667 12.3093 1.66667 9.16667 1.66667C6.02408 1.66667 4.45272 1.66672 3.47641 2.643C2.50012 3.6193 2.50011 5.1906 2.50008 8.33324L2.50005 12.0833C2.50002 14.8228 2.50002 16.1927 3.25662 17.1146C3.39515 17.2834 3.54993 17.4382 3.71874 17.5768C4.64069 18.3333 6.01046 18.3333 8.75 18.3333" stroke="#09090B" stroke-width="1.25" stroke-linecap="round" stroke-linejoin="round"/>
<path d="M5.83333 5.83333H12.5M5.83333 9.16666H9.16667" stroke="#09090B" stroke-width="1.25" stroke-linecap="round" stroke-linejoin="round"/>
<path d="M15 15.4167L13.75 14.9583V12.9167M10 14.5833C10 16.6544 11.6789 18.3333 13.75 18.3333C15.8211 18.3333 17.5 16.6544 17.5 14.5833C17.5 12.5122 15.8211 10.8333 13.75 10.8333C11.6789 10.8333 10 12.5122 10 14.5833Z" stroke="#09090B" stroke-width="1.25" stroke-linecap="round" stroke-linejoin="round"/>
</svg>
