<svg width="20" height="20" viewBox="0 0 20 20" fill="none" xmlns="http://www.w3.org/2000/svg">
<path d="M15.8333 8.74935V8.33264C15.8333 5.18998 15.8333 3.61861 14.857 2.6423C13.8807 1.66602 12.3093 1.66602 9.16667 1.66602C6.02408 1.66602 4.45272 1.66607 3.47641 2.64234C2.50013 3.61864 2.50011 5.18995 2.50008 8.33258L2.50005 12.0827C2.50003 14.8222 2.50002 16.192 3.25662 17.1139C3.39515 17.2828 3.54993 17.4375 3.71874 17.5761C4.64069 18.3327 6.01046 18.3327 8.75 18.3327" stroke="#004C6E" stroke-width="1.25" stroke-linecap="round" stroke-linejoin="round"/>
<path d="M5.83333 5.83398H12.5M5.83333 9.16732H9.16667" stroke="#004C6E" stroke-width="1.25" stroke-linecap="round" stroke-linejoin="round"/>
<path d="M15 15.4173L13.75 14.959V12.9173M10 14.584C10 16.6551 11.6789 18.334 13.75 18.334C15.8211 18.334 17.5 16.6551 17.5 14.584C17.5 12.5129 15.8211 10.834 13.75 10.834C11.6789 10.834 10 12.5129 10 14.584Z" stroke="#004C6E" stroke-width="1.25" stroke-linecap="round" stroke-linejoin="round"/>
</svg>
