<svg width="20" height="20" viewBox="0 0 20 20" fill="none" xmlns="http://www.w3.org/2000/svg">
<path d="M12.5002 14.1666C11.8339 14.6853 10.9587 15 10.0002 15C9.04159 15 8.16643 14.6853 7.50015 14.1666" stroke="#004C6E" stroke-width="1.25" stroke-linecap="round"/>
<path d="M1.95964 11.0112C1.66546 9.09679 1.51837 8.13965 1.88029 7.29111C2.24221 6.44256 3.04518 5.86198 4.6511 4.70084L5.85098 3.83329C7.84873 2.38885 8.84759 1.66663 10.0002 1.66663C11.1527 1.66663 12.1516 2.38885 14.1493 3.83329L15.3492 4.70084C16.9552 5.86198 17.7581 6.44256 18.12 7.29111C18.4819 8.13965 18.3348 9.09679 18.0407 11.0112L17.7898 12.6436C17.3728 15.3574 17.1643 16.7143 16.191 17.5238C15.2178 18.3333 13.7948 18.3333 10.9492 18.3333H9.05117C6.20544 18.3333 4.78258 18.3333 3.80932 17.5238C2.83606 16.7143 2.62754 15.3574 2.21051 12.6436L1.95964 11.0112Z" stroke="#004C6E" stroke-width="1.25" stroke-linejoin="round"/>
</svg>
