<svg width="1674" height="1638" viewBox="0 0 1674 1638" fill="none" xmlns="http://www.w3.org/2000/svg">
<g opacity="0.5">
<path opacity="0.010101" d="M1021.66 960.054C1022.56 968.018 1018.23 975.657 1010.94 978.975L596.661 1167.39C589.366 1170.71 580.763 1168.96 575.353 1163.04L268.135 827.265C262.725 821.352 261.737 812.628 265.689 805.655L490.096 409.714C494.048 402.741 502.041 399.106 509.893 400.71L955.802 491.782C963.655 493.386 969.582 499.864 970.483 507.828L1021.66 960.054Z" stroke="url(#paint0_linear_6530_17912)" stroke-width="3"/>
<path opacity="0.020202" d="M1022.16 967.404C1022.92 975.382 1018.46 982.944 1011.11 986.134L594.416 1166.94C587.064 1170.13 578.492 1168.23 573.186 1162.22L272.461 821.796C267.155 815.789 266.319 807.048 270.392 800.145L501.227 408.941C505.3 402.039 513.354 398.545 521.177 400.285L964.567 498.933C972.39 500.673 978.203 507.254 978.966 515.233L1022.16 967.404Z" stroke="url(#paint1_linear_6530_17912)" stroke-width="3"/>
<path opacity="0.030303" d="M1022.56 974.674C1023.18 982.664 1018.59 990.147 1011.18 993.209L592.213 1166.38C584.806 1169.44 576.27 1167.39 571.069 1161.29L276.904 816.339C271.704 810.241 271.022 801.487 275.215 794.656L512.379 408.294C516.572 401.463 524.686 398.109 532.478 399.986L973.218 506.15C981.01 508.027 986.707 514.708 987.33 522.698L1022.56 974.674Z" stroke="url(#paint2_linear_6530_17912)" stroke-width="3"/>
<path opacity="0.040404" d="M1022.87 981.84C1023.35 989.84 1018.63 997.242 1011.17 1000.17L590.067 1165.68C582.608 1168.62 574.109 1166.41 569.016 1160.22L281.477 810.874C276.384 804.686 275.854 795.922 280.166 789.165L523.562 407.746C527.873 400.989 536.045 397.777 543.802 399.79L981.768 513.409C989.526 515.421 995.105 522.2 995.589 530.201L1022.87 981.84Z" stroke="url(#paint3_linear_6530_17912)" stroke-width="3"/>
<path opacity="0.050505" d="M1023.09 988.937C1023.43 996.944 1018.58 1004.26 1011.07 1007.06L587.971 1164.89C580.462 1167.69 572.003 1165.34 567.018 1159.06L286.169 805.441C281.185 799.165 280.808 790.393 285.237 783.713L534.764 407.336C539.193 400.656 547.419 397.587 555.141 399.735L990.206 520.743C997.928 522.89 1003.39 529.766 1003.73 537.773L1023.09 988.937Z" stroke="url(#paint4_linear_6530_17912)" stroke-width="3"/>
<path opacity="0.0606061" d="M1023.22 995.929C1023.42 1003.94 1018.44 1011.17 1010.88 1013.84L585.927 1163.97C578.37 1166.64 569.954 1164.14 565.079 1157.77L290.983 800.007C286.108 793.644 285.885 784.866 290.429 778.265L545.986 407.027C550.531 400.426 558.809 397.502 566.492 399.783L998.533 528.114C1006.22 530.396 1011.56 537.366 1011.76 545.378L1023.22 995.929Z" stroke="url(#paint5_linear_6530_17912)" stroke-width="3"/>
<path opacity="0.0707071" d="M1023.27 1002.86C1023.33 1010.88 1018.23 1018.02 1010.62 1020.56L583.947 1162.97C576.345 1165.5 567.973 1162.86 563.211 1156.41L295.925 794.624C291.162 788.178 291.092 779.398 295.751 772.877L557.235 406.874C561.894 400.353 570.223 397.573 577.865 399.989L1006.76 535.574C1014.4 537.99 1019.61 545.052 1019.68 553.067L1023.27 1002.86Z" stroke="url(#paint6_linear_6530_17912)" stroke-width="3"/>
<path opacity="0.0808081" d="M1023.22 1009.69C1023.14 1017.71 1017.92 1024.76 1010.27 1027.16L582.017 1161.84C574.371 1164.24 566.047 1161.45 561.398 1154.92L300.979 789.244C296.33 782.716 296.413 773.936 301.185 767.497L568.49 406.824C573.263 400.385 581.638 397.751 589.237 400.3L1014.86 543.068C1022.46 545.617 1027.55 552.769 1027.48 560.783L1023.22 1009.69Z" stroke="url(#paint7_linear_6530_17912)" stroke-width="3"/>
<path opacity="0.0909091" d="M1023.09 1016.42C1022.88 1024.43 1017.53 1031.39 1009.84 1033.66L580.149 1160.59C572.463 1162.86 564.188 1159.93 559.654 1153.32L306.156 783.879C301.621 777.271 301.858 768.494 306.742 762.139L579.762 406.887C584.646 400.532 593.067 398.045 600.62 400.726L1022.85 550.605C1030.41 553.286 1035.37 560.526 1035.16 568.538L1023.09 1016.42Z" stroke="url(#paint8_linear_6530_17912)" stroke-width="3"/>
<path opacity="0.10101" d="M1022.89 1023.1C1022.53 1031.11 1017.06 1037.97 1009.34 1040.11L578.349 1159.28C570.624 1161.42 562.402 1158.34 557.984 1151.65L311.46 778.583C307.041 771.896 307.431 763.125 312.425 756.856L591.054 407.114C596.048 400.845 604.51 398.506 612.015 401.318L1030.74 558.234C1038.25 561.046 1043.09 568.371 1042.73 576.378L1022.89 1023.1Z" stroke="url(#paint9_linear_6530_17912)" stroke-width="3"/>
<path opacity="0.111111" d="M1022.6 1029.64C1022.1 1037.64 1016.51 1044.41 1008.75 1046.41L576.605 1157.82C568.844 1159.83 560.677 1156.6 556.376 1149.84L316.874 773.271C312.573 766.508 313.116 757.745 318.218 751.564L602.346 407.419C607.448 401.239 615.95 399.047 623.405 401.99L1038.51 565.865C1045.96 568.808 1050.67 576.217 1050.18 584.216L1022.6 1029.64Z" stroke="url(#paint10_linear_6530_17912)" stroke-width="3"/>
<path opacity="0.121212" d="M1022.24 1036.1C1021.61 1044.09 1015.9 1050.76 1008.11 1052.62L574.938 1156.27C567.144 1158.14 559.035 1154.77 554.852 1147.93L322.42 767.997C318.238 761.16 318.933 752.408 324.143 746.317L613.659 407.855C618.869 401.764 627.408 399.721 634.81 402.794L1046.17 573.549C1053.58 576.622 1058.16 584.112 1057.52 592.101L1022.24 1036.1Z" stroke="url(#paint11_linear_6530_17912)" stroke-width="3"/>
<path opacity="0.131313" d="M1021.79 1042.47C1021.02 1050.44 1015.2 1057.02 1007.37 1058.74L573.324 1154.63C565.498 1156.36 557.449 1152.85 553.387 1145.94L328.069 762.766C324.006 755.857 324.854 747.118 330.169 741.119L624.962 408.423C630.277 402.424 638.851 400.53 646.198 403.732L1053.71 581.288C1061.06 584.489 1065.51 592.058 1064.73 600.035L1021.79 1042.47Z" stroke="url(#paint12_linear_6530_17912)" stroke-width="3"/>
<path opacity="0.141414" d="M1021.28 1048.73C1020.36 1056.7 1014.43 1063.17 1006.57 1064.76L571.784 1152.87C563.929 1154.47 555.942 1150.82 552.001 1143.84L333.839 757.562C329.898 750.584 330.898 741.861 336.317 735.956L636.275 409.105C641.694 403.201 650.298 401.457 657.589 404.786L1061.13 589.06C1068.42 592.389 1072.74 600.034 1071.83 607.996L1021.28 1048.73Z" stroke="url(#paint13_linear_6530_17912)" stroke-width="3"/>
<path opacity="0.151515" d="M1020.69 1054.92C1019.64 1062.87 1013.59 1069.23 1005.71 1070.69L570.32 1151.04C562.439 1152.5 554.516 1148.71 550.697 1141.66L339.731 752.412C335.912 745.366 337.065 736.662 342.586 730.852L647.594 409.927C653.115 404.118 661.749 402.524 668.981 405.98L1068.45 596.888C1075.68 600.344 1079.87 608.063 1078.81 616.008L1020.69 1054.92Z" stroke="url(#paint14_linear_6530_17912)" stroke-width="3"/>
<path opacity="0.161616" d="M1020.03 1060.98C1018.84 1068.91 1012.68 1075.16 1004.78 1076.48L568.92 1149.08C561.014 1150.4 553.159 1146.47 549.464 1139.36L345.73 747.273C342.035 740.161 343.339 731.478 348.961 725.766L658.903 410.843C664.525 405.131 673.185 403.688 680.355 407.269L1075.64 604.726C1082.81 608.307 1086.86 616.099 1085.67 624.024L1020.03 1060.98Z" stroke="url(#paint15_linear_6530_17912)" stroke-width="3"/>
<path opacity="0.171717" d="M1019.31 1066.95C1017.98 1074.85 1011.71 1081 1003.79 1082.18L567.604 1147.03C559.676 1148.21 551.891 1144.15 548.32 1136.97L351.855 742.178C348.284 735.003 349.74 726.344 355.461 720.731L670.221 411.884C675.941 406.271 684.626 404.98 691.732 408.686L1082.73 612.601C1089.84 616.308 1093.75 624.168 1092.42 632.072L1019.31 1066.95Z" stroke="url(#paint16_linear_6530_17912)" stroke-width="3"/>
<path opacity="0.181818" d="M1018.51 1072.83C1017.04 1080.71 1010.67 1086.75 1002.72 1087.79L566.35 1144.91C558.403 1145.95 550.69 1141.75 547.245 1134.51L358.079 737.149C354.634 729.913 356.241 721.281 362.059 715.768L681.52 413.069C687.337 407.556 696.043 406.418 703.083 410.247L1089.69 620.533C1096.73 624.363 1100.5 632.29 1099.04 640.17L1018.51 1072.83Z" stroke="url(#paint17_linear_6530_17912)" stroke-width="3"/>
<path opacity="0.191919" d="M1017.65 1078.6C1016.04 1086.45 1009.57 1092.38 1001.6 1093.28L565.178 1142.67C557.215 1143.57 549.576 1139.24 546.258 1131.95L364.422 732.144C361.104 724.848 362.861 716.245 368.774 710.835L692.817 414.354C698.73 408.944 707.455 407.956 714.428 411.908L1096.53 628.474C1103.51 632.426 1107.14 640.418 1105.54 648.271L1017.65 1078.6Z" stroke="url(#paint18_linear_6530_17912)" stroke-width="3"/>
<path opacity="0.20202" d="M1016.73 1084.27C1014.99 1092.09 1008.41 1097.9 1000.43 1098.67L564.091 1140.35C556.113 1141.11 548.551 1136.65 545.36 1129.3L370.881 727.193C367.69 719.841 369.597 711.27 375.604 705.964L704.11 415.768C710.117 410.462 718.857 409.627 725.76 413.7L1103.27 636.453C1110.17 640.526 1113.66 648.581 1111.92 656.404L1016.73 1084.27Z" stroke="url(#paint19_linear_6530_17912)" stroke-width="3"/>
<path opacity="0.212121" d="M1015.74 1089.85C1013.86 1097.64 1007.18 1103.34 999.193 1103.96L563.073 1137.95C555.082 1138.58 547.6 1133.98 544.539 1126.58L377.44 722.305C374.379 714.898 376.435 706.362 382.533 701.161L715.381 417.316C721.48 412.116 730.233 411.434 737.064 415.626L1109.87 644.471C1116.7 648.664 1120.06 656.779 1118.18 664.57L1015.74 1089.85Z" stroke="url(#paint20_linear_6530_17912)" stroke-width="3"/>
<path opacity="0.222222" d="M1014.7 1095.28C1012.69 1103.04 1005.91 1108.62 997.911 1109.1L562.145 1135.42C554.145 1135.9 546.744 1131.18 543.812 1123.72L384.118 717.419C381.187 709.96 383.392 701.461 389.58 696.368L726.649 418.936C732.837 413.843 741.601 413.314 748.357 417.625L1116.37 652.466C1123.13 656.778 1126.34 664.949 1124.33 672.707L1014.7 1095.28Z" stroke="url(#paint21_linear_6530_17912)" stroke-width="3"/>
<path opacity="0.232323" d="M1013.6 1100.66C1011.45 1108.38 1004.57 1113.85 996.566 1114.19L561.29 1132.86C553.283 1133.21 545.966 1128.36 543.165 1120.85L390.895 712.647C388.094 705.138 390.447 696.678 396.723 691.694L737.891 420.737C744.167 415.752 752.939 415.376 759.619 419.805L1122.74 660.544C1129.42 664.973 1132.49 673.2 1130.34 680.921L1013.6 1100.66Z" stroke="url(#paint22_linear_6530_17912)" stroke-width="3"/>
<path opacity="0.242424" d="M1012.45 1105.89C1010.17 1113.57 1003.2 1118.91 995.183 1119.12L560.532 1130.17C552.52 1130.37 545.288 1125.4 542.618 1117.84L397.79 707.876C395.12 700.319 397.621 691.903 403.983 687.028L749.126 422.604C755.488 417.73 764.266 417.507 770.867 422.051L1129.01 668.591C1135.61 673.136 1138.53 681.414 1136.25 689.097L1012.45 1105.89Z" stroke="url(#paint23_linear_6530_17912)" stroke-width="3"/>
<path opacity="0.252525" d="M1011.24 1111.03C1008.82 1118.67 1001.76 1123.89 993.746 1123.96L559.851 1127.41C551.837 1127.48 544.693 1122.37 542.155 1114.77L404.784 703.182C402.246 695.58 404.893 687.208 411.339 682.446L760.334 424.61C766.78 419.848 775.56 419.778 782.081 424.437L1135.14 676.676C1141.66 681.336 1144.44 689.664 1142.03 697.306L1011.24 1111.03Z" stroke="url(#paint24_linear_6530_17912)" stroke-width="3"/>
<path opacity="0.262626" d="M1009.98 1116.07C1007.43 1123.67 1000.28 1128.76 992.265 1128.68L559.259 1124.58C551.244 1124.5 544.19 1119.27 541.786 1111.63L411.884 698.546C409.48 690.901 412.272 682.576 418.8 677.927L771.522 426.735C778.051 422.086 786.83 422.169 793.269 426.941L1141.17 684.777C1147.6 689.549 1150.24 697.925 1147.69 705.524L1009.98 1116.07Z" stroke="url(#paint25_linear_6530_17912)" stroke-width="3"/>
<path opacity="0.272727" d="M1008.67 1120.99C1005.99 1128.54 998.75 1133.51 990.738 1133.29L558.753 1121.65C550.741 1121.44 543.78 1116.09 541.509 1108.4L419.087 693.963C416.816 686.277 419.753 678.002 426.362 673.468L782.686 428.969C789.294 424.435 798.072 424.671 804.426 429.555L1147.07 692.884C1153.42 697.768 1155.91 706.189 1153.23 713.742L1008.67 1120.99Z" stroke="url(#paint26_linear_6530_17912)" stroke-width="3"/>
<path opacity="0.282828" d="M1007.32 1125.81C1004.5 1133.31 997.179 1138.15 989.172 1137.8L558.338 1118.66C550.331 1118.3 543.464 1112.83 541.328 1105.11L426.393 689.447C424.257 681.722 427.338 673.5 434.024 669.082L793.824 431.326C800.51 426.908 809.282 427.297 815.551 432.291L1152.85 701.011C1159.12 706.005 1161.46 714.467 1158.65 721.972L1007.32 1125.81Z" stroke="url(#paint27_linear_6530_17912)" stroke-width="3"/>
<path opacity="0.292929" d="M1005.91 1130.49C1002.97 1137.95 995.559 1142.66 987.56 1142.16L558.008 1115.57C550.009 1115.07 543.238 1109.48 541.237 1101.72L433.794 684.972C431.793 677.211 435.017 669.044 441.78 664.743L804.928 433.777C811.691 429.476 820.454 430.019 826.635 435.121L1158.52 709.124C1164.7 714.227 1166.89 722.729 1163.95 730.184L1005.91 1130.49Z" stroke="url(#paint28_linear_6530_17912)" stroke-width="3"/>
<path opacity="0.30303" d="M1004.47 1135.1C1001.4 1142.5 993.91 1147.09 985.921 1146.45L557.779 1112.43C549.79 1111.8 543.117 1106.09 541.252 1098.29L441.305 680.595C439.44 672.8 442.806 664.691 449.643 660.508L816.012 436.377C822.849 432.194 831.602 432.89 837.692 438.099L1164.07 717.278C1170.16 722.488 1172.2 731.027 1169.13 738.429L1004.47 1135.1Z" stroke="url(#paint29_linear_6530_17912)" stroke-width="3"/>
<path opacity="0.313131" d="M1002.98 1139.6C999.783 1146.94 992.215 1151.39 984.238 1150.62L557.634 1109.22C549.657 1108.44 543.085 1102.62 541.356 1094.8L448.904 676.278C447.176 668.452 450.683 660.403 457.592 656.34L827.056 439.084C833.965 435.022 842.704 435.87 848.703 441.185L1169.5 725.431C1175.49 730.746 1177.39 739.319 1174.19 746.667L1002.98 1139.6Z" stroke="url(#paint30_linear_6530_17912)" stroke-width="3"/>
<path opacity="0.323232" d="M1001.47 1143.98C998.136 1151.27 990.491 1155.59 982.529 1154.68L557.59 1105.93C549.628 1105.02 543.159 1099.08 541.568 1091.23L456.609 672.028C455.017 664.173 458.664 656.186 465.643 652.245L838.073 441.905C845.052 437.964 853.775 438.964 859.68 444.383L1174.81 733.587C1180.72 739.007 1182.46 747.612 1179.13 754.902L1001.47 1143.98Z" stroke="url(#paint31_linear_6530_17912)" stroke-width="3"/>
<path opacity="0.333333" d="M999.907 1148.23C996.451 1155.46 988.732 1159.65 980.787 1158.6L557.64 1102.56C549.694 1101.51 543.33 1095.46 541.875 1087.58L464.406 667.828C462.952 659.947 466.738 652.025 473.784 648.206L849.052 444.819C856.098 441 864.802 442.152 870.612 447.674L1180.01 741.725C1185.82 747.246 1187.41 755.881 1183.96 763.112L999.907 1148.23Z" stroke="url(#paint32_linear_6530_17912)" stroke-width="3"/>
<path opacity="0.343434" d="M998.307 1152.38C994.725 1159.55 986.934 1163.6 979.008 1162.41L557.778 1099.13C549.852 1097.94 543.595 1091.78 542.278 1083.88L472.292 663.711C470.975 655.805 474.898 647.951 482.01 644.255L859.986 447.855C867.098 444.16 875.781 445.464 881.493 451.086L1185.08 749.872C1190.79 755.494 1192.24 764.155 1188.66 771.324L998.307 1152.38Z" stroke="url(#paint33_linear_6530_17912)" stroke-width="3"/>
<path opacity="0.353535" d="M996.685 1156.44C992.979 1163.54 985.119 1167.45 977.215 1166.13L558.024 1095.65C550.121 1094.32 543.971 1088.06 542.792 1080.13L480.28 659.677C479.101 651.749 483.161 643.965 490.336 640.394L870.892 451.014C878.067 447.443 886.726 448.899 892.339 454.619L1190.05 758.029C1195.66 763.75 1196.95 772.434 1193.25 779.54L996.685 1156.44Z" stroke="url(#paint34_linear_6530_17912)" stroke-width="3"/>
<path opacity="0.363636" d="M995.027 1160.34C991.197 1167.39 983.27 1171.16 975.39 1169.69L558.362 1092.08C550.483 1090.61 544.444 1084.24 543.404 1076.29L488.353 655.685C487.313 647.739 491.508 640.026 498.744 636.581L881.749 454.251C888.986 450.806 897.618 452.413 903.13 458.231L1194.89 766.148C1200.4 771.965 1201.54 780.671 1197.71 787.712L995.027 1160.34Z" stroke="url(#paint35_linear_6530_17912)" stroke-width="3"/>
<path opacity="0.373737" d="M993.334 1164.18C989.382 1171.16 981.39 1174.79 973.537 1173.19L558.793 1088.48C550.94 1086.88 545.013 1080.4 544.112 1072.44L496.51 651.813C495.609 643.85 499.938 636.211 507.233 632.893L892.558 457.642C899.853 454.324 908.456 456.081 913.866 461.993L1199.61 774.304C1205.02 780.217 1206.01 788.942 1202.06 795.914L993.334 1164.18Z" stroke="url(#paint36_linear_6530_17912)" stroke-width="3"/>
<path opacity="0.383838" d="M991.63 1167.86C987.557 1174.77 979.503 1178.26 971.679 1176.52L559.339 1084.78C551.515 1083.04 545.702 1076.46 544.94 1068.48L504.77 647.973C504.008 639.995 508.469 632.433 515.822 629.243L903.336 461.095C910.688 457.904 919.259 459.811 924.565 465.818L1204.23 782.405C1209.54 788.412 1210.37 797.152 1206.3 804.055L991.63 1167.86Z" stroke="url(#paint37_linear_6530_17912)" stroke-width="3"/>
<path opacity="0.393939" d="M989.893 1171.45C985.7 1178.28 977.586 1181.63 969.794 1179.75L559.976 1081.04C552.184 1079.16 546.487 1072.48 545.864 1064.49L513.108 644.226C512.485 636.236 517.077 628.753 524.484 625.692L914.058 464.669C921.465 461.608 930.001 463.664 935.202 469.762L1208.73 790.51C1213.93 796.609 1214.61 805.362 1210.42 812.193L989.893 1171.45Z" stroke="url(#paint38_linear_6530_17912)" stroke-width="3"/>
<path opacity="0.40404" d="M988.132 1174.92C983.821 1181.68 975.649 1184.89 967.891 1182.88L560.714 1077.25C552.956 1075.23 547.376 1068.45 546.893 1060.45L521.528 640.564C521.045 632.564 525.768 625.162 533.227 622.231L924.73 468.355C932.189 465.423 940.688 467.628 945.781 473.816L1213.11 798.607C1218.2 804.795 1218.73 813.559 1214.42 820.316L988.132 1174.92Z" stroke="url(#paint39_linear_6530_17912)" stroke-width="3"/>
<path opacity="0.414141" d="M986.349 1178.27C981.921 1184.95 973.694 1188.02 965.973 1185.87L561.552 1073.39C553.83 1071.24 548.369 1064.36 548.025 1056.36L530.032 636.969C529.689 628.962 534.54 621.644 542.049 618.843L935.349 472.132C942.858 469.331 951.317 471.684 956.302 477.96L1217.37 806.675C1222.35 812.951 1222.73 821.724 1218.3 828.404L986.349 1178.27Z" stroke="url(#paint40_linear_6530_17912)" stroke-width="3"/>
<path opacity="0.424242" d="M984.557 1181.53C980.013 1188.13 971.734 1191.05 964.051 1188.77L562.502 1069.5C554.82 1067.21 549.48 1060.25 549.276 1052.23L538.627 633.48C538.423 625.468 543.401 618.236 550.958 615.566L945.925 476.037C953.482 473.367 961.899 475.867 966.773 482.229L1221.53 814.748C1226.4 821.11 1226.62 829.887 1222.08 836.489L984.557 1181.53Z" stroke="url(#paint41_linear_6530_17912)" stroke-width="3"/>
<path opacity="0.434343" d="M982.74 1184.64C978.081 1191.16 969.752 1193.94 962.111 1191.53L563.546 1065.53C555.904 1063.11 550.688 1056.05 550.624 1048.04L547.29 630.046C547.226 622.031 552.331 614.887 559.933 612.35L956.438 480.014C964.04 477.477 972.411 480.124 977.174 486.57L1225.56 822.774C1230.32 829.22 1230.39 837.999 1225.73 844.521L982.74 1184.64Z" stroke="url(#paint42_linear_6530_17912)" stroke-width="3"/>
<path opacity="0.444444" d="M980.915 1187.67C976.143 1194.11 967.768 1196.74 960.169 1194.19L564.702 1061.54C557.104 1058.99 552.01 1051.84 552.086 1043.83L556.04 626.723C556.116 618.709 561.344 611.654 568.99 609.25L966.901 484.12C974.546 481.715 982.871 484.508 987.52 491.036L1229.49 830.805C1234.14 837.333 1234.05 846.113 1229.28 852.552L980.915 1187.67Z" stroke="url(#paint43_linear_6530_17912)" stroke-width="3"/>
<path opacity="0.454545" d="M979.072 1190.54C974.188 1196.9 965.768 1199.38 958.215 1196.7L565.957 1057.46C558.404 1054.78 553.436 1047.54 553.652 1039.53L564.861 623.443C565.077 615.432 570.427 608.47 578.113 606.199L977.3 488.283C984.986 486.012 993.261 488.949 997.795 495.558L1233.3 838.768C1237.83 845.377 1237.59 854.154 1232.71 860.509L979.072 1190.54Z" stroke="url(#paint44_linear_6530_17912)" stroke-width="3"/>
<path opacity="0.464646" d="M977.228 1193.32C972.234 1199.59 963.771 1201.93 956.266 1199.12L567.324 1053.36C559.82 1050.55 554.979 1043.23 555.334 1035.22L573.765 620.274C574.12 612.268 579.591 605.4 587.316 603.264L987.648 492.568C995.373 490.432 1003.59 493.513 1008.01 500.2L1237 846.73C1241.42 853.417 1241.03 862.188 1236.04 868.457L977.228 1193.32Z" stroke="url(#paint45_linear_6530_17912)" stroke-width="3"/>
<path opacity="0.474747" d="M975.364 1196C970.262 1202.18 961.76 1204.37 954.305 1201.43L568.788 1049.23C561.333 1046.29 556.622 1038.88 557.117 1030.88L582.732 617.2C583.227 609.201 588.817 602.43 596.578 600.429L997.926 496.957C1005.69 494.956 1013.85 498.18 1018.15 504.943L1240.59 854.672C1244.89 861.435 1244.34 870.198 1239.24 876.379L975.364 1196Z" stroke="url(#paint46_linear_6530_17912)" stroke-width="3"/>
<path opacity="0.484848" d="M973.506 1198.56C968.296 1204.66 959.757 1206.7 952.355 1203.63L570.368 1045.06C562.966 1041.99 558.384 1034.5 559.019 1026.51L591.779 614.224C592.414 606.235 598.122 599.563 605.916 597.697L1008.15 501.451C1015.94 499.586 1024.05 502.952 1028.24 509.789L1244.07 862.594C1248.25 869.43 1247.56 878.183 1242.35 884.273L973.506 1198.56Z" stroke="url(#paint47_linear_6530_17912)" stroke-width="3"/>
<path opacity="0.494949" d="M971.638 1200.98C966.323 1206.98 957.749 1208.88 950.402 1205.67L572.051 1040.82C564.704 1037.62 560.253 1030.05 561.027 1022.08L600.893 611.303C601.667 603.326 607.49 596.754 615.316 595.026L1018.3 506.004C1026.13 504.276 1034.18 507.783 1038.24 514.692L1247.44 870.447C1251.5 877.356 1250.65 886.095 1245.34 892.094L971.638 1200.98Z" stroke="url(#paint48_linear_6530_17912)" stroke-width="3"/>
<path opacity="0.50505" d="M969.768 1203.34C964.349 1209.24 955.744 1210.98 948.453 1207.66L573.841 1036.59C566.551 1033.27 562.233 1025.62 563.146 1017.66L610.074 608.519C610.987 600.557 616.924 594.088 624.779 592.496L1028.39 510.697C1036.25 509.105 1044.24 512.752 1048.18 519.731L1250.7 878.315C1254.64 885.293 1253.64 894.016 1248.22 899.921L969.768 1203.34Z" stroke="url(#paint49_linear_6530_17912)" stroke-width="3"/>
<path opacity="0.515152" d="M967.899 1205.55C962.377 1211.36 953.743 1212.95 946.512 1209.5L575.739 1032.3C568.508 1028.85 564.324 1021.13 565.376 1013.18L619.321 605.803C620.373 597.857 626.422 591.493 634.304 590.038L1038.42 515.456C1046.3 514.002 1054.22 517.788 1058.04 524.834L1253.85 886.12C1257.67 893.166 1256.51 901.87 1250.99 907.68L967.899 1205.55Z" stroke="url(#paint50_linear_6530_17912)" stroke-width="3"/>
<path opacity="0.525253" d="M966.035 1207.67C960.413 1213.38 951.753 1214.82 944.583 1211.24L577.75 1028C570.58 1024.42 566.531 1016.62 567.722 1008.7L628.638 603.195C629.828 595.27 635.987 589.012 643.893 587.695L1048.37 520.322C1056.28 519.005 1064.13 522.929 1067.83 530.041L1256.9 893.906C1260.59 901.017 1259.29 909.7 1253.67 915.412L966.035 1207.67Z" stroke="url(#paint51_linear_6530_17912)" stroke-width="3"/>
<path opacity="0.535354" d="M964.172 1209.63C958.451 1215.24 949.766 1216.53 942.66 1212.83L579.864 1023.62C572.758 1019.91 568.846 1012.05 570.175 1004.15L638.012 600.642C639.34 592.738 645.608 586.589 653.535 585.41L1058.26 525.236C1066.18 524.058 1073.97 528.118 1077.54 535.293L1259.83 901.611C1263.4 908.786 1261.95 917.445 1256.23 923.058L964.172 1209.63Z" stroke="url(#paint52_linear_6530_17912)" stroke-width="3"/>
<path opacity="0.545455" d="M962.316 1211.5C956.499 1217.02 947.793 1218.16 940.752 1214.33L582.089 1019.24C575.049 1015.41 571.275 1007.48 572.741 999.603L647.448 598.209C648.915 590.33 655.288 584.291 663.235 583.251L1068.07 530.264C1076.02 529.224 1083.73 533.419 1087.17 540.656L1262.67 909.302C1266.11 916.538 1264.51 925.17 1258.69 930.683L962.316 1211.5Z" stroke="url(#paint53_linear_6530_17912)" stroke-width="3"/>
<path opacity="0.555556" d="M960.467 1213.27C954.554 1218.68 945.83 1219.67 938.857 1215.72L584.423 1014.83C577.451 1010.88 573.816 1002.89 575.419 995.038L656.943 595.874C658.547 588.022 665.025 582.095 672.989 581.194L1077.81 535.38C1085.77 534.479 1093.41 538.808 1096.73 546.104L1265.4 916.952C1268.71 924.248 1266.96 932.85 1261.04 938.26L960.467 1213.27Z" stroke="url(#paint54_linear_6530_17912)" stroke-width="3"/>
<path opacity="0.565657" d="M958.633 1214.94C952.627 1220.25 943.886 1221.08 936.984 1217.01L586.87 1010.42C579.967 1006.35 576.473 998.292 578.213 990.469L666.499 593.652C668.24 585.829 674.82 580.016 682.798 579.254L1087.48 540.596C1095.45 539.834 1103.02 544.296 1106.21 551.649L1268.02 924.574C1271.21 931.926 1269.31 940.496 1263.3 945.803L958.633 1214.94Z" stroke="url(#paint55_linear_6530_17912)" stroke-width="3"/>
<path opacity="0.575758" d="M956.816 1216.45C950.717 1221.65 941.964 1222.33 935.133 1218.14L589.432 1005.94C582.602 1001.74 579.248 993.629 581.124 985.837L676.116 591.481C677.993 583.689 684.674 577.992 692.664 577.369L1097.07 545.849C1105.06 545.226 1112.55 549.819 1115.61 557.226L1270.56 932.101C1273.62 939.508 1271.56 948.044 1265.46 953.245L956.816 1216.45Z" stroke="url(#paint56_linear_6530_17912)" stroke-width="3"/>
<path opacity="0.585859" d="M955.005 1217.89C948.816 1222.98 940.052 1223.51 933.296 1219.2L592.095 1001.47C585.339 997.16 582.128 988.988 584.14 981.231L685.777 589.447C687.79 581.69 694.569 576.11 702.569 575.627L1106.58 551.222C1114.58 550.739 1121.99 555.462 1124.92 562.921L1272.98 939.622C1275.91 947.081 1273.7 955.58 1267.52 960.673L955.005 1217.89Z" stroke="url(#paint57_linear_6530_17912)" stroke-width="3"/>
<path opacity="0.59596" d="M953.207 1219.21C946.931 1224.2 938.159 1224.57 931.479 1220.15L594.866 996.982C588.186 992.554 585.117 984.327 587.264 976.606L695.487 587.507C697.635 579.785 704.511 574.325 712.518 573.981L1116.02 556.669C1124.02 556.326 1131.34 561.178 1134.14 568.687L1275.29 947.086C1278.1 954.595 1275.74 963.054 1269.47 968.039L953.207 1219.21Z" stroke="url(#paint58_linear_6530_17912)" stroke-width="3"/>
<path opacity="0.606061" d="M951.439 1220.43C945.077 1225.3 936.299 1225.53 929.698 1220.98L597.76 992.48C591.158 987.936 588.233 979.657 590.515 971.974L705.26 585.67C707.543 577.987 714.512 572.648 722.524 572.444L1125.38 562.199C1133.39 561.996 1140.62 566.974 1143.29 574.531L1277.53 954.503C1280.2 962.06 1277.7 970.477 1271.33 975.351L951.439 1220.43Z" stroke="url(#paint59_linear_6530_17912)" stroke-width="3"/>
<path opacity="0.616162" d="M949.677 1221.53C943.231 1226.29 934.451 1226.36 927.93 1221.7L600.748 987.954C594.227 983.295 591.447 974.966 593.863 967.324L715.067 583.925C717.483 576.283 724.545 571.066 732.56 571.002L1134.65 567.796C1142.66 567.733 1149.81 572.837 1152.34 580.439L1279.65 961.857C1282.18 969.459 1279.54 977.831 1273.09 982.593L949.677 1221.53Z" stroke="url(#paint60_linear_6530_17912)" stroke-width="3"/>
<path opacity="0.626263" d="M947.948 1222.5C941.42 1227.15 932.64 1227.07 926.201 1222.3L603.86 983.399C597.421 978.627 594.787 970.252 597.336 962.653L724.931 582.265C727.48 574.666 734.632 569.573 742.647 569.649L1143.85 573.453C1151.86 573.529 1158.92 578.757 1161.32 586.402L1281.68 969.141C1284.08 976.787 1281.29 985.111 1274.76 989.76L947.948 1222.5Z" stroke="url(#paint61_linear_6530_17912)" stroke-width="3"/>
<path opacity="0.636364" d="M946.236 1223.4C939.628 1227.94 930.851 1227.7 924.496 1222.82L607.072 978.868C600.718 973.984 598.23 965.563 600.911 958.01L734.831 580.739C737.512 573.187 744.752 568.219 752.764 568.435L1152.95 579.216C1160.96 579.432 1167.93 584.783 1170.2 592.469L1283.61 976.403C1285.88 984.089 1282.94 992.364 1276.33 996.898L946.236 1223.4Z" stroke="url(#paint62_linear_6530_17912)" stroke-width="3"/>
<path opacity="0.646465" d="M944.558 1224.15C937.871 1228.57 929.1 1228.18 922.831 1223.19L610.404 974.29C604.136 969.296 601.796 960.833 604.608 953.328L744.781 579.28C747.594 571.775 754.919 566.934 762.926 567.29L1161.98 585.015C1169.99 585.371 1176.86 590.841 1178.99 598.566L1285.45 983.57C1287.59 991.294 1284.51 999.516 1277.82 1003.93L944.558 1224.15Z" stroke="url(#paint63_linear_6530_17912)" stroke-width="3"/>
<path opacity="0.656566" d="M942.902 1224.83C936.139 1229.14 927.376 1228.59 921.195 1223.49L613.842 969.739C607.661 964.636 605.47 956.134 608.413 948.679L754.768 577.955C757.711 570.501 765.12 565.789 773.119 566.284L1170.92 590.916C1178.92 591.412 1185.69 597.002 1187.7 604.762L1287.2 990.71C1289.2 998.471 1285.97 1006.64 1279.21 1010.94L942.902 1224.83Z" stroke="url(#paint64_linear_6530_17912)" stroke-width="3"/>
<path opacity="0.666667" d="M941.279 1225.4C934.442 1229.58 925.69 1228.89 919.599 1223.68L617.392 965.175C611.302 959.965 609.258 951.426 612.331 944.024L764.795 576.727C767.868 569.325 775.358 564.743 783.347 565.378L1179.78 596.879C1187.77 597.514 1194.44 603.221 1196.31 611.016L1288.85 997.781C1290.72 1005.58 1287.35 1013.69 1280.52 1017.87L941.279 1225.4Z" stroke="url(#paint65_linear_6530_17912)" stroke-width="3"/>
<path opacity="0.676768" d="M939.685 1225.85C932.776 1229.91 924.037 1229.06 918.038 1223.75L621.05 960.594C615.052 955.279 613.159 946.705 616.36 939.358L774.858 575.587C778.059 568.24 785.627 563.789 793.604 564.563L1188.55 602.893C1196.53 603.668 1203.1 609.49 1204.83 617.316L1290.42 1004.78C1292.15 1012.6 1288.64 1020.65 1281.73 1024.71L939.685 1225.85Z" stroke="url(#paint66_linear_6530_17912)" stroke-width="3"/>
<path opacity="0.686869" d="M938.122 1226.21C931.143 1230.15 922.421 1229.15 916.516 1223.73L624.817 956.03C618.912 950.61 617.167 942.005 620.497 934.715L784.953 574.57C788.282 567.28 795.926 562.962 803.889 563.875L1197.23 608.991C1205.19 609.905 1211.66 615.841 1213.25 623.696L1291.89 1011.72C1293.48 1019.58 1289.84 1027.57 1282.86 1031.51L938.122 1226.21Z" stroke="url(#paint67_linear_6530_17912)" stroke-width="3"/>
<path opacity="0.69697" d="M936.597 1226.46C929.55 1230.28 920.846 1229.13 915.037 1223.61L628.694 951.467C622.885 945.945 621.292 937.311 624.747 930.08L795.083 573.657C798.539 566.426 806.257 562.242 814.202 563.294L1205.82 615.152C1213.76 616.204 1220.13 622.253 1221.58 630.135L1293.28 1018.61C1294.73 1026.49 1290.95 1034.41 1283.9 1038.23L936.597 1226.46Z" stroke="url(#paint68_linear_6530_17912)" stroke-width="3"/>
<path opacity="0.707071" d="M935.112 1226.6C928 1230.3 919.317 1228.99 913.605 1223.37L632.685 946.897C626.973 941.275 625.531 932.614 629.112 925.445L805.247 572.839C808.828 565.669 816.62 561.621 824.545 562.811L1214.32 621.364C1222.25 622.555 1228.51 628.714 1229.82 636.62L1294.58 1025.41C1295.9 1033.32 1291.98 1041.17 1284.86 1044.87L935.112 1226.6Z" stroke="url(#paint69_linear_6530_17912)" stroke-width="3"/>
<path opacity="0.717172" d="M933.65 1226.62C926.475 1230.19 917.816 1228.74 912.203 1223.02L636.77 942.311C631.157 936.59 629.866 927.906 633.572 920.799L815.426 572.105C819.132 564.999 826.992 561.087 834.895 562.416L1222.72 627.616C1230.62 628.945 1236.77 635.212 1237.95 643.139L1295.79 1032.13C1296.97 1040.06 1292.91 1047.84 1285.73 1051.41L933.65 1226.62Z" stroke="url(#paint70_linear_6530_17912)" stroke-width="3"/>
<path opacity="0.727273" d="M932.245 1226.55C925.009 1229.99 916.377 1228.39 910.864 1222.57L640.98 937.743C635.468 931.925 634.328 923.219 638.158 916.179L825.647 571.488C829.476 564.447 837.404 560.673 845.283 562.14L1231.04 633.937C1238.92 635.404 1244.96 641.777 1246 649.724L1296.92 1038.79C1297.96 1046.73 1293.77 1054.45 1286.53 1057.89L932.245 1226.55Z" stroke="url(#paint71_linear_6530_17912)" stroke-width="3"/>
<path opacity="0.737374" d="M930.877 1226.41C923.581 1229.73 914.979 1227.98 909.569 1222.06L645.293 933.219C639.883 927.306 638.895 918.582 642.847 911.609L835.888 571.012C839.84 564.039 847.832 560.404 855.684 562.008L1239.27 640.349C1247.12 641.953 1253.05 648.431 1253.95 656.395L1297.97 1045.41C1298.87 1053.37 1294.54 1061.01 1287.25 1064.33L930.877 1226.41Z" stroke="url(#paint72_linear_6530_17912)" stroke-width="3"/>
<path opacity="0.747475" d="M929.557 1226.14C922.204 1229.33 913.634 1227.43 908.328 1221.42L649.718 928.672C644.412 922.666 643.577 913.926 647.65 907.023L846.157 570.607C850.23 563.704 858.284 560.209 866.107 561.949L1247.4 646.782C1255.22 648.522 1261.04 655.103 1261.8 663.081L1298.94 1051.93C1299.71 1059.91 1295.24 1067.47 1287.89 1070.66L929.557 1226.14Z" stroke="url(#paint73_linear_6530_17912)" stroke-width="3"/>
<path opacity="0.757576" d="M928.272 1225.79C920.865 1228.85 912.329 1226.79 907.128 1220.69L654.241 924.148C649.041 918.05 648.358 909.296 652.551 902.466L856.436 570.318C860.629 563.487 868.743 560.133 876.535 562.01L1255.43 653.277C1263.22 655.154 1268.92 661.835 1269.54 669.825L1299.83 1058.38C1300.45 1066.37 1295.86 1073.85 1288.45 1076.91L928.272 1225.79Z" stroke="url(#paint74_linear_6530_17912)" stroke-width="3"/>
<path opacity="0.767677" d="M927.041 1225.36C919.582 1228.29 911.083 1226.08 905.99 1219.89L658.878 919.662C653.785 913.474 653.256 904.71 657.567 897.954L866.741 570.16C871.053 563.404 879.225 560.193 886.982 562.205L1263.37 659.849C1271.13 661.862 1276.71 668.641 1277.19 676.641L1300.64 1064.78C1301.12 1072.78 1296.4 1080.18 1288.94 1083.12L927.041 1225.36Z" stroke="url(#paint75_linear_6530_17912)" stroke-width="3"/>
<path opacity="0.777778" d="M925.855 1224.82C918.346 1227.62 909.887 1225.27 904.903 1218.99L663.618 915.188C658.633 908.912 658.257 900.14 662.686 893.46L877.061 570.103C881.49 563.423 889.717 560.355 897.438 562.502L1271.22 666.464C1278.94 668.612 1284.4 675.487 1284.74 683.494L1301.37 1071.1C1301.72 1079.11 1296.86 1086.43 1289.35 1089.23L925.855 1224.82Z" stroke="url(#paint76_linear_6530_17912)" stroke-width="3"/>
<path opacity="0.787879" d="M924.728 1224.15C917.171 1226.82 908.754 1224.32 903.88 1217.96L668.471 910.69C663.597 904.328 663.374 895.551 667.919 888.949L887.404 570.11C891.949 563.509 900.227 560.584 907.91 562.866L1278.97 673.084C1286.65 675.366 1291.99 682.336 1292.2 690.348L1302.04 1077.3C1302.24 1085.32 1297.26 1092.55 1289.7 1095.22L924.728 1224.15Z" stroke="url(#paint77_linear_6530_17912)" stroke-width="3"/>
<path opacity="0.79798" d="M923.639 1223.42C916.037 1225.96 907.665 1223.31 902.902 1216.86L673.417 906.241C668.654 899.795 668.584 891.015 673.243 884.494L897.747 570.253C902.406 563.732 910.734 560.952 918.376 563.368L1286.61 679.778C1294.25 682.194 1299.47 689.256 1299.54 697.27L1302.61 1083.46C1302.68 1091.47 1297.57 1098.61 1289.97 1101.15L923.639 1223.42Z" stroke="url(#paint78_linear_6530_17912)" stroke-width="3"/>
<path opacity="0.808081" d="M922.609 1222.57C914.964 1224.97 906.64 1222.18 901.99 1215.65L678.473 901.794C673.824 895.265 673.908 886.486 678.68 880.047L908.107 570.482C912.879 564.043 921.255 561.409 928.853 563.958L1294.16 686.496C1301.76 689.045 1306.86 696.196 1306.78 704.211L1303.13 1089.51C1303.05 1097.52 1297.82 1104.58 1290.18 1106.98L922.609 1222.57Z" stroke="url(#paint79_linear_6530_17912)" stroke-width="3"/>
<path opacity="0.818182" d="M921.644 1221.66C913.958 1223.93 905.684 1221 901.149 1214.39L683.644 897.404C679.109 890.796 679.345 882.019 684.229 875.664L918.486 570.852C923.37 564.497 931.79 562.01 939.343 564.691L1301.63 693.29C1309.18 695.971 1314.15 703.211 1313.93 711.223L1303.58 1095.51C1303.36 1103.53 1298.01 1110.49 1290.33 1112.76L921.644 1221.66Z" stroke="url(#paint80_linear_6530_17912)" stroke-width="3"/>
<path opacity="0.828283" d="M920.725 1220.64C913 1222.77 904.778 1219.69 900.36 1213L688.907 893.009C684.488 886.323 684.877 877.551 689.871 871.283L928.861 571.295C933.855 565.027 942.318 562.687 949.823 565.499L1308.98 700.092C1316.49 702.904 1321.33 710.23 1320.97 718.236L1303.95 1101.41C1303.6 1109.41 1298.12 1116.28 1290.4 1118.42L920.725 1220.64Z" stroke="url(#paint81_linear_6530_17912)" stroke-width="3"/>
<path opacity="0.838384" d="M919.859 1219.53C912.098 1221.53 903.932 1218.3 899.631 1211.54L694.268 888.65C689.967 881.887 690.51 873.124 695.612 866.943L939.239 571.854C944.342 565.673 952.844 563.481 960.299 566.424L1316.23 706.94C1323.69 709.883 1328.4 717.292 1327.9 725.291L1304.25 1107.22C1303.76 1115.22 1298.17 1121.99 1290.41 1123.99L919.859 1219.53Z" stroke="url(#paint82_linear_6530_17912)" stroke-width="3"/>
<path opacity="0.848485" d="M919.064 1218.33C911.269 1220.2 903.16 1216.83 898.977 1209.99L699.743 884.321C695.56 877.485 696.256 868.732 701.465 862.642L949.631 572.521C954.84 566.43 963.379 564.387 970.782 567.46L1323.39 713.827C1330.79 716.9 1335.37 724.389 1334.74 732.379L1304.5 1112.96C1303.86 1120.95 1298.16 1127.62 1290.36 1129.49L919.064 1218.33Z" stroke="url(#paint83_linear_6530_17912)" stroke-width="3"/>
<path opacity="0.858586" d="M918.328 1217.07C910.502 1218.8 902.453 1215.29 898.39 1208.38L705.318 880.044C701.255 873.136 702.104 864.397 707.419 858.398L960.024 573.313C965.339 567.315 973.912 565.421 981.26 568.622L1330.45 720.769C1337.8 723.97 1342.25 731.539 1341.48 739.516L1304.68 1118.63C1303.91 1126.61 1298.08 1133.18 1290.26 1134.91L918.328 1217.07Z" stroke="url(#paint84_linear_6530_17912)" stroke-width="3"/>
<path opacity="0.868687" d="M917.647 1215.68C909.792 1217.28 901.805 1213.63 897.864 1206.65L710.985 875.762C707.044 868.783 708.044 860.06 713.463 854.155L970.408 574.174C975.827 568.269 984.432 566.525 991.723 569.854L1337.4 727.704C1344.69 731.033 1349.01 738.678 1348.1 746.641L1304.79 1124.18C1303.88 1132.14 1297.94 1138.61 1290.09 1140.2L917.647 1215.68Z" stroke="url(#paint85_linear_6530_17912)" stroke-width="3"/>
<path opacity="0.878788" d="M917.033 1214.23C909.151 1215.68 901.23 1211.9 897.411 1204.85L716.757 871.53C712.938 864.484 714.09 855.78 719.611 849.97L980.794 575.157C986.315 569.347 994.949 567.754 1002.18 571.209L1344.25 734.687C1351.49 738.143 1355.67 745.862 1354.62 753.808L1304.85 1129.66C1303.8 1137.6 1297.75 1143.97 1289.87 1145.42L917.033 1214.23Z" stroke="url(#paint86_linear_6530_17912)" stroke-width="3"/>
<path opacity="0.888889" d="M916.486 1212.71C908.581 1214.03 900.726 1210.11 897.031 1203L722.629 867.356C718.933 860.244 720.238 851.561 725.859 845.849L991.179 576.265C996.801 570.553 1005.46 569.11 1012.63 572.692L1351.01 741.72C1358.18 745.302 1362.23 753.093 1361.04 761.018L1304.85 1135.07C1303.66 1142.99 1297.5 1149.25 1289.59 1150.57L916.486 1212.71Z" stroke="url(#paint87_linear_6530_17912)" stroke-width="3"/>
<path opacity="0.89899" d="M916.011 1211.11C908.084 1212.29 900.299 1208.23 896.728 1201.05L728.604 863.209C725.033 856.034 726.489 847.375 732.209 841.762L1001.56 577.468C1007.28 571.855 1015.97 570.563 1023.07 574.269L1357.67 748.769C1364.77 752.475 1368.69 760.336 1367.36 768.24L1304.79 1140.38C1303.47 1148.28 1297.2 1154.43 1289.27 1155.61L916.011 1211.11Z" stroke="url(#paint88_linear_6530_17912)" stroke-width="3"/>
<path opacity="0.909091" d="M915.592 1209.4C907.646 1210.44 899.933 1206.24 896.488 1199.01L734.665 859.082C731.22 851.846 732.827 843.214 738.644 837.701L1011.93 578.755C1017.75 573.243 1026.45 572.104 1033.49 575.933L1364.21 755.823C1371.25 759.653 1375.03 767.581 1373.56 775.46L1304.68 1145.58C1303.21 1153.46 1296.84 1159.5 1288.89 1160.54L915.592 1209.4Z" stroke="url(#paint89_linear_6530_17912)" stroke-width="3"/>
<path opacity="0.919192" d="M915.244 1207.62C907.28 1208.52 899.642 1204.2 896.324 1196.9L740.824 855.005C737.506 847.71 739.263 839.107 745.176 833.697L1022.29 580.157C1028.2 574.747 1036.92 573.76 1043.9 577.711L1370.66 762.91C1377.63 766.862 1381.27 774.854 1379.66 782.707L1304.5 1150.71C1302.9 1158.56 1296.42 1164.49 1288.46 1165.39L915.244 1207.62Z" stroke="url(#paint90_linear_6530_17912)" stroke-width="3"/>
<path opacity="0.929293" d="M914.974 1205.78C906.995 1206.54 899.434 1202.08 896.243 1194.72L747.085 850.978C743.895 843.625 745.802 835.055 751.808 829.749L1032.64 581.669C1038.65 576.363 1047.39 575.528 1054.29 579.601L1377.01 770.026C1383.91 774.099 1387.41 782.153 1385.66 789.976L1304.29 1155.75C1302.55 1163.57 1295.97 1169.38 1287.99 1170.14L914.974 1205.78Z" stroke="url(#paint91_linear_6530_17912)" stroke-width="3"/>
<path opacity="0.939394" d="M914.77 1203.87C906.78 1204.49 899.297 1199.9 896.236 1192.49L753.438 847.01C750.377 839.603 752.433 831.067 758.531 825.867L1042.98 583.299C1049.07 578.099 1057.83 577.416 1064.66 581.609L1383.25 777.175C1390.08 781.368 1393.44 789.482 1391.56 797.274L1304.02 1160.71C1302.14 1168.5 1295.46 1174.2 1287.47 1174.82L914.77 1203.87Z" stroke="url(#paint92_linear_6530_17912)" stroke-width="3"/>
<path opacity="0.949495" d="M914.641 1201.85C906.641 1202.34 899.239 1197.61 896.307 1190.15L759.883 843.057C756.952 835.598 759.157 827.099 765.345 822.006L1053.3 585C1059.49 579.907 1068.25 579.378 1075.01 583.689L1389.39 784.31C1396.15 788.621 1399.36 796.793 1397.35 804.551L1303.7 1165.55C1301.69 1173.3 1294.91 1178.88 1286.91 1179.37L914.641 1201.85Z" stroke="url(#paint93_linear_6530_17912)" stroke-width="3"/>
<path opacity="0.959596" d="M914.582 1199.78C906.575 1200.13 899.257 1195.28 896.455 1187.77L766.42 839.17C763.619 831.66 765.971 823.201 772.247 818.217L1063.6 586.823C1069.88 581.839 1078.65 581.462 1085.33 585.891L1395.43 791.479C1402.11 795.908 1405.18 804.135 1403.03 811.856L1303.33 1170.31C1301.18 1178.03 1294.31 1183.49 1286.3 1183.84L914.582 1199.78Z" stroke="url(#paint94_linear_6530_17912)" stroke-width="3"/>
<path opacity="0.969697" d="M914.599 1197.64C906.587 1197.84 899.355 1192.86 896.685 1185.31L773.047 835.325C770.378 827.768 772.878 819.352 779.24 814.478L1073.89 588.742C1080.25 583.868 1089.02 583.644 1095.63 588.189L1401.37 798.658C1407.97 803.202 1410.89 811.48 1408.61 819.163L1302.92 1174.98C1300.64 1182.66 1293.67 1188 1285.66 1188.2L914.599 1197.64Z" stroke="url(#paint95_linear_6530_17912)" stroke-width="3"/>
<path opacity="0.979798" d="M914.689 1195.44C906.675 1195.51 899.531 1190.4 896.993 1182.8L779.761 831.551C777.224 823.949 779.87 815.577 786.317 810.815L1084.15 590.78C1090.59 586.018 1099.37 585.948 1105.89 590.607L1407.19 805.865C1413.72 810.524 1416.5 818.853 1414.08 826.495L1302.46 1179.57C1300.05 1187.21 1292.99 1192.43 1284.97 1192.49L914.689 1195.44Z" stroke="url(#paint96_linear_6530_17912)" stroke-width="3"/>
<path opacity="0.989899" d="M914.866 1193.13C906.851 1193.06 899.797 1187.83 897.393 1180.18L786.575 827.787C784.171 820.142 786.963 811.817 793.491 807.168L1094.4 592.877C1100.92 588.228 1109.7 588.311 1116.14 593.083L1412.93 813.041C1419.37 817.813 1422 826.189 1419.46 833.788L1301.98 1184.02C1299.43 1191.62 1292.27 1196.71 1284.26 1196.64L914.866 1193.13Z" stroke="url(#paint97_linear_6530_17912)" stroke-width="3"/>
<path d="M915.112 1190.79C907.101 1190.58 900.139 1185.23 897.869 1177.54L793.467 824.11C791.196 816.424 794.133 808.15 800.742 803.615L1104.61 595.108C1111.22 590.574 1120 590.81 1126.35 595.694L1418.56 820.26C1424.91 825.144 1427.4 833.564 1424.72 841.117L1301.44 1188.41C1298.76 1195.97 1291.52 1200.93 1283.51 1200.72L915.112 1190.79Z" stroke="url(#paint98_linear_6530_17912)" stroke-width="3"/>
</g>
<defs>
<linearGradient id="paint0_linear_6530_17912" x1="784.226" y1="561.748" x2="542.661" y2="987.962" gradientUnits="userSpaceOnUse">
<stop stop-color="#00F0FF"/>
<stop offset="1" stop-color="#0098DB"/>
</linearGradient>
<linearGradient id="paint1_linear_6530_17912" x1="792.137" y1="565.775" x2="543.625" y2="986.938" gradientUnits="userSpaceOnUse">
<stop stop-color="#00F0FF"/>
<stop offset="1" stop-color="#0098DB"/>
</linearGradient>
<linearGradient id="paint2_linear_6530_17912" x1="799.992" y1="569.86" x2="544.636" y2="985.86" gradientUnits="userSpaceOnUse">
<stop stop-color="#00F0FF"/>
<stop offset="1" stop-color="#0098DB"/>
</linearGradient>
<linearGradient id="paint3_linear_6530_17912" x1="807.802" y1="573.978" x2="545.705" y2="984.704" gradientUnits="userSpaceOnUse">
<stop stop-color="#00F0FF"/>
<stop offset="1" stop-color="#0098DB"/>
</linearGradient>
<linearGradient id="paint4_linear_6530_17912" x1="815.557" y1="578.166" x2="546.826" y2="983.51" gradientUnits="userSpaceOnUse">
<stop stop-color="#00F0FF"/>
<stop offset="1" stop-color="#0098DB"/>
</linearGradient>
<linearGradient id="paint5_linear_6530_17912" x1="823.257" y1="582.386" x2="547.999" y2="982.241" gradientUnits="userSpaceOnUse">
<stop stop-color="#00F0FF"/>
<stop offset="1" stop-color="#0098DB"/>
</linearGradient>
<linearGradient id="paint6_linear_6530_17912" x1="830.911" y1="586.69" x2="549.236" y2="980.953" gradientUnits="userSpaceOnUse">
<stop stop-color="#00F0FF"/>
<stop offset="1" stop-color="#0098DB"/>
</linearGradient>
<linearGradient id="paint7_linear_6530_17912" x1="838.501" y1="591.024" x2="550.521" y2="979.594" gradientUnits="userSpaceOnUse">
<stop stop-color="#00F0FF"/>
<stop offset="1" stop-color="#0098DB"/>
</linearGradient>
<linearGradient id="paint8_linear_6530_17912" x1="846.039" y1="595.4" x2="551.866" y2="978.175" gradientUnits="userSpaceOnUse">
<stop stop-color="#00F0FF"/>
<stop offset="1" stop-color="#0098DB"/>
</linearGradient>
<linearGradient id="paint9_linear_6530_17912" x1="853.527" y1="599.864" x2="553.275" y2="976.748" gradientUnits="userSpaceOnUse">
<stop stop-color="#00F0FF"/>
<stop offset="1" stop-color="#0098DB"/>
</linearGradient>
<linearGradient id="paint10_linear_6530_17912" x1="860.949" y1="604.333" x2="554.735" y2="975.23" gradientUnits="userSpaceOnUse">
<stop stop-color="#00F0FF"/>
<stop offset="1" stop-color="#0098DB"/>
</linearGradient>
<linearGradient id="paint11_linear_6530_17912" x1="868.328" y1="608.855" x2="556.269" y2="973.672" gradientUnits="userSpaceOnUse">
<stop stop-color="#00F0FF"/>
<stop offset="1" stop-color="#0098DB"/>
</linearGradient>
<linearGradient id="paint12_linear_6530_17912" x1="875.633" y1="613.432" x2="557.847" y2="972.078" gradientUnits="userSpaceOnUse">
<stop stop-color="#00F0FF"/>
<stop offset="1" stop-color="#0098DB"/>
</linearGradient>
<linearGradient id="paint13_linear_6530_17912" x1="882.884" y1="618.046" x2="559.492" y2="970.433" gradientUnits="userSpaceOnUse">
<stop stop-color="#00F0FF"/>
<stop offset="1" stop-color="#0098DB"/>
</linearGradient>
<linearGradient id="paint14_linear_6530_17912" x1="890.082" y1="622.72" x2="561.205" y2="968.761" gradientUnits="userSpaceOnUse">
<stop stop-color="#00F0FF"/>
<stop offset="1" stop-color="#0098DB"/>
</linearGradient>
<linearGradient id="paint15_linear_6530_17912" x1="897.21" y1="627.407" x2="562.971" y2="967.019" gradientUnits="userSpaceOnUse">
<stop stop-color="#00F0FF"/>
<stop offset="1" stop-color="#0098DB"/>
</linearGradient>
<linearGradient id="paint16_linear_6530_17912" x1="904.29" y1="632.139" x2="564.813" y2="965.24" gradientUnits="userSpaceOnUse">
<stop stop-color="#00F0FF"/>
<stop offset="1" stop-color="#0098DB"/>
</linearGradient>
<linearGradient id="paint17_linear_6530_17912" x1="911.295" y1="636.934" x2="566.705" y2="963.444" gradientUnits="userSpaceOnUse">
<stop stop-color="#00F0FF"/>
<stop offset="1" stop-color="#0098DB"/>
</linearGradient>
<linearGradient id="paint18_linear_6530_17912" x1="918.243" y1="641.744" x2="568.667" y2="961.587" gradientUnits="userSpaceOnUse">
<stop stop-color="#00F0FF"/>
<stop offset="1" stop-color="#0098DB"/>
</linearGradient>
<linearGradient id="paint19_linear_6530_17912" x1="925.134" y1="646.602" x2="570.699" y2="959.703" gradientUnits="userSpaceOnUse">
<stop stop-color="#00F0FF"/>
<stop offset="1" stop-color="#0098DB"/>
</linearGradient>
<linearGradient id="paint20_linear_6530_17912" x1="931.952" y1="651.509" x2="572.787" y2="957.797" gradientUnits="userSpaceOnUse">
<stop stop-color="#00F0FF"/>
<stop offset="1" stop-color="#0098DB"/>
</linearGradient>
<linearGradient id="paint21_linear_6530_17912" x1="938.717" y1="656.403" x2="574.951" y2="955.807" gradientUnits="userSpaceOnUse">
<stop stop-color="#00F0FF"/>
<stop offset="1" stop-color="#0098DB"/>
</linearGradient>
<linearGradient id="paint22_linear_6530_17912" x1="945.407" y1="661.391" x2="577.172" y2="953.845" gradientUnits="userSpaceOnUse">
<stop stop-color="#00F0FF"/>
<stop offset="1" stop-color="#0098DB"/>
</linearGradient>
<linearGradient id="paint23_linear_6530_17912" x1="952.045" y1="666.36" x2="579.471" y2="951.8" gradientUnits="userSpaceOnUse">
<stop stop-color="#00F0FF"/>
<stop offset="1" stop-color="#0098DB"/>
</linearGradient>
<linearGradient id="paint24_linear_6530_17912" x1="958.61" y1="671.381" x2="581.83" y2="949.744" gradientUnits="userSpaceOnUse">
<stop stop-color="#00F0FF"/>
<stop offset="1" stop-color="#0098DB"/>
</linearGradient>
<linearGradient id="paint25_linear_6530_17912" x1="965.112" y1="676.431" x2="584.26" y2="947.658" gradientUnits="userSpaceOnUse">
<stop stop-color="#00F0FF"/>
<stop offset="1" stop-color="#0098DB"/>
</linearGradient>
<linearGradient id="paint26_linear_6530_17912" x1="971.547" y1="681.505" x2="586.757" y2="945.537" gradientUnits="userSpaceOnUse">
<stop stop-color="#00F0FF"/>
<stop offset="1" stop-color="#0098DB"/>
</linearGradient>
<linearGradient id="paint27_linear_6530_17912" x1="977.918" y1="686.612" x2="589.324" y2="943.396" gradientUnits="userSpaceOnUse">
<stop stop-color="#00F0FF"/>
<stop offset="1" stop-color="#0098DB"/>
</linearGradient>
<linearGradient id="paint28_linear_6530_17912" x1="984.216" y1="691.723" x2="591.954" y2="941.206" gradientUnits="userSpaceOnUse">
<stop stop-color="#00F0FF"/>
<stop offset="1" stop-color="#0098DB"/>
</linearGradient>
<linearGradient id="paint29_linear_6530_17912" x1="990.458" y1="696.893" x2="594.664" y2="939.026" gradientUnits="userSpaceOnUse">
<stop stop-color="#00F0FF"/>
<stop offset="1" stop-color="#0098DB"/>
</linearGradient>
<linearGradient id="paint30_linear_6530_17912" x1="996.623" y1="702.081" x2="597.434" y2="936.816" gradientUnits="userSpaceOnUse">
<stop stop-color="#00F0FF"/>
<stop offset="1" stop-color="#0098DB"/>
</linearGradient>
<linearGradient id="paint31_linear_6530_17912" x1="1002.73" y1="707.292" x2="600.283" y2="934.585" gradientUnits="userSpaceOnUse">
<stop stop-color="#00F0FF"/>
<stop offset="1" stop-color="#0098DB"/>
</linearGradient>
<linearGradient id="paint32_linear_6530_17912" x1="1008.77" y1="712.504" x2="603.2" y2="932.312" gradientUnits="userSpaceOnUse">
<stop stop-color="#00F0FF"/>
<stop offset="1" stop-color="#0098DB"/>
</linearGradient>
<linearGradient id="paint33_linear_6530_17912" x1="1014.73" y1="717.747" x2="606.18" y2="930.032" gradientUnits="userSpaceOnUse">
<stop stop-color="#00F0FF"/>
<stop offset="1" stop-color="#0098DB"/>
</linearGradient>
<linearGradient id="paint34_linear_6530_17912" x1="1020.63" y1="723.021" x2="609.242" y2="927.745" gradientUnits="userSpaceOnUse">
<stop stop-color="#00F0FF"/>
<stop offset="1" stop-color="#0098DB"/>
</linearGradient>
<linearGradient id="paint35_linear_6530_17912" x1="1026.46" y1="728.282" x2="612.368" y2="925.41" gradientUnits="userSpaceOnUse">
<stop stop-color="#00F0FF"/>
<stop offset="1" stop-color="#0098DB"/>
</linearGradient>
<linearGradient id="paint36_linear_6530_17912" x1="1032.22" y1="733.603" x2="615.561" y2="923.104" gradientUnits="userSpaceOnUse">
<stop stop-color="#00F0FF"/>
<stop offset="1" stop-color="#0098DB"/>
</linearGradient>
<linearGradient id="paint37_linear_6530_17912" x1="1037.92" y1="738.893" x2="618.839" y2="920.738" gradientUnits="userSpaceOnUse">
<stop stop-color="#00F0FF"/>
<stop offset="1" stop-color="#0098DB"/>
</linearGradient>
<linearGradient id="paint38_linear_6530_17912" x1="1043.54" y1="744.212" x2="622.18" y2="918.375" gradientUnits="userSpaceOnUse">
<stop stop-color="#00F0FF"/>
<stop offset="1" stop-color="#0098DB"/>
</linearGradient>
<linearGradient id="paint39_linear_6530_17912" x1="1049.1" y1="749.55" x2="625.591" y2="916.005" gradientUnits="userSpaceOnUse">
<stop stop-color="#00F0FF"/>
<stop offset="1" stop-color="#0098DB"/>
</linearGradient>
<linearGradient id="paint40_linear_6530_17912" x1="1054.58" y1="754.886" x2="629.073" y2="913.612" gradientUnits="userSpaceOnUse">
<stop stop-color="#00F0FF"/>
<stop offset="1" stop-color="#0098DB"/>
</linearGradient>
<linearGradient id="paint41_linear_6530_17912" x1="1060.01" y1="760.254" x2="632.635" y2="911.232" gradientUnits="userSpaceOnUse">
<stop stop-color="#00F0FF"/>
<stop offset="1" stop-color="#0098DB"/>
</linearGradient>
<linearGradient id="paint42_linear_6530_17912" x1="1065.35" y1="765.603" x2="636.258" y2="908.816" gradientUnits="userSpaceOnUse">
<stop stop-color="#00F0FF"/>
<stop offset="1" stop-color="#0098DB"/>
</linearGradient>
<linearGradient id="paint43_linear_6530_17912" x1="1070.64" y1="770.987" x2="639.96" y2="906.421" gradientUnits="userSpaceOnUse">
<stop stop-color="#00F0FF"/>
<stop offset="1" stop-color="#0098DB"/>
</linearGradient>
<linearGradient id="paint44_linear_6530_17912" x1="1075.84" y1="776.333" x2="643.728" y2="903.978" gradientUnits="userSpaceOnUse">
<stop stop-color="#00F0FF"/>
<stop offset="1" stop-color="#0098DB"/>
</linearGradient>
<linearGradient id="paint45_linear_6530_17912" x1="1080.99" y1="781.709" x2="647.576" y2="901.554" gradientUnits="userSpaceOnUse">
<stop stop-color="#00F0FF"/>
<stop offset="1" stop-color="#0098DB"/>
</linearGradient>
<linearGradient id="paint46_linear_6530_17912" x1="1086.06" y1="787.096" x2="651.484" y2="899.135" gradientUnits="userSpaceOnUse">
<stop stop-color="#00F0FF"/>
<stop offset="1" stop-color="#0098DB"/>
</linearGradient>
<linearGradient id="paint47_linear_6530_17912" x1="1091.07" y1="792.493" x2="655.473" y2="896.724" gradientUnits="userSpaceOnUse">
<stop stop-color="#00F0FF"/>
<stop offset="1" stop-color="#0098DB"/>
</linearGradient>
<linearGradient id="paint48_linear_6530_17912" x1="1096" y1="797.856" x2="659.529" y2="894.275" gradientUnits="userSpaceOnUse">
<stop stop-color="#00F0FF"/>
<stop offset="1" stop-color="#0098DB"/>
</linearGradient>
<linearGradient id="paint49_linear_6530_17912" x1="1100.87" y1="803.265" x2="663.656" y2="891.875" gradientUnits="userSpaceOnUse">
<stop stop-color="#00F0FF"/>
<stop offset="1" stop-color="#0098DB"/>
</linearGradient>
<linearGradient id="paint50_linear_6530_17912" x1="1105.67" y1="808.648" x2="667.853" y2="889.451" gradientUnits="userSpaceOnUse">
<stop stop-color="#00F0FF"/>
<stop offset="1" stop-color="#0098DB"/>
</linearGradient>
<linearGradient id="paint51_linear_6530_17912" x1="1110.4" y1="814.044" x2="672.125" y2="887.047" gradientUnits="userSpaceOnUse">
<stop stop-color="#00F0FF"/>
<stop offset="1" stop-color="#0098DB"/>
</linearGradient>
<linearGradient id="paint52_linear_6530_17912" x1="1115.06" y1="819.396" x2="676.463" y2="884.607" gradientUnits="userSpaceOnUse">
<stop stop-color="#00F0FF"/>
<stop offset="1" stop-color="#0098DB"/>
</linearGradient>
<linearGradient id="paint53_linear_6530_17912" x1="1119.66" y1="824.768" x2="680.873" y2="882.199" gradientUnits="userSpaceOnUse">
<stop stop-color="#00F0FF"/>
<stop offset="1" stop-color="#0098DB"/>
</linearGradient>
<linearGradient id="paint54_linear_6530_17912" x1="1124.18" y1="830.137" x2="685.352" y2="879.801" gradientUnits="userSpaceOnUse">
<stop stop-color="#00F0FF"/>
<stop offset="1" stop-color="#0098DB"/>
</linearGradient>
<linearGradient id="paint55_linear_6530_17912" x1="1128.65" y1="835.514" x2="689.904" y2="877.427" gradientUnits="userSpaceOnUse">
<stop stop-color="#00F0FF"/>
<stop offset="1" stop-color="#0098DB"/>
</linearGradient>
<linearGradient id="paint56_linear_6530_17912" x1="1133.05" y1="840.834" x2="694.531" y2="875.014" gradientUnits="userSpaceOnUse">
<stop stop-color="#00F0FF"/>
<stop offset="1" stop-color="#0098DB"/>
</linearGradient>
<linearGradient id="paint57_linear_6530_17912" x1="1137.37" y1="846.185" x2="699.218" y2="872.653" gradientUnits="userSpaceOnUse">
<stop stop-color="#00F0FF"/>
<stop offset="1" stop-color="#0098DB"/>
</linearGradient>
<linearGradient id="paint58_linear_6530_17912" x1="1141.63" y1="851.519" x2="703.972" y2="870.297" gradientUnits="userSpaceOnUse">
<stop stop-color="#00F0FF"/>
<stop offset="1" stop-color="#0098DB"/>
</linearGradient>
<linearGradient id="paint59_linear_6530_17912" x1="1145.83" y1="856.844" x2="708.806" y2="867.958" gradientUnits="userSpaceOnUse">
<stop stop-color="#00F0FF"/>
<stop offset="1" stop-color="#0098DB"/>
</linearGradient>
<linearGradient id="paint60_linear_6530_17912" x1="1149.95" y1="862.147" x2="713.694" y2="865.624" gradientUnits="userSpaceOnUse">
<stop stop-color="#00F0FF"/>
<stop offset="1" stop-color="#0098DB"/>
</linearGradient>
<linearGradient id="paint61_linear_6530_17912" x1="1154.02" y1="867.419" x2="718.662" y2="863.291" gradientUnits="userSpaceOnUse">
<stop stop-color="#00F0FF"/>
<stop offset="1" stop-color="#0098DB"/>
</linearGradient>
<linearGradient id="paint62_linear_6530_17912" x1="1158.01" y1="872.71" x2="723.688" y2="861.009" gradientUnits="userSpaceOnUse">
<stop stop-color="#00F0FF"/>
<stop offset="1" stop-color="#0098DB"/>
</linearGradient>
<linearGradient id="paint63_linear_6530_17912" x1="1161.95" y1="877.945" x2="728.789" y2="858.706" gradientUnits="userSpaceOnUse">
<stop stop-color="#00F0FF"/>
<stop offset="1" stop-color="#0098DB"/>
</linearGradient>
<linearGradient id="paint64_linear_6530_17912" x1="1165.82" y1="883.197" x2="733.953" y2="856.456" gradientUnits="userSpaceOnUse">
<stop stop-color="#00F0FF"/>
<stop offset="1" stop-color="#0098DB"/>
</linearGradient>
<linearGradient id="paint65_linear_6530_17912" x1="1169.63" y1="888.422" x2="739.185" y2="854.219" gradientUnits="userSpaceOnUse">
<stop stop-color="#00F0FF"/>
<stop offset="1" stop-color="#0098DB"/>
</linearGradient>
<linearGradient id="paint66_linear_6530_17912" x1="1173.37" y1="893.612" x2="744.48" y2="851.988" gradientUnits="userSpaceOnUse">
<stop stop-color="#00F0FF"/>
<stop offset="1" stop-color="#0098DB"/>
</linearGradient>
<linearGradient id="paint67_linear_6530_17912" x1="1177.05" y1="898.797" x2="749.838" y2="849.797" gradientUnits="userSpaceOnUse">
<stop stop-color="#00F0FF"/>
<stop offset="1" stop-color="#0098DB"/>
</linearGradient>
<linearGradient id="paint68_linear_6530_17912" x1="1180.67" y1="903.961" x2="755.264" y2="847.629" gradientUnits="userSpaceOnUse">
<stop stop-color="#00F0FF"/>
<stop offset="1" stop-color="#0098DB"/>
</linearGradient>
<linearGradient id="paint69_linear_6530_17912" x1="1184.23" y1="909.092" x2="760.757" y2="845.476" gradientUnits="userSpaceOnUse">
<stop stop-color="#00F0FF"/>
<stop offset="1" stop-color="#0098DB"/>
</linearGradient>
<linearGradient id="paint70_linear_6530_17912" x1="1187.71" y1="914.177" x2="766.297" y2="843.329" gradientUnits="userSpaceOnUse">
<stop stop-color="#00F0FF"/>
<stop offset="1" stop-color="#0098DB"/>
</linearGradient>
<linearGradient id="paint71_linear_6530_17912" x1="1191.15" y1="919.247" x2="771.918" y2="841.219" gradientUnits="userSpaceOnUse">
<stop stop-color="#00F0FF"/>
<stop offset="1" stop-color="#0098DB"/>
</linearGradient>
<linearGradient id="paint72_linear_6530_17912" x1="1194.53" y1="924.327" x2="777.594" y2="839.172" gradientUnits="userSpaceOnUse">
<stop stop-color="#00F0FF"/>
<stop offset="1" stop-color="#0098DB"/>
</linearGradient>
<linearGradient id="paint73_linear_6530_17912" x1="1197.85" y1="929.344" x2="783.336" y2="837.12" gradientUnits="userSpaceOnUse">
<stop stop-color="#00F0FF"/>
<stop offset="1" stop-color="#0098DB"/>
</linearGradient>
<linearGradient id="paint74_linear_6530_17912" x1="1201.1" y1="934.343" x2="789.13" y2="835.108" gradientUnits="userSpaceOnUse">
<stop stop-color="#00F0FF"/>
<stop offset="1" stop-color="#0098DB"/>
</linearGradient>
<linearGradient id="paint75_linear_6530_17912" x1="1204.3" y1="939.337" x2="794.99" y2="833.153" gradientUnits="userSpaceOnUse">
<stop stop-color="#00F0FF"/>
<stop offset="1" stop-color="#0098DB"/>
</linearGradient>
<linearGradient id="paint76_linear_6530_17912" x1="1207.44" y1="944.295" x2="800.906" y2="831.223" gradientUnits="userSpaceOnUse">
<stop stop-color="#00F0FF"/>
<stop offset="1" stop-color="#0098DB"/>
</linearGradient>
<linearGradient id="paint77_linear_6530_17912" x1="1210.53" y1="949.179" x2="806.889" y2="829.284" gradientUnits="userSpaceOnUse">
<stop stop-color="#00F0FF"/>
<stop offset="1" stop-color="#0098DB"/>
</linearGradient>
<linearGradient id="paint78_linear_6530_17912" x1="1213.55" y1="954.06" x2="812.917" y2="827.408" gradientUnits="userSpaceOnUse">
<stop stop-color="#00F0FF"/>
<stop offset="1" stop-color="#0098DB"/>
</linearGradient>
<linearGradient id="paint79_linear_6530_17912" x1="1216.52" y1="958.886" x2="819.008" y2="825.546" gradientUnits="userSpaceOnUse">
<stop stop-color="#00F0FF"/>
<stop offset="1" stop-color="#0098DB"/>
</linearGradient>
<linearGradient id="paint80_linear_6530_17912" x1="1219.45" y1="963.714" x2="825.165" y2="823.755" gradientUnits="userSpaceOnUse">
<stop stop-color="#00F0FF"/>
<stop offset="1" stop-color="#0098DB"/>
</linearGradient>
<linearGradient id="paint81_linear_6530_17912" x1="1222.31" y1="968.474" x2="831.366" y2="821.968" gradientUnits="userSpaceOnUse">
<stop stop-color="#00F0FF"/>
<stop offset="1" stop-color="#0098DB"/>
</linearGradient>
<linearGradient id="paint82_linear_6530_17912" x1="1225.12" y1="973.206" x2="837.62" y2="820.228" gradientUnits="userSpaceOnUse">
<stop stop-color="#00F0FF"/>
<stop offset="1" stop-color="#0098DB"/>
</linearGradient>
<linearGradient id="paint83_linear_6530_17912" x1="1227.88" y1="977.903" x2="843.937" y2="818.528" gradientUnits="userSpaceOnUse">
<stop stop-color="#00F0FF"/>
<stop offset="1" stop-color="#0098DB"/>
</linearGradient>
<linearGradient id="paint84_linear_6530_17912" x1="1230.59" y1="982.582" x2="850.307" y2="816.889" gradientUnits="userSpaceOnUse">
<stop stop-color="#00F0FF"/>
<stop offset="1" stop-color="#0098DB"/>
</linearGradient>
<linearGradient id="paint85_linear_6530_17912" x1="1233.24" y1="987.185" x2="856.722" y2="815.251" gradientUnits="userSpaceOnUse">
<stop stop-color="#00F0FF"/>
<stop offset="1" stop-color="#0098DB"/>
</linearGradient>
<linearGradient id="paint86_linear_6530_17912" x1="1235.85" y1="991.765" x2="863.192" y2="813.671" gradientUnits="userSpaceOnUse">
<stop stop-color="#00F0FF"/>
<stop offset="1" stop-color="#0098DB"/>
</linearGradient>
<linearGradient id="paint87_linear_6530_17912" x1="1238.41" y1="996.325" x2="869.715" y2="812.155" gradientUnits="userSpaceOnUse">
<stop stop-color="#00F0FF"/>
<stop offset="1" stop-color="#0098DB"/>
</linearGradient>
<linearGradient id="paint88_linear_6530_17912" x1="1240.92" y1="1000.83" x2="876.293" y2="810.671" gradientUnits="userSpaceOnUse">
<stop stop-color="#00F0FF"/>
<stop offset="1" stop-color="#0098DB"/>
</linearGradient>
<linearGradient id="paint89_linear_6530_17912" x1="1243.38" y1="1005.28" x2="882.91" y2="809.21" gradientUnits="userSpaceOnUse">
<stop stop-color="#00F0FF"/>
<stop offset="1" stop-color="#0098DB"/>
</linearGradient>
<linearGradient id="paint90_linear_6530_17912" x1="1245.79" y1="1009.7" x2="889.575" y2="807.804" gradientUnits="userSpaceOnUse">
<stop stop-color="#00F0FF"/>
<stop offset="1" stop-color="#0098DB"/>
</linearGradient>
<linearGradient id="paint91_linear_6530_17912" x1="1248.16" y1="1014.07" x2="896.296" y2="806.45" gradientUnits="userSpaceOnUse">
<stop stop-color="#00F0FF"/>
<stop offset="1" stop-color="#0098DB"/>
</linearGradient>
<linearGradient id="paint92_linear_6530_17912" x1="1250.49" y1="1018.42" x2="903.059" y2="805.156" gradientUnits="userSpaceOnUse">
<stop stop-color="#00F0FF"/>
<stop offset="1" stop-color="#0098DB"/>
</linearGradient>
<linearGradient id="paint93_linear_6530_17912" x1="1252.77" y1="1022.69" x2="909.869" y2="803.878" gradientUnits="userSpaceOnUse">
<stop stop-color="#00F0FF"/>
<stop offset="1" stop-color="#0098DB"/>
</linearGradient>
<linearGradient id="paint94_linear_6530_17912" x1="1255" y1="1026.94" x2="916.72" y2="802.667" gradientUnits="userSpaceOnUse">
<stop stop-color="#00F0FF"/>
<stop offset="1" stop-color="#0098DB"/>
</linearGradient>
<linearGradient id="paint95_linear_6530_17912" x1="1257.2" y1="1031.13" x2="923.615" y2="801.497" gradientUnits="userSpaceOnUse">
<stop stop-color="#00F0FF"/>
<stop offset="1" stop-color="#0098DB"/>
</linearGradient>
<linearGradient id="paint96_linear_6530_17912" x1="1259.35" y1="1035.3" x2="930.55" y2="800.395" gradientUnits="userSpaceOnUse">
<stop stop-color="#00F0FF"/>
<stop offset="1" stop-color="#0098DB"/>
</linearGradient>
<linearGradient id="paint97_linear_6530_17912" x1="1261.46" y1="1039.37" x2="937.537" y2="799.3" gradientUnits="userSpaceOnUse">
<stop stop-color="#00F0FF"/>
<stop offset="1" stop-color="#0098DB"/>
</linearGradient>
<linearGradient id="paint98_linear_6530_17912" x1="1263.54" y1="1043.43" x2="944.555" y2="798.289" gradientUnits="userSpaceOnUse">
<stop stop-color="#00F0FF"/>
<stop offset="1" stop-color="#0098DB"/>
</linearGradient>
</defs>
</svg>
