<svg width="20" height="20" viewBox="0 0 20 20" fill="none" xmlns="http://www.w3.org/2000/svg">
<path d="M12.5002 14.1667C11.8339 14.6853 10.9587 15 10.0002 15C9.04159 15 8.16643 14.6853 7.50015 14.1667" stroke="#09090B" stroke-width="1.25" stroke-linecap="round"/>
<path d="M1.95963 11.0112C1.66545 9.09682 1.51836 8.13968 1.88028 7.29114C2.2422 6.44259 3.04517 5.86201 4.65109 4.70087L5.85097 3.83332C7.84872 2.38888 8.84758 1.66666 10.0002 1.66666C11.1527 1.66666 12.1516 2.38888 14.1493 3.83332L15.3492 4.70087C16.9552 5.86201 17.7581 6.44259 18.12 7.29114C18.4819 8.13968 18.3348 9.09682 18.0407 11.0112L17.7898 12.6437C17.3727 15.3574 17.1642 16.7143 16.191 17.5238C15.2177 18.3333 13.7948 18.3333 10.9492 18.3333H9.05116C6.20543 18.3333 4.78257 18.3333 3.80931 17.5238C2.83605 16.7143 2.62753 15.3574 2.2105 12.6437L1.95963 11.0112Z" stroke="#09090B" stroke-width="1.25" stroke-linejoin="round"/>
</svg>
