<svg width="17" height="17" viewBox="0 0 17 17" fill="none" xmlns="http://www.w3.org/2000/svg">
<path d="M2.06641 8.49935C2.06641 5.51379 2.06641 4.02101 2.9939 3.09351C3.9214 2.16602 5.41418 2.16602 8.39974 2.16602C11.3853 2.16602 12.8781 2.16602 13.8056 3.09351C14.7331 4.02101 14.7331 5.51379 14.7331 8.49935C14.7331 11.4849 14.7331 12.9777 13.8056 13.9052C12.8781 14.8327 11.3853 14.8327 8.39974 14.8327C5.41418 14.8327 3.9214 14.8327 2.9939 13.9052C2.06641 12.9777 2.06641 11.4849 2.06641 8.49935Z" stroke="#71717A"/>
<path d="M8.5612 11.834V8.50065C8.5612 8.18638 8.5612 8.02925 8.46357 7.93162C8.36594 7.83398 8.2088 7.83398 7.89453 7.83398" stroke="#71717A" stroke-linecap="round" stroke-linejoin="round"/>
<path d="M8.3944 5.83398H8.40039" stroke="#71717A" stroke-linecap="round" stroke-linejoin="round"/>
</svg>
