<svg width="20" height="20" viewBox="0 0 20 20" fill="none" xmlns="http://www.w3.org/2000/svg">
<path d="M13.7006 17.7898L14.1608 17.2147C14.5651 16.7093 15.4238 16.75 15.7653 17.2907C16.1762 17.9412 17.191 17.8119 17.4724 17.2135C17.4871 17.1824 17.4504 17.2602 17.4818 16.991C17.513 16.7217 17.5 16.6603 17.4739 16.5373L15.8713 8.97008C15.4686 7.06829 15.2672 6.11738 14.5744 5.55869C13.8818 5 12.904 5 10.9487 5H9.05133C7.09598 5 6.11828 5 5.42555 5.55869C4.73281 6.11738 4.53143 7.06829 4.12866 8.97008L2.52608 16.5373C2.50003 16.6603 2.48701 16.7217 2.51828 16.991C2.54955 17.2602 2.51295 17.1824 2.52758 17.2135C2.80903 17.8119 3.8238 17.9412 4.23471 17.2907C4.57627 16.75 5.43489 16.7093 5.83924 17.2147L6.29945 17.7898C6.87928 18.5145 8.09016 18.5145 8.67 17.7898L8.74233 17.6993C9.35758 16.9304 10.6424 16.9304 11.2577 17.6993L11.33 17.7898C11.9098 18.5145 13.1208 18.5145 13.7006 17.7898Z" stroke="#09090B" stroke-width="1.25" stroke-linejoin="round"/>
<path d="M2.06947 7.91666C1.58171 7.40998 1.67354 6.75743 1.67354 5.12646C1.67354 3.49549 1.67354 2.68001 2.1613 2.17333C2.64905 1.66666 3.43409 1.66666 5.00415 1.66666H14.996C16.566 1.66666 17.3511 1.66666 17.8388 2.17333C18.3266 2.68001 18.3266 3.49549 18.3266 5.12646C18.3266 6.75743 18.4178 7.40998 17.9301 7.91666" stroke="#09090B" stroke-width="1.25" stroke-linecap="round"/>
<path d="M10 8.33334H7.5" stroke="#09090B" stroke-width="1.25" stroke-linecap="round" stroke-linejoin="round"/>
<path d="M11.6667 11.6667H6.66667" stroke="#09090B" stroke-width="1.25" stroke-linecap="round" stroke-linejoin="round"/>
</svg>
