<svg width="16" height="16" viewBox="0 0 16 16" fill="none" xmlns="http://www.w3.org/2000/svg">
<g clip-path="url(#clip0_340_10574)">
<path d="M10.9605 14.2319L11.3286 13.7717C11.6521 13.3674 12.339 13.4 12.6123 13.8325C12.9409 14.353 13.7528 14.2495 13.9779 13.7708C13.9897 13.7459 13.9603 13.8082 13.9854 13.5928C14.0104 13.3774 14 13.3282 13.9791 13.2299L12.6971 7.17607C12.3749 5.65463 12.2137 4.89391 11.6595 4.44695C11.1054 4 10.3232 4 8.75893 4H7.24107C5.67678 4 4.89463 4 4.34044 4.44695C3.78625 4.89391 3.62514 5.65463 3.30293 7.17607L2.02087 13.2299C2.00003 13.3282 1.98961 13.3774 2.01463 13.5928C2.03964 13.8082 2.01036 13.7459 2.02207 13.7708C2.24723 14.2495 3.05904 14.353 3.38777 13.8325C3.66101 13.4 4.34791 13.3674 4.67139 13.7717L5.03956 14.2319C5.50343 14.8116 6.47213 14.8116 6.936 14.2319L6.99387 14.1595C7.48607 13.5443 8.51393 13.5443 9.00613 14.1595L9.064 14.2319C9.52787 14.8116 10.4966 14.8116 10.9605 14.2319Z" stroke="#067CB0" stroke-linejoin="round"/>
<path d="M1.65559 6.33325C1.26538 5.92791 1.33884 5.40587 1.33884 4.10109C1.33884 2.79632 1.33884 2.14393 1.72905 1.73859C2.11925 1.33325 2.74728 1.33325 4.00333 1.33325H11.9968C13.2528 1.33325 13.8809 1.33325 14.2711 1.73859C14.6613 2.14393 14.6613 2.79632 14.6613 4.10109C14.6613 5.40587 14.7343 5.92791 14.3441 6.33325" stroke="#067CB0" stroke-linecap="round"/>
<path d="M8 6.66675H6" stroke="#067CB0" stroke-linecap="round" stroke-linejoin="round"/>
<path d="M9.33334 9.33325H5.33334" stroke="#067CB0" stroke-linecap="round" stroke-linejoin="round"/>
</g>
<defs>
<clipPath id="clip0_340_10574">
<rect width="16" height="16" fill="white"/>
</clipPath>
</defs>
</svg>
