<svg width="20" height="20" viewBox="0 0 20 20" fill="none" xmlns="http://www.w3.org/2000/svg">
<path fill-rule="evenodd" clip-rule="evenodd" d="M1.66663 4.99935C1.66663 4.53911 2.03972 4.16602 2.49996 4.16602H2.50829C2.96853 4.16602 3.34163 4.53911 3.34163 4.99935C3.34163 5.45959 2.96853 5.83268 2.50829 5.83268H2.49996C2.03972 5.83268 1.66663 5.45959 1.66663 4.99935ZM5.83329 4.99935C5.83329 4.53911 6.20639 4.16602 6.66663 4.16602H17.5C17.9602 4.16602 18.3333 4.53911 18.3333 4.99935C18.3333 5.45959 17.9602 5.83268 17.5 5.83268H6.66663C6.20639 5.83268 5.83329 5.45959 5.83329 4.99935ZM1.66663 9.99935C1.66663 9.53911 2.03972 9.16602 2.49996 9.16602H2.50829C2.96853 9.16602 3.34163 9.53911 3.34163 9.99935C3.34163 10.4596 2.96853 10.8327 2.50829 10.8327H2.49996C2.03972 10.8327 1.66663 10.4596 1.66663 9.99935ZM5.83329 9.99935C5.83329 9.53911 6.20639 9.16602 6.66663 9.16602H17.5C17.9602 9.16602 18.3333 9.53911 18.3333 9.99935C18.3333 10.4596 17.9602 10.8327 17.5 10.8327H6.66663C6.20639 10.8327 5.83329 10.4596 5.83329 9.99935ZM1.66663 14.9993C1.66663 14.5391 2.03972 14.166 2.49996 14.166H2.50829C2.96853 14.166 3.34163 14.5391 3.34163 14.9993C3.34163 15.4596 2.96853 15.8327 2.50829 15.8327H2.49996C2.03972 15.8327 1.66663 15.4596 1.66663 14.9993ZM5.83329 14.9993C5.83329 14.5391 6.20639 14.166 6.66663 14.166H17.5C17.9602 14.166 18.3333 14.5391 18.3333 14.9993C18.3333 15.4596 17.9602 15.8327 17.5 15.8327H6.66663C6.20639 15.8327 5.83329 15.4596 5.83329 14.9993Z" fill="#71717A"/>
</svg>
