<svg width="20" height="20" viewBox="0 0 20 20" fill="none" xmlns="http://www.w3.org/2000/svg">
<path d="M7.20248 2.62141L5.7818 3.2781C3.59393 4.2894 2.5 4.79506 2.5 5.62508C2.5 6.45511 3.59393 6.96076 5.7818 7.97207L7.20249 8.62875C8.57936 9.26519 9.26781 9.58341 10 9.58341C10.7322 9.58341 11.4206 9.26519 12.7975 8.62875L14.2182 7.97207C16.4061 6.96076 17.5 6.45511 17.5 5.62508C17.5 4.79506 16.4061 4.2894 14.2182 3.2781L12.7975 2.62141C11.4206 1.98497 10.7322 1.66675 10 1.66675C9.26781 1.66675 8.57937 1.98497 7.20248 2.62141Z" stroke="#004C6E" stroke-width="1.5" stroke-linecap="round" stroke-linejoin="round"/>
<path d="M17.3233 9.2478C17.4411 9.41344 17.5 9.58606 17.5 9.7759C17.5 10.5941 16.4061 11.0926 14.2182 12.0895L12.7975 12.7368C11.4206 13.3642 10.7322 13.6779 10 13.6779C9.26781 13.6779 8.57936 13.3642 7.20249 12.7368L5.7818 12.0895C3.59394 11.0926 2.5 10.5941 2.5 9.7759C2.5 9.58606 2.55889 9.41343 2.67667 9.2478" stroke="#004C6E" stroke-width="1.5" stroke-linecap="round" stroke-linejoin="round"/>
<path d="M16.9806 13.5552C17.3269 13.831 17.5 14.1059 17.5 14.4314C17.5 15.2496 16.4061 15.7481 14.2182 16.745L12.7975 17.3923C11.4206 18.0197 10.7322 18.3334 10 18.3334C9.26781 18.3334 8.57936 18.0197 7.20249 17.3923L5.7818 16.745C3.59394 15.7481 2.5 15.2496 2.5 14.4314C2.5 14.1059 2.67315 13.831 3.01945 13.5552" stroke="#004C6E" stroke-width="1.5" stroke-linecap="round" stroke-linejoin="round"/>
</svg>
