<svg width="21" height="20" viewBox="0 0 21 20" fill="none" xmlns="http://www.w3.org/2000/svg">
<path d="M13 14.6875C12.9387 16.2307 11.6526 17.5412 9.92967 17.499C9.52883 17.4892 9.03342 17.3495 8.0426 17.07C5.65801 16.3973 3.58796 15.2669 3.0913 12.7346C3 12.2692 3 11.7453 3 10.6977V9.30225C3 8.25467 3 7.73087 3.0913 7.26538C3.58796 4.73304 5.65801 3.60263 8.0426 2.93002C9.03342 2.65053 9.52883 2.51079 9.92967 2.50099C11.6526 2.45884 12.9387 3.76922 13 5.31251" stroke="#EF4444" stroke-width="1.5" stroke-linecap="round"/>
<path d="M18.0007 10.0001H8.83398M18.0007 10.0001C18.0007 9.41658 16.3387 8.32636 15.9173 7.91675M18.0007 10.0001C18.0007 10.5836 16.3387 11.6738 15.9173 12.0834" stroke="#EF4444" stroke-width="1.5" stroke-linecap="round" stroke-linejoin="round"/>
</svg>
