<svg width="20" height="20" viewBox="0 0 20 20" fill="none" xmlns="http://www.w3.org/2000/svg">
<path d="M1.66663 15.8333L7.42748 11.9087C9.53221 10.4748 10.4677 10.4748 12.5725 11.9087L18.3333 15.8333" stroke="#80551C" stroke-width="1.25" stroke-linejoin="round"/>
<path d="M1.67989 12.1259C1.73484 14.6536 1.76232 15.9175 2.70505 16.8535C3.64777 17.7895 4.95982 17.8219 7.58389 17.8868C9.19937 17.9267 10.8005 17.9267 12.416 17.8868C15.0401 17.8219 16.3521 17.7895 17.2949 16.8535C18.2376 15.9175 18.265 14.6536 18.32 12.1259C18.347 10.8875 18.3329 9.66121 18.2778 8.41012C18.2436 7.63307 18.2265 7.24455 18.0295 6.89991C17.8324 6.55527 17.4927 6.33283 16.8133 5.88796L13.6793 3.83576C11.8951 2.66751 11.0031 2.08337 9.99996 2.08337C8.99679 2.08337 8.10476 2.6675 6.32065 3.83576L3.1866 5.88796C2.5072 6.33283 2.16751 6.55527 1.97045 6.89991C1.77339 7.24455 1.75629 7.63308 1.72209 8.41012C1.66703 9.66121 1.65297 10.8875 1.67989 12.1259Z" stroke="#80551C" stroke-width="1.25" stroke-linejoin="round"/>
<path d="M18.3333 7.91663L14.7788 10.506C13.917 11.1338 13.2086 11.6666 12.0833 11.6666M1.66663 7.91663L5.22111 10.506C6.08292 11.1338 6.7913 11.6666 7.91663 11.6666" stroke="#80551C" stroke-width="1.25" stroke-linejoin="round"/>
</svg>
