<svg width="20" height="20" viewBox="0 0 20 20" fill="none" xmlns="http://www.w3.org/2000/svg">
<path d="M1.66667 15.834L7.42752 11.9094C9.53225 10.4755 10.4677 10.4755 12.5725 11.9094L18.3333 15.834" stroke="#004C6E" stroke-width="1.25" stroke-linejoin="round"/>
<path d="M1.67993 12.1265C1.73488 14.6542 1.76236 15.9181 2.70509 16.8541C3.64781 17.7901 4.95986 17.8225 7.58393 17.8874C9.19941 17.9273 10.8006 17.9273 12.4161 17.8874C15.0402 17.8225 16.3522 17.7901 17.2949 16.8541C18.2377 15.9181 18.2651 14.6542 18.3201 12.1265C18.347 10.8881 18.3329 9.66182 18.2778 8.41073C18.2437 7.63368 18.2266 7.24516 18.0295 6.90052C17.8324 6.55588 17.4927 6.33344 16.8133 5.88857L13.6793 3.83637C11.8952 2.66812 11.0032 2.08398 10 2.08398C8.99683 2.08398 8.10481 2.66811 6.32069 3.83637L3.18664 5.88857C2.50724 6.33344 2.16755 6.55588 1.97049 6.90052C1.77343 7.24516 1.75633 7.63369 1.72213 8.41073C1.66707 9.66182 1.65301 10.8881 1.67993 12.1265Z" stroke="#004C6E" stroke-width="1.25" stroke-linejoin="round"/>
<path d="M18.3333 7.91602L14.7788 10.5053C13.917 11.1332 13.2087 11.666 12.0833 11.666M1.66667 7.91602L5.22115 10.5053C6.08296 11.1332 6.79134 11.666 7.91667 11.666" stroke="#004C6E" stroke-width="1.25" stroke-linejoin="round"/>
</svg>
