<svg width="20" height="20" viewBox="0 0 20 20" fill="none" xmlns="http://www.w3.org/2000/svg">
<path d="M1.66667 15.8333L7.42752 11.9088C9.53225 10.4748 10.4678 10.4748 12.5725 11.9088L18.3333 15.8333" stroke="#09090B" stroke-width="1.25" stroke-linejoin="round"/>
<path d="M1.67993 12.1258C1.73488 14.6536 1.76237 15.9174 2.70509 16.8534C3.64782 17.7894 4.95986 17.8218 7.58393 17.8868C9.19942 17.9267 10.8006 17.9267 12.4161 17.8868C15.0402 17.8218 16.3522 17.7894 17.2949 16.8534C18.2377 15.9174 18.2651 14.6536 18.3201 12.1258C18.347 10.8874 18.3329 9.66118 18.2778 8.41009C18.2437 7.63304 18.2266 7.24452 18.0295 6.89988C17.8324 6.55524 17.4927 6.3328 16.8133 5.88793L13.6793 3.83573C11.8952 2.66748 11.0032 2.08334 10 2.08334C8.99683 2.08334 8.10481 2.66747 6.32069 3.83573L3.18664 5.88793C2.50724 6.3328 2.16755 6.55524 1.97049 6.89988C1.77343 7.24452 1.75633 7.63305 1.72213 8.41009C1.66707 9.66118 1.65301 10.8874 1.67993 12.1258Z" stroke="#09090B" stroke-width="1.25" stroke-linejoin="round"/>
<path d="M18.3333 7.91666L14.7788 10.506C13.917 11.1338 13.2087 11.6667 12.0833 11.6667M1.66667 7.91666L5.22115 10.506C6.08296 11.1338 6.79134 11.6667 7.91667 11.6667" stroke="#09090B" stroke-width="1.25" stroke-linejoin="round"/>
</svg>
