<svg width="20" height="20" viewBox="0 0 20 20" fill="none" xmlns="http://www.w3.org/2000/svg">
<path fill-rule="evenodd" clip-rule="evenodd" d="M15.278 4.16732C15.278 3.70708 14.9049 3.33398 14.4446 3.33398C13.9844 3.33398 13.6113 3.70708 13.6113 4.16732V7.73875H9.49379L7.01247 4.01677C6.32643 2.98772 4.7224 3.47338 4.7224 4.71014V7.73875H3.33333C2.8731 7.73875 2.5 8.11184 2.5 8.57208C2.5 9.03232 2.8731 9.40541 3.33333 9.40541H4.7224V10.5959H3.33333C2.8731 10.5959 2.5 10.969 2.5 11.4292C2.5 11.8895 2.8731 12.2626 3.33333 12.2626H4.7224V15.834C4.7224 16.2942 5.0955 16.6673 5.55574 16.6673C6.01597 16.6673 6.38907 16.2942 6.38907 15.834V12.2626H10.5066L12.9879 15.9845C13.6739 17.0136 15.278 16.5279 15.278 15.2912V12.2626H16.6667C17.1269 12.2626 17.5 11.8895 17.5 11.4292C17.5 10.969 17.1269 10.5959 16.6667 10.5959H15.278V9.40541H16.6667C17.1269 9.40541 17.5 9.03232 17.5 8.57208C17.5 8.11184 17.1269 7.73875 16.6667 7.73875H15.278V4.16732ZM11.3985 10.5959L10.6049 9.40541H13.6113V10.5959H11.3985ZM13.6113 13.915L12.5097 12.2626H13.6113V13.915ZM8.60181 9.40541L9.39546 10.5959H6.38907V9.40541H8.60181ZM6.38907 6.0863L7.4907 7.73875H6.38907V6.0863Z" fill="black"/>
</svg>
