<svg width="80" height="64" viewBox="0 0 80 64" fill="none" xmlns="http://www.w3.org/2000/svg">
<g opacity="0.4">
<path d="M54.0469 16.608L58.7195 11.9354C61.3 9.35486 65.484 9.35486 68.0645 11.9354C70.6451 14.516 70.6451 18.6999 68.0645 21.2805L63.392 25.953M54.0469 16.608L36.6007 34.0542C33.1164 37.5385 31.3742 39.2807 30.1879 41.4037C29.0015 43.5267 27.808 48.5397 26.6666 53.3333C31.4602 52.192 36.4733 50.9984 38.5963 49.8121C40.7193 48.6258 42.4614 46.8836 45.9458 43.3993L63.392 25.953M54.0469 16.608L63.392 25.953" stroke="#402080" stroke-width="5" stroke-linecap="round" stroke-linejoin="round"/>
<path d="M70 40C70 54.1421 70 61.2132 65.6066 65.6066C61.2132 70 54.1421 70 40 70C25.8579 70 18.7868 70 14.3934 65.6066C10 61.2132 10 54.1421 10 40C10 25.8579 10 18.7868 14.3934 14.3934C18.7868 10 25.8579 10 40 10" stroke="#402080" stroke-width="5" stroke-linecap="round"/>
</g>
</svg>
