<svg width="96" height="80" viewBox="0 0 96 80" fill="none" xmlns="http://www.w3.org/2000/svg">
<path d="M48.0005 5.63965C60.791 5.63999 71.1605 16.0092 71.1606 28.7998C71.1606 39.4325 63.9943 48.3906 54.229 51.1113C61.9524 52.0181 68.5723 54.7211 73.5464 59.623C79.8205 65.8064 83.0007 75.0154 83.0005 87.04C83.0002 88.6964 81.6568 90.0386 80.0005 90.0391C78.3953 90.039 77.0845 88.7787 77.0044 87.1934L77.0005 87.0391C77.0006 76.0248 74.1 68.593 69.3345 63.8965C64.56 59.1913 57.4351 56.7599 48.0005 56.7598C38.5658 56.7598 31.4409 59.1915 26.6665 63.8965C21.901 68.593 19.0006 76.0246 19.0005 87.0391C19.0005 88.6958 17.6571 90.0388 16.0005 90.0391C14.3436 90.0391 13.0005 88.6959 13.0005 87.0391C13.0006 75.0144 16.1805 65.8063 22.4546 59.623C27.4284 54.7215 34.0471 52.0182 41.77 51.1113C32.0051 48.3904 24.8404 39.4322 24.8403 28.7998C24.8405 16.009 35.2097 5.63965 48.0005 5.63965ZM48.0005 11.6396C38.5234 11.6396 30.8405 19.3227 30.8403 28.7998C30.8404 38.2769 38.5233 45.96 48.0005 45.96C57.4774 45.9596 65.1606 38.2767 65.1606 28.7998C65.1605 19.3229 57.4773 11.64 48.0005 11.6396Z" fill="#803636" fill-opacity="0.4"/>
</svg>
