<svg width="16" height="17" viewBox="0 0 16 17" fill="none" xmlns="http://www.w3.org/2000/svg">
<path fill-rule="evenodd" clip-rule="evenodd" d="M7.99999 3.16699C8.36818 3.16699 8.66666 3.46547 8.66666 3.83366V7.83366H12.6667C13.0348 7.83366 13.3333 8.13214 13.3333 8.50033C13.3333 8.86851 13.0348 9.16699 12.6667 9.16699H8.66666V13.167C8.66666 13.5352 8.36818 13.8337 7.99999 13.8337C7.6318 13.8337 7.33332 13.5352 7.33332 13.167V9.16699H3.33332C2.96513 9.16699 2.66666 8.86851 2.66666 8.50033C2.66666 8.13214 2.96513 7.83366 3.33332 7.83366H7.33332V3.83366C7.33332 3.46547 7.6318 3.16699 7.99999 3.16699Z" fill="#0098DB"/>
</svg>
