<svg width="18" height="18" viewBox="0 0 18 18" fill="none" xmlns="http://www.w3.org/2000/svg">
<path d="M0.625 7.29297C0.625 4.52868 2.86071 2.29297 5.625 2.29297L4.91071 3.72154" stroke="#004C6E" stroke-width="1.25" stroke-linecap="round" stroke-linejoin="round"/>
<path d="M17.2917 10.625C17.2917 13.3893 15.056 15.625 12.2917 15.625L13.006 14.1964" stroke="#004C6E" stroke-width="1.25" stroke-linecap="round" stroke-linejoin="round"/>
<path d="M13.3333 1.05466C14.8586 0.425733 16.2012 0.635139 16.9293 0.76862C17.1365 0.806615 17.2917 1.00984 17.2917 1.24607V6.62855C17.2917 6.91069 17.0733 7.12112 16.8256 7.07731C16.0781 6.94513 14.7889 6.78188 13.3333 7.38206C11.7684 8.02735 10.1933 8.14875 9.33376 8.1215C9.1199 8.11472 8.95833 7.91306 8.95833 7.67237V2.28722C8.95833 2.00976 9.17104 1.79149 9.41763 1.79624C10.2932 1.81313 11.818 1.6795 13.3333 1.05466Z" stroke="#004C6E" stroke-width="1.25" stroke-linecap="round" stroke-linejoin="round"/>
<path d="M5 10.2226C6.52527 9.5937 7.86788 9.80311 8.59594 9.93659C8.80319 9.97458 8.95833 10.1778 8.95833 10.414V15.7965C8.95833 16.0787 8.74001 16.2891 8.49227 16.2453C7.74472 16.1131 6.45553 15.9498 5 16.55C3.43505 17.1953 1.85998 17.3167 1.00043 17.2895C0.786572 17.2827 0.625 17.081 0.625 16.8403V11.4552C0.625 11.1777 0.837706 10.9595 1.0843 10.9642C1.95982 10.9811 3.48465 10.8475 5 10.2226Z" stroke="#004C6E" stroke-width="1.25" stroke-linecap="round" stroke-linejoin="round"/>
<path d="M13.1248 4.375H13.1323" stroke="#004C6E" stroke-width="1.5" stroke-linecap="round" stroke-linejoin="round"/>
<path d="M4.7915 13.543H4.79899" stroke="#004C6E" stroke-width="1.5" stroke-linecap="round" stroke-linejoin="round"/>
</svg>
