<svg width="20" height="20" viewBox="0 0 20 20" fill="none" xmlns="http://www.w3.org/2000/svg">
<path d="M1.66667 8.33301C1.66667 5.56872 3.90238 3.33301 6.66667 3.33301L5.95238 4.76158" stroke="#09090B" stroke-width="1.25" stroke-linecap="round" stroke-linejoin="round"/>
<path d="M18.3333 11.6665C18.3333 14.4308 16.0976 16.6665 13.3333 16.6665L14.0476 15.2379" stroke="#09090B" stroke-width="1.25" stroke-linecap="round" stroke-linejoin="round"/>
<path d="M14.375 2.09617C15.9003 1.46724 17.2429 1.67664 17.9709 1.81012C18.1782 1.84812 18.3333 2.05135 18.3333 2.28757V7.67006C18.3333 7.95219 18.115 8.16262 17.8673 8.11882C17.1197 7.98664 15.8305 7.82338 14.375 8.42356C12.81 9.06885 11.235 9.19025 10.3754 9.16301C10.1616 9.15623 10 8.95456 10 8.71387V3.32873C10 3.05127 10.2127 2.83299 10.4593 2.83775C11.3348 2.85464 12.8597 2.72101 14.375 2.09617Z" stroke="#09090B" stroke-width="1.25" stroke-linecap="round" stroke-linejoin="round"/>
<path d="M6.04167 11.2627C7.56693 10.6337 8.90955 10.8431 9.63761 10.9766C9.84486 11.0146 10 11.2179 10 11.4541V16.8366C10 17.1187 9.78168 17.3291 9.53394 17.2853C8.78639 17.1531 7.4972 16.9899 6.04167 17.5901C4.47672 18.2354 2.90165 18.3568 2.0421 18.3295C1.82824 18.3227 1.66667 18.1211 1.66667 17.8804V12.4952C1.66667 12.2178 1.87937 11.9995 2.12597 12.0043C3.00149 12.0211 4.52632 11.8875 6.04167 11.2627Z" stroke="#09090B" stroke-width="1.25" stroke-linecap="round" stroke-linejoin="round"/>
<path d="M14.1665 5.4165H14.174" stroke="#09090B" stroke-width="1.5" stroke-linecap="round" stroke-linejoin="round"/>
<path d="M5.83317 14.583H5.84066" stroke="#09090B" stroke-width="1.5" stroke-linecap="round" stroke-linejoin="round"/>
</svg>
