<svg width="19" height="12" viewBox="0 0 19 12" fill="none" xmlns="http://www.w3.org/2000/svg">
<path d="M0.21967 10.2197C-0.0732233 10.5126 -0.0732233 10.9874 0.21967 11.2803C0.512563 11.5732 0.987437 11.5732 1.28033 11.2803L0.75 10.75L0.21967 10.2197ZM6.91485 6.68188L6.44633 7.26753L6.91485 6.68188ZM8.68107 8.09486L8.21255 8.68051L8.68107 8.09486ZM10.9679 7.90068L10.4074 7.40241L10.9679 7.90068ZM17.1439 2.08161C17.4191 1.77202 17.3912 1.29796 17.0816 1.02278C16.772 0.747588 16.298 0.775473 16.0228 1.08506L16.5833 1.58333L17.1439 2.08161ZM9.88995 8.76872L9.95341 9.51603H9.95341L9.88995 8.76872ZM5.76576 6.03461L5.80724 6.78346H5.80724L5.76576 6.03461ZM14.0833 0C13.6691 0 13.3333 0.335786 13.3333 0.75C13.3333 1.16421 13.6691 1.5 14.0833 1.5V0.75V0ZM16.6667 4.08334C16.6667 4.49755 17.0025 4.83334 17.4167 4.83334C17.8309 4.83334 18.1667 4.49755 18.1667 4.08334H17.4167H16.6667ZM17.1726 0.994078L17.7029 0.463748V0.463747L17.1726 0.994078ZM0.75 10.75L1.28033 11.2803L5.22551 7.33515L4.69518 6.80482L4.16485 6.27449L0.21967 10.2197L0.75 10.75ZM6.91485 6.68188L6.44633 7.26753L8.21255 8.68051L8.68107 8.09486L9.14959 7.50921L7.38337 6.09623L6.91485 6.68188ZM10.9679 7.90068L11.5285 8.39896L17.1439 2.08161L16.5833 1.58333L16.0228 1.08506L10.4074 7.40241L10.9679 7.90068ZM8.68107 8.09486L8.21255 8.68051C8.48895 8.90163 8.75282 9.11467 8.99254 9.25963C9.25078 9.41578 9.56802 9.54875 9.95341 9.51603L9.88995 8.76872L9.8265 8.02141C9.8805 8.01682 9.8858 8.04686 9.7687 7.97605C9.63307 7.89404 9.45819 7.75608 9.14959 7.50921L8.68107 8.09486ZM10.9679 7.90068L10.4074 7.40241C10.1448 7.69778 9.99568 7.86325 9.87583 7.96695C9.77234 8.05649 9.7725 8.02599 9.8265 8.02141L9.88995 8.76872L9.95341 9.51603C10.3388 9.4833 10.6291 9.29875 10.8573 9.10129C11.0691 8.91799 11.2933 8.66352 11.5285 8.39896L10.9679 7.90068ZM4.69518 6.80482L5.22551 7.33515C5.49046 7.0702 5.63964 6.92306 5.75795 6.83164C5.85938 6.75326 5.85803 6.78065 5.80724 6.78346L5.76576 6.03461L5.72429 5.28575C5.35552 5.30618 5.06974 5.4678 4.84081 5.64469C4.62876 5.80854 4.40163 6.03771 4.16485 6.27449L4.69518 6.80482ZM6.91485 6.68188L7.38337 6.09623C7.12189 5.88704 6.87084 5.68436 6.642 5.54493C6.39494 5.3944 6.09306 5.26533 5.72429 5.28575L5.76576 6.03461L5.80724 6.78346C5.75645 6.78627 5.75208 6.75921 5.86154 6.8259C5.98923 6.9037 6.15374 7.03346 6.44633 7.26753L6.91485 6.68188ZM14.0833 0.75V1.5H15.75V0.75V0H14.0833V0.75ZM17.4167 2.41667H16.6667V4.08334H17.4167H18.1667V2.41667H17.4167ZM15.75 0.75V1.5C16.164 1.5 16.3991 1.50159 16.5645 1.52382C16.7082 1.54315 16.6828 1.56495 16.6423 1.52441L17.1726 0.994078L17.7029 0.463747C17.4183 0.179132 17.0744 0.0788887 16.7643 0.0371976C16.4758 -0.00159281 16.1216 0 15.75 0V0.75ZM17.4167 2.41667H18.1667C18.1667 2.04503 18.1683 1.69086 18.1295 1.40234C18.0878 1.09224 17.9875 0.748364 17.7029 0.463748L17.1726 0.994078L16.6423 1.52441C16.6017 1.48387 16.6235 1.45845 16.6428 1.60221C16.6651 1.76755 16.6667 2.00263 16.6667 2.41667H17.4167Z" fill="#2A9D90"/>
</svg>
