<svg width="80" height="64" viewBox="0 0 80 64" fill="none" xmlns="http://www.w3.org/2000/svg">
<g opacity="0.4">
<path d="M40 26.6665L40 53.3332M40 26.6665C37.6659 26.6665 33.3051 33.3142 31.6666 34.9998M40 26.6665C42.3341 26.6665 46.6949 33.3142 48.3333 34.9998" stroke="#803636" stroke-width="5" stroke-linecap="round" stroke-linejoin="round"/>
<path d="M8.33337 40.0002C8.33337 25.0724 8.33337 17.6084 12.9708 12.971C17.6083 8.3335 25.0722 8.3335 40 8.3335C54.9278 8.3335 62.3918 8.3335 67.0292 12.971C71.6667 17.6084 71.6667 25.0724 71.6667 40.0002C71.6667 54.928 71.6667 62.3919 67.0292 67.0294C62.3918 71.6668 54.9278 71.6668 40 71.6668C25.0722 71.6668 17.6083 71.6668 12.9708 67.0294C8.33337 62.3919 8.33337 54.928 8.33337 40.0002Z" stroke="#803636" stroke-width="5"/>
</g>
</svg>
