<svg width="20" height="20" viewBox="0 0 20 20" fill="none" xmlns="http://www.w3.org/2000/svg">
<path d="M10.8337 9.16536C10.8337 7.32441 9.34124 5.83203 7.50033 5.83203C5.65938 5.83203 4.16699 7.32441 4.16699 9.16536C4.16699 11.0063 5.65938 12.4987 7.50033 12.4987C9.34124 12.4987 10.8337 11.0063 10.8337 9.16536Z" stroke="#09090B" stroke-width="1.25" stroke-linecap="round" stroke-linejoin="round"/>
<path d="M9.19916 6.29811C9.17791 6.14623 9.16699 5.99106 9.16699 5.83333C9.16699 3.99238 10.6594 2.5 12.5003 2.5C14.3412 2.5 15.8337 3.99238 15.8337 5.83333C15.8337 7.67428 14.3412 9.16667 12.5003 9.16667C11.8798 9.16667 11.299 8.99717 10.8015 8.70192" stroke="#09090B" stroke-width="1.25" stroke-linecap="round" stroke-linejoin="round"/>
<path d="M12.5 17.5C12.5 14.7386 10.2614 12.5 7.5 12.5C4.73857 12.5 2.5 14.7386 2.5 17.5" stroke="#09090B" stroke-width="1.25" stroke-linecap="round" stroke-linejoin="round"/>
<path d="M17.5 14.168C17.5 11.4066 15.2614 9.16797 12.5 9.16797" stroke="#09090B" stroke-width="1.25" stroke-linecap="round" stroke-linejoin="round"/>
</svg>
