<svg width="96" height="80" viewBox="0 0 96 80" fill="none" xmlns="http://www.w3.org/2000/svg">
<g opacity="0.4">
<path d="M12 43.9482V61.9698C12 73.297 12 78.9611 15.5147 82.4799C19.0294 85.9991 24.6863 85.999 36 85.999H59.9999C71.3135 85.999 76.9703 85.9991 80.4851 82.4799C83.9999 78.9611 83.9999 73.297 83.9999 61.9698V43.9482" stroke="#803636" stroke-width="6"/>
<path d="M59.9999 67.9072C57.2635 70.336 52.9071 71.9072 47.9999 71.9072C43.0927 71.9072 38.7364 70.336 36 67.9072" stroke="#803636" stroke-width="6" stroke-linecap="round"/>
<path d="M71.1829 10.012L24.5996 10.1283C17.6469 9.77016 15.8642 15.1306 15.8642 17.751C15.8642 20.0946 15.5624 23.5112 11.3012 29.9326C7.03995 36.3541 7.36015 38.2617 9.76307 42.707C11.7574 46.3966 16.8299 47.8378 19.4747 48.0802C27.8756 48.2714 31.9628 41.007 31.9628 35.9012C36.1303 48.7302 47.9825 48.7302 53.2633 47.263C58.5545 45.7934 63.0869 40.5326 64.1565 35.9012C64.7801 41.657 66.6729 45.0154 72.2653 47.3234C78.0581 49.7138 83.0397 46.0602 85.5393 43.7178C88.0389 41.3758 89.6429 36.1763 85.1873 30.4614C82.1145 26.5203 80.8337 22.8074 80.4133 18.9593C80.1693 16.7296 79.9553 14.3337 78.3889 12.809C76.0993 10.5808 72.8145 9.90476 71.1829 10.012Z" stroke="#803636" stroke-width="6" stroke-linecap="round" stroke-linejoin="round"/>
</g>
</svg>
