<svg width="20" height="20" viewBox="0 0 20 20" fill="none" xmlns="http://www.w3.org/2000/svg">
<path d="M1.66667 9.99999C1.66667 7.05209 1.66667 5.57814 2.544 4.59408C2.68433 4.43669 2.83898 4.29112 3.00622 4.15905C4.05178 3.33333 5.61785 3.33333 8.75 3.33333H11.25C14.3822 3.33333 15.9483 3.33333 16.9938 4.15905C17.161 4.29112 17.3157 4.43669 17.456 4.59408C18.3333 5.57814 18.3333 7.05209 18.3333 9.99999C18.3333 12.9479 18.3333 14.4218 17.456 15.4059C17.3157 15.5633 17.161 15.7088 16.9938 15.8409C15.9483 16.6667 14.3822 16.6667 11.25 16.6667H8.75C5.61785 16.6667 4.05178 16.6667 3.00622 15.8409C2.83898 15.7088 2.68433 15.5633 2.544 15.4059C1.66667 14.4218 1.66667 12.9479 1.66667 9.99999Z" stroke="#09090B" stroke-width="1.25" stroke-linecap="round" stroke-linejoin="round"/>
<path d="M8.33333 13.3333H9.58333" stroke="#09090B" stroke-width="1.25" stroke-miterlimit="10" stroke-linecap="round" stroke-linejoin="round"/>
<path d="M12.0833 13.3333H15" stroke="#09090B" stroke-width="1.25" stroke-miterlimit="10" stroke-linecap="round" stroke-linejoin="round"/>
<path d="M1.66667 7.5H18.3333" stroke="#09090B" stroke-width="1.25" stroke-linejoin="round"/>
</svg>
