<svg width="20" height="20" viewBox="0 0 20 20" fill="none" xmlns="http://www.w3.org/2000/svg">
<path d="M1.66666 10C1.66666 7.05214 1.66666 5.57818 2.54399 4.59412C2.68431 4.43673 2.83897 4.29117 3.00621 4.1591C4.05176 3.33337 5.61784 3.33337 8.74999 3.33337H11.25C14.3822 3.33337 15.9482 3.33337 16.9937 4.1591C17.161 4.29117 17.3157 4.43673 17.456 4.59412C18.3333 5.57818 18.3333 7.05214 18.3333 10C18.3333 12.948 18.3333 14.4219 17.456 15.406C17.3157 15.5634 17.161 15.7089 16.9937 15.841C15.9482 16.6667 14.3822 16.6667 11.25 16.6667H8.74999C5.61784 16.6667 4.05176 16.6667 3.00621 15.841C2.83897 15.7089 2.68431 15.5634 2.54399 15.406C1.66666 14.4219 1.66666 12.948 1.66666 10Z" stroke="#196C26" stroke-width="1.25" stroke-linecap="round" stroke-linejoin="round"/>
<path d="M8.33334 13.3334H9.58334" stroke="#196C26" stroke-width="1.25" stroke-miterlimit="10" stroke-linecap="round" stroke-linejoin="round"/>
<path d="M12.0833 13.3334H15" stroke="#196C26" stroke-width="1.25" stroke-miterlimit="10" stroke-linecap="round" stroke-linejoin="round"/>
<path d="M1.66666 7.5H18.3333" stroke="#196C26" stroke-width="1.25" stroke-linejoin="round"/>
</svg>
