<svg width="20" height="20" viewBox="0 0 20 20" fill="none" xmlns="http://www.w3.org/2000/svg">
<path d="M1.66667 10.0007C1.66667 7.05275 1.66667 5.57879 2.544 4.59473C2.68433 4.43734 2.83898 4.29178 3.00622 4.15971C4.05178 3.33398 5.61785 3.33398 8.75 3.33398H11.25C14.3822 3.33398 15.9482 3.33398 16.9937 4.15971C17.161 4.29178 17.3157 4.43734 17.456 4.59473C18.3333 5.57879 18.3333 7.05275 18.3333 10.0007C18.3333 12.9486 18.3333 14.4225 17.456 15.4066C17.3157 15.564 17.161 15.7095 16.9937 15.8416C15.9482 16.6673 14.3822 16.6673 11.25 16.6673H8.75C5.61785 16.6673 4.05178 16.6673 3.00622 15.8416C2.83898 15.7095 2.68433 15.564 2.544 15.4066C1.66667 14.4225 1.66667 12.9486 1.66667 10.0007Z" stroke="#004C6E" stroke-width="1.25" stroke-linecap="round" stroke-linejoin="round"/>
<path d="M8.33333 13.334H9.58333" stroke="#004C6E" stroke-width="1.25" stroke-miterlimit="10" stroke-linecap="round" stroke-linejoin="round"/>
<path d="M12.0833 13.334H15" stroke="#004C6E" stroke-width="1.25" stroke-miterlimit="10" stroke-linecap="round" stroke-linejoin="round"/>
<path d="M1.66667 7.5H18.3333" stroke="#004C6E" stroke-width="1.25" stroke-linejoin="round"/>
</svg>
