<svg width="16" height="16" viewBox="0 0 16 16" fill="none" xmlns="http://www.w3.org/2000/svg">
<path d="M12.6233 9.29683L12.1764 6.86449C11.9834 5.81393 11.8869 5.28865 11.5047 4.97763C11.1225 4.66663 10.5735 4.66663 9.47547 4.66663H6.52457C5.42653 4.66663 4.87752 4.66663 4.49532 4.97763C4.11312 5.28865 4.01661 5.81393 3.82359 6.86449L3.37671 9.29683C2.97605 11.4774 2.77573 12.5678 3.39259 13.2839C4.00946 14 5.14903 14 7.4282 14H8.5718C10.851 14 11.9905 14 12.6074 13.2839C13.2243 12.5678 13.0239 11.4774 12.6233 9.29683Z" stroke="#067CB0" stroke-linecap="round"/>
<path d="M7.99992 7V11.3333M6.33325 10L7.99992 11.6667L9.66659 10" stroke="#067CB0" stroke-linecap="round" stroke-linejoin="round"/>
<path d="M13.9999 7.33333C14.1045 7.2806 14.1953 7.21413 14.2761 7.13033C14.6666 6.725 14.6666 6.07262 14.6666 4.76784C14.6666 3.46307 14.6666 2.81068 14.2761 2.40534C13.8855 2 13.257 2 11.9999 2H3.99992C2.74284 2 2.1143 2 1.72378 2.40534C1.33325 2.81068 1.33325 3.46307 1.33325 4.76784C1.33325 6.07262 1.33325 6.725 1.72378 7.13033C1.80451 7.21413 1.8954 7.2806 1.99992 7.33333" stroke="#067CB0" stroke-linecap="round"/>
</svg>
