<svg width="20" height="20" viewBox="0 0 20 20" fill="none" xmlns="http://www.w3.org/2000/svg">
<path d="M15.4457 11.6198L14.8871 8.57936C14.6459 7.26616 14.5252 6.60956 14.0475 6.22079C13.5697 5.83203 12.8835 5.83203 11.511 5.83203H7.82233C6.44979 5.83203 5.76352 5.83203 5.28577 6.22079C4.80802 6.60956 4.68739 7.26616 4.44611 8.57936L3.88751 11.6198C3.38669 14.3455 3.13628 15.7084 3.90737 16.6036C4.67845 17.4987 6.10292 17.4987 8.95187 17.4987H10.3814C13.2304 17.4987 14.6548 17.4987 15.4259 16.6036C16.197 15.7084 15.9465 14.3455 15.4457 11.6198Z" stroke="#004C6E" stroke-width="1.25" stroke-linecap="round"/>
<path d="M9.66659 8.75V14.1667M7.58325 12.5L9.66659 14.5833L11.7499 12.5" stroke="#004C6E" stroke-width="1.25" stroke-linecap="round" stroke-linejoin="round"/>
<path d="M17.1666 9.16667C17.2973 9.10075 17.4108 9.01767 17.5118 8.91292C17.9999 8.40625 17.9999 7.59077 17.9999 5.9598C17.9999 4.32883 17.9999 3.51335 17.5118 3.00668C17.0236 2.5 16.2379 2.5 14.6666 2.5H4.66659C3.09524 2.5 2.30956 2.5 1.82141 3.00668C1.33325 3.51335 1.33325 4.32883 1.33325 5.9598C1.33325 7.59077 1.33325 8.40625 1.82141 8.91292C1.92232 9.01767 2.03594 9.10075 2.16659 9.16667" stroke="#004C6E" stroke-width="1.25" stroke-linecap="round"/>
</svg>
