<svg width="296" height="360" viewBox="0 0 296 360" fill="none" xmlns="http://www.w3.org/2000/svg">
<path d="M20 0.25C30.9076 0.25 39.75 9.09238 39.75 20C39.75 30.9076 30.9076 39.75 20 39.75C9.09238 39.75 0.25 30.9076 0.25 20C0.25 9.09238 9.09238 0.25 20 0.25Z" stroke="white" stroke-opacity="0.5" stroke-width="0.5"/>
<path d="M19.114 27V15.678H16.522V13.59H21.562V27H19.114Z" fill="white"/>
<path d="M55.632 27.216C54.684 27.216 53.802 27.042 52.986 26.694C52.182 26.346 51.48 25.866 50.88 25.254C50.292 24.63 49.83 23.898 49.494 23.058C49.158 22.218 48.99 21.294 48.99 20.286C48.99 19.29 49.152 18.372 49.476 17.532C49.812 16.68 50.28 15.948 50.88 15.336C51.48 14.712 52.182 14.232 52.986 13.896C53.79 13.548 54.672 13.374 55.632 13.374C56.58 13.374 57.426 13.536 58.17 13.86C58.926 14.184 59.562 14.61 60.078 15.138C60.594 15.654 60.966 16.218 61.194 16.83L59.286 17.73C58.998 17.01 58.536 16.428 57.9 15.984C57.276 15.528 56.52 15.3 55.632 15.3C54.744 15.3 53.958 15.51 53.274 15.93C52.59 16.35 52.056 16.932 51.672 17.676C51.3 18.42 51.114 19.29 51.114 20.286C51.114 21.282 51.3 22.158 51.672 22.914C52.056 23.658 52.59 24.24 53.274 24.66C53.958 25.068 54.744 25.272 55.632 25.272C56.52 25.272 57.276 25.05 57.9 24.606C58.536 24.162 58.998 23.58 59.286 22.86L61.194 23.76C60.966 24.36 60.594 24.924 60.078 25.452C59.562 25.98 58.926 26.406 58.17 26.73C57.426 27.054 56.58 27.216 55.632 27.216ZM67.3424 27.216C66.4064 27.216 65.5484 26.994 64.7684 26.55C64.0004 26.106 63.3884 25.5 62.9324 24.732C62.4764 23.964 62.2484 23.094 62.2484 22.122C62.2484 21.138 62.4764 20.268 62.9324 19.512C63.3884 18.744 64.0004 18.144 64.7684 17.712C65.5364 17.268 66.3944 17.046 67.3424 17.046C68.3024 17.046 69.1604 17.268 69.9164 17.712C70.6844 18.144 71.2904 18.744 71.7344 19.512C72.1904 20.268 72.4184 21.138 72.4184 22.122C72.4184 23.106 72.1904 23.982 71.7344 24.75C71.2784 25.518 70.6664 26.124 69.8984 26.568C69.1304 27 68.2784 27.216 67.3424 27.216ZM67.3424 25.326C67.9184 25.326 68.4284 25.188 68.8724 24.912C69.3164 24.636 69.6644 24.258 69.9164 23.778C70.1804 23.286 70.3124 22.734 70.3124 22.122C70.3124 21.51 70.1804 20.964 69.9164 20.484C69.6644 20.004 69.3164 19.626 68.8724 19.35C68.4284 19.074 67.9184 18.936 67.3424 18.936C66.7784 18.936 66.2684 19.074 65.8124 19.35C65.3684 19.626 65.0144 20.004 64.7504 20.484C64.4984 20.964 64.3724 21.51 64.3724 22.122C64.3724 22.734 64.4984 23.286 64.7504 23.778C65.0144 24.258 65.3684 24.636 65.8124 24.912C66.2684 25.188 66.7784 25.326 67.3424 25.326ZM74.0442 27V17.262H75.9882V19.368L75.7362 19.044C75.9402 18.384 76.3122 17.886 76.8522 17.55C77.3922 17.214 78.0102 17.046 78.7062 17.046C79.4862 17.046 80.1762 17.256 80.7762 17.676C81.3882 18.084 81.7962 18.63 82.0002 19.314L81.4242 19.368C81.7122 18.588 82.1502 18.006 82.7382 17.622C83.3382 17.238 84.0222 17.046 84.7902 17.046C85.4622 17.046 86.0682 17.202 86.6082 17.514C87.1602 17.826 87.5982 18.258 87.9222 18.81C88.2462 19.362 88.4082 19.992 88.4082 20.7V27H86.3742V21.258C86.3742 20.766 86.2842 20.352 86.1042 20.016C85.9362 19.668 85.6962 19.404 85.3842 19.224C85.0842 19.032 84.7302 18.936 84.3222 18.936C83.9142 18.936 83.5542 19.032 83.2422 19.224C82.9302 19.404 82.6842 19.668 82.5042 20.016C82.3242 20.364 82.2342 20.778 82.2342 21.258V27H80.2182V21.258C80.2182 20.766 80.1282 20.352 79.9482 20.016C79.7802 19.668 79.5402 19.404 79.2282 19.224C78.9282 19.032 78.5682 18.936 78.1482 18.936C77.7402 18.936 77.3802 19.032 77.0682 19.224C76.7562 19.404 76.5102 19.668 76.3302 20.016C76.1622 20.364 76.0782 20.778 76.0782 21.258V27H74.0442ZM90.2252 30.6V17.262H92.1692V19.278L91.9352 18.81C92.2952 18.258 92.7752 17.826 93.3752 17.514C93.9752 17.202 94.6592 17.046 95.4272 17.046C96.3512 17.046 97.1792 17.268 97.9112 17.712C98.6552 18.156 99.2372 18.762 99.6572 19.53C100.089 20.298 100.305 21.162 100.305 22.122C100.305 23.082 100.089 23.946 99.6572 24.714C99.2372 25.482 98.6612 26.094 97.9292 26.55C97.1972 26.994 96.3632 27.216 95.4272 27.216C94.6712 27.216 93.9812 27.06 93.3572 26.748C92.7452 26.436 92.2712 25.986 91.9352 25.398L92.2592 25.02V30.6H90.2252ZM95.2292 25.326C95.8052 25.326 96.3152 25.188 96.7592 24.912C97.2032 24.636 97.5512 24.258 97.8032 23.778C98.0672 23.286 98.1992 22.734 98.1992 22.122C98.1992 21.51 98.0672 20.964 97.8032 20.484C97.5512 20.004 97.2032 19.626 96.7592 19.35C96.3152 19.074 95.8052 18.936 95.2292 18.936C94.6652 18.936 94.1552 19.074 93.6992 19.35C93.2552 19.626 92.9012 20.004 92.6372 20.484C92.3852 20.964 92.2592 21.51 92.2592 22.122C92.2592 22.734 92.3852 23.286 92.6372 23.778C92.9012 24.258 93.2552 24.636 93.6992 24.912C94.1552 25.188 94.6652 25.326 95.2292 25.326ZM104.84 27.216C104.18 27.216 103.598 27.102 103.094 26.874C102.602 26.634 102.218 26.31 101.942 25.902C101.666 25.482 101.528 24.99 101.528 24.426C101.528 23.898 101.642 23.424 101.87 23.004C102.11 22.584 102.476 22.23 102.968 21.942C103.46 21.654 104.078 21.45 104.822 21.33L108.206 20.772V22.374L105.218 22.896C104.678 22.992 104.282 23.166 104.03 23.418C103.778 23.658 103.652 23.97 103.652 24.354C103.652 24.726 103.79 25.032 104.066 25.272C104.354 25.5 104.72 25.614 105.164 25.614C105.716 25.614 106.196 25.494 106.604 25.254C107.024 25.014 107.348 24.696 107.576 24.3C107.804 23.892 107.918 23.442 107.918 22.95V20.448C107.918 19.968 107.738 19.578 107.378 19.278C107.03 18.966 106.562 18.81 105.974 18.81C105.434 18.81 104.96 18.954 104.552 19.242C104.156 19.518 103.862 19.878 103.67 20.322L101.978 19.476C102.158 18.996 102.452 18.576 102.86 18.216C103.268 17.844 103.742 17.556 104.282 17.352C104.834 17.148 105.416 17.046 106.028 17.046C106.796 17.046 107.474 17.19 108.062 17.478C108.662 17.766 109.124 18.168 109.448 18.684C109.784 19.188 109.952 19.776 109.952 20.448V27H108.008V25.236L108.422 25.29C108.194 25.686 107.9 26.028 107.54 26.316C107.192 26.604 106.79 26.826 106.334 26.982C105.89 27.138 105.392 27.216 104.84 27.216ZM111.97 27V17.262H113.914V19.17L113.68 18.918C113.92 18.306 114.304 17.844 114.832 17.532C115.36 17.208 115.972 17.046 116.668 17.046C117.388 17.046 118.024 17.202 118.576 17.514C119.128 17.826 119.56 18.258 119.872 18.81C120.184 19.362 120.34 19.998 120.34 20.718V27H118.324V21.258C118.324 20.766 118.234 20.352 118.054 20.016C117.874 19.668 117.616 19.404 117.28 19.224C116.956 19.032 116.584 18.936 116.164 18.936C115.744 18.936 115.366 19.032 115.03 19.224C114.706 19.404 114.454 19.668 114.274 20.016C114.094 20.364 114.004 20.778 114.004 21.258V27H111.97ZM122.845 30.96C122.605 30.96 122.365 30.936 122.125 30.888C121.897 30.852 121.687 30.792 121.495 30.708V28.962C121.639 28.998 121.813 29.028 122.017 29.052C122.221 29.088 122.419 29.106 122.611 29.106C123.175 29.106 123.589 28.98 123.853 28.728C124.129 28.488 124.375 28.116 124.591 27.612L125.239 26.136L125.203 27.846L120.991 17.262H123.169L126.283 25.38H125.545L128.641 17.262H130.837L126.535 28.062C126.307 28.638 126.019 29.142 125.671 29.574C125.335 30.018 124.933 30.36 124.465 30.6C124.009 30.84 123.469 30.96 122.845 30.96ZM134.854 27V13.59H136.978V27H134.854ZM139.2 27V17.262H141.144V19.17L140.91 18.918C141.15 18.306 141.534 17.844 142.062 17.532C142.59 17.208 143.202 17.046 143.898 17.046C144.618 17.046 145.254 17.202 145.806 17.514C146.358 17.826 146.79 18.258 147.102 18.81C147.414 19.362 147.57 19.998 147.57 20.718V27H145.554V21.258C145.554 20.766 145.464 20.352 145.284 20.016C145.104 19.668 144.846 19.404 144.51 19.224C144.186 19.032 143.814 18.936 143.394 18.936C142.974 18.936 142.596 19.032 142.26 19.224C141.936 19.404 141.684 19.668 141.504 20.016C141.324 20.364 141.234 20.778 141.234 21.258V27H139.2ZM150.485 27V19.098H148.685V17.262H150.485V16.758C150.485 16.026 150.635 15.414 150.935 14.922C151.235 14.418 151.649 14.034 152.177 13.77C152.717 13.506 153.335 13.374 154.031 13.374C154.163 13.374 154.313 13.386 154.481 13.41C154.649 13.422 154.787 13.44 154.895 13.464V15.228C154.799 15.204 154.691 15.192 154.571 15.192C154.451 15.18 154.355 15.174 154.283 15.174C153.743 15.174 153.311 15.3 152.987 15.552C152.663 15.792 152.501 16.194 152.501 16.758V17.262H154.733V19.098H152.501V27H150.485ZM160.598 27.216C159.662 27.216 158.804 26.994 158.024 26.55C157.256 26.106 156.644 25.5 156.188 24.732C155.732 23.964 155.504 23.094 155.504 22.122C155.504 21.138 155.732 20.268 156.188 19.512C156.644 18.744 157.256 18.144 158.024 17.712C158.792 17.268 159.65 17.046 160.598 17.046C161.558 17.046 162.416 17.268 163.172 17.712C163.94 18.144 164.546 18.744 164.99 19.512C165.446 20.268 165.674 21.138 165.674 22.122C165.674 23.106 165.446 23.982 164.99 24.75C164.534 25.518 163.922 26.124 163.154 26.568C162.386 27 161.534 27.216 160.598 27.216ZM160.598 25.326C161.174 25.326 161.684 25.188 162.128 24.912C162.572 24.636 162.92 24.258 163.172 23.778C163.436 23.286 163.568 22.734 163.568 22.122C163.568 21.51 163.436 20.964 163.172 20.484C162.92 20.004 162.572 19.626 162.128 19.35C161.684 19.074 161.174 18.936 160.598 18.936C160.034 18.936 159.524 19.074 159.068 19.35C158.624 19.626 158.27 20.004 158.006 20.484C157.754 20.964 157.628 21.51 157.628 22.122C157.628 22.734 157.754 23.286 158.006 23.778C158.27 24.258 158.624 24.636 159.068 24.912C159.524 25.188 160.034 25.326 160.598 25.326ZM167.3 27V17.262H169.244V19.224L169.064 18.936C169.28 18.3 169.628 17.844 170.108 17.568C170.588 17.28 171.164 17.136 171.836 17.136H172.43V18.99H171.584C170.912 18.99 170.366 19.2 169.946 19.62C169.538 20.028 169.334 20.616 169.334 21.384V27H167.3ZM173.461 27V17.262H175.405V19.368L175.153 19.044C175.357 18.384 175.729 17.886 176.269 17.55C176.809 17.214 177.427 17.046 178.123 17.046C178.903 17.046 179.593 17.256 180.193 17.676C180.805 18.084 181.213 18.63 181.417 19.314L180.841 19.368C181.129 18.588 181.567 18.006 182.155 17.622C182.755 17.238 183.439 17.046 184.207 17.046C184.879 17.046 185.485 17.202 186.025 17.514C186.577 17.826 187.015 18.258 187.339 18.81C187.663 19.362 187.825 19.992 187.825 20.7V27H185.791V21.258C185.791 20.766 185.701 20.352 185.521 20.016C185.353 19.668 185.113 19.404 184.801 19.224C184.501 19.032 184.147 18.936 183.739 18.936C183.331 18.936 182.971 19.032 182.659 19.224C182.347 19.404 182.101 19.668 181.921 20.016C181.741 20.364 181.651 20.778 181.651 21.258V27H179.635V21.258C179.635 20.766 179.545 20.352 179.365 20.016C179.197 19.668 178.957 19.404 178.645 19.224C178.345 19.032 177.985 18.936 177.565 18.936C177.157 18.936 176.797 19.032 176.485 19.224C176.173 19.404 175.927 19.668 175.747 20.016C175.579 20.364 175.495 20.778 175.495 21.258V27H173.461ZM192.558 27.216C191.898 27.216 191.316 27.102 190.812 26.874C190.32 26.634 189.936 26.31 189.66 25.902C189.384 25.482 189.246 24.99 189.246 24.426C189.246 23.898 189.36 23.424 189.588 23.004C189.828 22.584 190.194 22.23 190.686 21.942C191.178 21.654 191.796 21.45 192.54 21.33L195.924 20.772V22.374L192.936 22.896C192.396 22.992 192 23.166 191.748 23.418C191.496 23.658 191.37 23.97 191.37 24.354C191.37 24.726 191.508 25.032 191.784 25.272C192.072 25.5 192.438 25.614 192.882 25.614C193.434 25.614 193.914 25.494 194.322 25.254C194.742 25.014 195.066 24.696 195.294 24.3C195.522 23.892 195.636 23.442 195.636 22.95V20.448C195.636 19.968 195.456 19.578 195.096 19.278C194.748 18.966 194.28 18.81 193.692 18.81C193.152 18.81 192.678 18.954 192.27 19.242C191.874 19.518 191.58 19.878 191.388 20.322L189.696 19.476C189.876 18.996 190.17 18.576 190.578 18.216C190.986 17.844 191.46 17.556 192 17.352C192.552 17.148 193.134 17.046 193.746 17.046C194.514 17.046 195.192 17.19 195.78 17.478C196.38 17.766 196.842 18.168 197.166 18.684C197.502 19.188 197.67 19.776 197.67 20.448V27H195.726V25.236L196.14 25.29C195.912 25.686 195.618 26.028 195.258 26.316C194.91 26.604 194.508 26.826 194.052 26.982C193.608 27.138 193.11 27.216 192.558 27.216ZM203.725 27.108C202.705 27.108 201.913 26.82 201.349 26.244C200.785 25.668 200.503 24.858 200.503 23.814V19.098H198.793V17.262H199.063C199.519 17.262 199.873 17.13 200.125 16.866C200.377 16.602 200.503 16.242 200.503 15.786V15.03H202.537V17.262H204.751V19.098H202.537V23.724C202.537 24.06 202.591 24.348 202.699 24.588C202.807 24.816 202.981 24.996 203.221 25.128C203.461 25.248 203.773 25.308 204.157 25.308C204.253 25.308 204.361 25.302 204.481 25.29C204.601 25.278 204.715 25.266 204.823 25.254V27C204.655 27.024 204.469 27.048 204.265 27.072C204.061 27.096 203.881 27.108 203.725 27.108ZM206.448 27V17.262H208.482V27H206.448ZM206.448 15.93V13.59H208.482V15.93H206.448ZM215.198 27.216C214.262 27.216 213.404 26.994 212.624 26.55C211.856 26.106 211.244 25.5 210.788 24.732C210.332 23.964 210.104 23.094 210.104 22.122C210.104 21.138 210.332 20.268 210.788 19.512C211.244 18.744 211.856 18.144 212.624 17.712C213.392 17.268 214.25 17.046 215.198 17.046C216.158 17.046 217.016 17.268 217.772 17.712C218.54 18.144 219.146 18.744 219.59 19.512C220.046 20.268 220.274 21.138 220.274 22.122C220.274 23.106 220.046 23.982 219.59 24.75C219.134 25.518 218.522 26.124 217.754 26.568C216.986 27 216.134 27.216 215.198 27.216ZM215.198 25.326C215.774 25.326 216.284 25.188 216.728 24.912C217.172 24.636 217.52 24.258 217.772 23.778C218.036 23.286 218.168 22.734 218.168 22.122C218.168 21.51 218.036 20.964 217.772 20.484C217.52 20.004 217.172 19.626 216.728 19.35C216.284 19.074 215.774 18.936 215.198 18.936C214.634 18.936 214.124 19.074 213.668 19.35C213.224 19.626 212.87 20.004 212.606 20.484C212.354 20.964 212.228 21.51 212.228 22.122C212.228 22.734 212.354 23.286 212.606 23.778C212.87 24.258 213.224 24.636 213.668 24.912C214.124 25.188 214.634 25.326 215.198 25.326ZM221.899 27V17.262H223.843V19.17L223.609 18.918C223.849 18.306 224.233 17.844 224.761 17.532C225.289 17.208 225.901 17.046 226.597 17.046C227.317 17.046 227.953 17.202 228.505 17.514C229.057 17.826 229.489 18.258 229.801 18.81C230.113 19.362 230.269 19.998 230.269 20.718V27H228.253V21.258C228.253 20.766 228.163 20.352 227.983 20.016C227.803 19.668 227.545 19.404 227.209 19.224C226.885 19.032 226.513 18.936 226.093 18.936C225.673 18.936 225.295 19.032 224.959 19.224C224.635 19.404 224.383 19.668 224.203 20.016C224.023 20.364 223.933 20.778 223.933 21.258V27H221.899Z" fill="white"/>
<g opacity="0.3">
<path d="M20 80.25C30.9076 80.25 39.75 89.0924 39.75 100C39.75 110.908 30.9076 119.75 20 119.75C9.09238 119.75 0.25 110.908 0.25 100C0.25 89.0924 9.09238 80.25 20 80.25Z" stroke="white" stroke-opacity="0.5" stroke-width="0.5"/>
<path d="M15.328 107V105.146L18.964 101.348C19.684 100.592 20.236 99.992 20.62 99.548C21.016 99.092 21.292 98.702 21.448 98.378C21.604 98.054 21.682 97.724 21.682 97.388C21.682 96.824 21.502 96.38 21.142 96.056C20.794 95.732 20.344 95.57 19.792 95.57C19.216 95.57 18.718 95.738 18.298 96.074C17.878 96.398 17.572 96.878 17.38 97.514L15.238 96.848C15.382 96.14 15.676 95.528 16.12 95.012C16.564 94.484 17.104 94.082 17.74 93.806C18.388 93.518 19.072 93.374 19.792 93.374C20.656 93.374 21.412 93.53 22.06 93.842C22.72 94.154 23.23 94.592 23.59 95.156C23.962 95.72 24.148 96.38 24.148 97.136C24.148 97.616 24.058 98.09 23.878 98.558C23.698 99.026 23.428 99.506 23.068 99.998C22.708 100.478 22.24 101.018 21.664 101.618L18.514 104.93H24.328V107H15.328Z" fill="white"/>
<path d="M54.408 107.216C53.412 107.216 52.524 107.006 51.744 106.586C50.976 106.166 50.37 105.59 49.926 104.858C49.494 104.126 49.278 103.292 49.278 102.356V93.59H51.402V102.266C51.402 102.854 51.528 103.376 51.78 103.832C52.044 104.288 52.398 104.642 52.842 104.894C53.298 105.146 53.82 105.272 54.408 105.272C55.008 105.272 55.53 105.146 55.974 104.894C56.43 104.642 56.784 104.288 57.036 103.832C57.3 103.376 57.432 102.854 57.432 102.266V93.59H59.538V102.356C59.538 103.292 59.322 104.126 58.89 104.858C58.458 105.59 57.852 106.166 57.072 106.586C56.304 107.006 55.416 107.216 54.408 107.216ZM61.6425 110.6V97.262H63.5865V99.278L63.3525 98.81C63.7125 98.258 64.1925 97.826 64.7925 97.514C65.3925 97.202 66.0765 97.046 66.8445 97.046C67.7685 97.046 68.5965 97.268 69.3285 97.712C70.0725 98.156 70.6545 98.762 71.0745 99.53C71.5065 100.298 71.7225 101.162 71.7225 102.122C71.7225 103.082 71.5065 103.946 71.0745 104.714C70.6545 105.482 70.0785 106.094 69.3465 106.55C68.6145 106.994 67.7805 107.216 66.8445 107.216C66.0885 107.216 65.3985 107.06 64.7745 106.748C64.1625 106.436 63.6885 105.986 63.3525 105.398L63.6765 105.02V110.6H61.6425ZM66.6465 105.326C67.2225 105.326 67.7325 105.188 68.1765 104.912C68.6205 104.636 68.9685 104.258 69.2205 103.778C69.4845 103.286 69.6165 102.734 69.6165 102.122C69.6165 101.51 69.4845 100.964 69.2205 100.484C68.9685 100.004 68.6205 99.626 68.1765 99.35C67.7325 99.074 67.2225 98.936 66.6465 98.936C66.0825 98.936 65.5725 99.074 65.1165 99.35C64.6725 99.626 64.3185 100.004 64.0545 100.484C63.8025 100.964 63.6765 101.51 63.6765 102.122C63.6765 102.734 63.8025 103.286 64.0545 103.778C64.3185 104.258 64.6725 104.636 65.1165 104.912C65.5725 105.188 66.0825 105.326 66.6465 105.326ZM73.341 107V93.374H75.375V107H73.341ZM82.0912 107.216C81.1552 107.216 80.2972 106.994 79.5172 106.55C78.7492 106.106 78.1372 105.5 77.6812 104.732C77.2252 103.964 76.9972 103.094 76.9972 102.122C76.9972 101.138 77.2252 100.268 77.6812 99.512C78.1372 98.744 78.7492 98.144 79.5172 97.712C80.2852 97.268 81.1432 97.046 82.0912 97.046C83.0512 97.046 83.9092 97.268 84.6652 97.712C85.4332 98.144 86.0392 98.744 86.4832 99.512C86.9392 100.268 87.1672 101.138 87.1672 102.122C87.1672 103.106 86.9392 103.982 86.4832 104.75C86.0272 105.518 85.4152 106.124 84.6472 106.568C83.8792 107 83.0272 107.216 82.0912 107.216ZM82.0912 105.326C82.6672 105.326 83.1772 105.188 83.6212 104.912C84.0652 104.636 84.4132 104.258 84.6652 103.778C84.9292 103.286 85.0612 102.734 85.0612 102.122C85.0612 101.51 84.9292 100.964 84.6652 100.484C84.4132 100.004 84.0652 99.626 83.6212 99.35C83.1772 99.074 82.6672 98.936 82.0912 98.936C81.5272 98.936 81.0172 99.074 80.5612 99.35C80.1172 99.626 79.7632 100.004 79.4992 100.484C79.2472 100.964 79.1212 101.51 79.1212 102.122C79.1212 102.734 79.2472 103.286 79.4992 103.778C79.7632 104.258 80.1172 104.636 80.5612 104.912C81.0172 105.188 81.5272 105.326 82.0912 105.326ZM91.7089 107.216C91.0489 107.216 90.4669 107.102 89.9629 106.874C89.4709 106.634 89.0869 106.31 88.8109 105.902C88.5349 105.482 88.3969 104.99 88.3969 104.426C88.3969 103.898 88.5109 103.424 88.7389 103.004C88.9789 102.584 89.3449 102.23 89.8369 101.942C90.3289 101.654 90.9469 101.45 91.6909 101.33L95.0749 100.772V102.374L92.0869 102.896C91.5469 102.992 91.1509 103.166 90.8989 103.418C90.6469 103.658 90.5209 103.97 90.5209 104.354C90.5209 104.726 90.6589 105.032 90.9349 105.272C91.2229 105.5 91.5889 105.614 92.0329 105.614C92.5849 105.614 93.0649 105.494 93.4729 105.254C93.8929 105.014 94.2169 104.696 94.4449 104.3C94.6729 103.892 94.7869 103.442 94.7869 102.95V100.448C94.7869 99.968 94.6069 99.578 94.2469 99.278C93.8989 98.966 93.4309 98.81 92.8429 98.81C92.3029 98.81 91.8289 98.954 91.4209 99.242C91.0249 99.518 90.7309 99.878 90.5389 100.322L88.8469 99.476C89.0269 98.996 89.3209 98.576 89.7289 98.216C90.1369 97.844 90.6109 97.556 91.1509 97.352C91.7029 97.148 92.2849 97.046 92.8969 97.046C93.6649 97.046 94.3429 97.19 94.9309 97.478C95.5309 97.766 95.9929 98.168 96.3169 98.684C96.6529 99.188 96.8209 99.776 96.8209 100.448V107H94.8769V105.236L95.2909 105.29C95.0629 105.686 94.7689 106.028 94.4089 106.316C94.0609 106.604 93.6589 106.826 93.2029 106.982C92.7589 107.138 92.2609 107.216 91.7089 107.216ZM103.339 107.216C102.403 107.216 101.563 106.994 100.819 106.55C100.087 106.094 99.5052 105.482 99.0732 104.714C98.6532 103.946 98.4432 103.082 98.4432 102.122C98.4432 101.162 98.6592 100.298 99.0912 99.53C99.5232 98.762 100.105 98.156 100.837 97.712C101.569 97.268 102.397 97.046 103.321 97.046C104.101 97.046 104.791 97.202 105.391 97.514C105.991 97.826 106.465 98.258 106.813 98.81L106.507 99.278V93.374H108.523V107H106.597V105.02L106.831 105.398C106.495 105.986 106.015 106.436 105.391 106.748C104.767 107.06 104.083 107.216 103.339 107.216ZM103.537 105.326C104.101 105.326 104.605 105.188 105.049 104.912C105.505 104.636 105.859 104.258 106.111 103.778C106.375 103.286 106.507 102.734 106.507 102.122C106.507 101.51 106.375 100.964 106.111 100.484C105.859 100.004 105.505 99.626 105.049 99.35C104.605 99.074 104.101 98.936 103.537 98.936C102.973 98.936 102.463 99.074 102.007 99.35C101.551 99.626 101.197 100.004 100.945 100.484C100.693 100.964 100.567 101.51 100.567 102.122C100.567 102.734 100.693 103.286 100.945 103.778C101.197 104.258 101.545 104.636 101.989 104.912C102.445 105.188 102.961 105.326 103.537 105.326ZM119.768 107.216C118.82 107.216 117.938 107.042 117.122 106.694C116.318 106.346 115.616 105.866 115.016 105.254C114.428 104.63 113.966 103.898 113.63 103.058C113.294 102.218 113.126 101.294 113.126 100.286C113.126 99.29 113.288 98.372 113.612 97.532C113.948 96.68 114.416 95.948 115.016 95.336C115.616 94.712 116.318 94.232 117.122 93.896C117.926 93.548 118.808 93.374 119.768 93.374C120.716 93.374 121.562 93.536 122.306 93.86C123.062 94.184 123.698 94.61 124.214 95.138C124.73 95.654 125.102 96.218 125.33 96.83L123.422 97.73C123.134 97.01 122.672 96.428 122.036 95.984C121.412 95.528 120.656 95.3 119.768 95.3C118.88 95.3 118.094 95.51 117.41 95.93C116.726 96.35 116.192 96.932 115.808 97.676C115.436 98.42 115.25 99.29 115.25 100.286C115.25 101.282 115.436 102.158 115.808 102.914C116.192 103.658 116.726 104.24 117.41 104.66C118.094 105.068 118.88 105.272 119.768 105.272C120.656 105.272 121.412 105.05 122.036 104.606C122.672 104.162 123.134 103.58 123.422 102.86L125.33 103.76C125.102 104.36 124.73 104.924 124.214 105.452C123.698 105.98 123.062 106.406 122.306 106.73C121.562 107.054 120.716 107.216 119.768 107.216ZM131.479 107.216C130.543 107.216 129.685 106.994 128.905 106.55C128.137 106.106 127.525 105.5 127.069 104.732C126.613 103.964 126.385 103.094 126.385 102.122C126.385 101.138 126.613 100.268 127.069 99.512C127.525 98.744 128.137 98.144 128.905 97.712C129.673 97.268 130.531 97.046 131.479 97.046C132.439 97.046 133.297 97.268 134.053 97.712C134.821 98.144 135.427 98.744 135.871 99.512C136.327 100.268 136.555 101.138 136.555 102.122C136.555 103.106 136.327 103.982 135.871 104.75C135.415 105.518 134.803 106.124 134.035 106.568C133.267 107 132.415 107.216 131.479 107.216ZM131.479 105.326C132.055 105.326 132.565 105.188 133.009 104.912C133.453 104.636 133.801 104.258 134.053 103.778C134.317 103.286 134.449 102.734 134.449 102.122C134.449 101.51 134.317 100.964 134.053 100.484C133.801 100.004 133.453 99.626 133.009 99.35C132.565 99.074 132.055 98.936 131.479 98.936C130.915 98.936 130.405 99.074 129.949 99.35C129.505 99.626 129.151 100.004 128.887 100.484C128.635 100.964 128.509 101.51 128.509 102.122C128.509 102.734 128.635 103.286 128.887 103.778C129.151 104.258 129.505 104.636 129.949 104.912C130.405 105.188 130.915 105.326 131.479 105.326ZM138.18 107V97.262H140.124V99.368L139.872 99.044C140.076 98.384 140.448 97.886 140.988 97.55C141.528 97.214 142.146 97.046 142.842 97.046C143.622 97.046 144.312 97.256 144.912 97.676C145.524 98.084 145.932 98.63 146.136 99.314L145.56 99.368C145.848 98.588 146.286 98.006 146.874 97.622C147.474 97.238 148.158 97.046 148.926 97.046C149.598 97.046 150.204 97.202 150.744 97.514C151.296 97.826 151.734 98.258 152.058 98.81C152.382 99.362 152.544 99.992 152.544 100.7V107H150.51V101.258C150.51 100.766 150.42 100.352 150.24 100.016C150.072 99.668 149.832 99.404 149.52 99.224C149.22 99.032 148.866 98.936 148.458 98.936C148.05 98.936 147.69 99.032 147.378 99.224C147.066 99.404 146.82 99.668 146.64 100.016C146.46 100.364 146.37 100.778 146.37 101.258V107H144.354V101.258C144.354 100.766 144.264 100.352 144.084 100.016C143.916 99.668 143.676 99.404 143.364 99.224C143.064 99.032 142.704 98.936 142.284 98.936C141.876 98.936 141.516 99.032 141.204 99.224C140.892 99.404 140.646 99.668 140.466 100.016C140.298 100.364 140.214 100.778 140.214 101.258V107H138.18ZM154.361 110.6V97.262H156.305V99.278L156.071 98.81C156.431 98.258 156.911 97.826 157.511 97.514C158.111 97.202 158.795 97.046 159.563 97.046C160.487 97.046 161.315 97.268 162.047 97.712C162.791 98.156 163.373 98.762 163.793 99.53C164.225 100.298 164.441 101.162 164.441 102.122C164.441 103.082 164.225 103.946 163.793 104.714C163.373 105.482 162.797 106.094 162.065 106.55C161.333 106.994 160.499 107.216 159.563 107.216C158.807 107.216 158.117 107.06 157.493 106.748C156.881 106.436 156.407 105.986 156.071 105.398L156.395 105.02V110.6H154.361ZM159.365 105.326C159.941 105.326 160.451 105.188 160.895 104.912C161.339 104.636 161.687 104.258 161.939 103.778C162.203 103.286 162.335 102.734 162.335 102.122C162.335 101.51 162.203 100.964 161.939 100.484C161.687 100.004 161.339 99.626 160.895 99.35C160.451 99.074 159.941 98.936 159.365 98.936C158.801 98.936 158.291 99.074 157.835 99.35C157.391 99.626 157.037 100.004 156.773 100.484C156.521 100.964 156.395 101.51 156.395 102.122C156.395 102.734 156.521 103.286 156.773 103.778C157.037 104.258 157.391 104.636 157.835 104.912C158.291 105.188 158.801 105.326 159.365 105.326ZM168.976 107.216C168.316 107.216 167.734 107.102 167.23 106.874C166.738 106.634 166.354 106.31 166.078 105.902C165.802 105.482 165.664 104.99 165.664 104.426C165.664 103.898 165.778 103.424 166.006 103.004C166.246 102.584 166.612 102.23 167.104 101.942C167.596 101.654 168.214 101.45 168.958 101.33L172.342 100.772V102.374L169.354 102.896C168.814 102.992 168.418 103.166 168.166 103.418C167.914 103.658 167.788 103.97 167.788 104.354C167.788 104.726 167.926 105.032 168.202 105.272C168.49 105.5 168.856 105.614 169.3 105.614C169.852 105.614 170.332 105.494 170.74 105.254C171.16 105.014 171.484 104.696 171.712 104.3C171.94 103.892 172.054 103.442 172.054 102.95V100.448C172.054 99.968 171.874 99.578 171.514 99.278C171.166 98.966 170.698 98.81 170.11 98.81C169.57 98.81 169.096 98.954 168.688 99.242C168.292 99.518 167.998 99.878 167.806 100.322L166.114 99.476C166.294 98.996 166.588 98.576 166.996 98.216C167.404 97.844 167.878 97.556 168.418 97.352C168.97 97.148 169.552 97.046 170.164 97.046C170.932 97.046 171.61 97.19 172.198 97.478C172.798 97.766 173.26 98.168 173.584 98.684C173.92 99.188 174.088 99.776 174.088 100.448V107H172.144V105.236L172.558 105.29C172.33 105.686 172.036 106.028 171.676 106.316C171.328 106.604 170.926 106.826 170.47 106.982C170.026 107.138 169.528 107.216 168.976 107.216ZM176.106 107V97.262H178.05V99.17L177.816 98.918C178.056 98.306 178.44 97.844 178.968 97.532C179.496 97.208 180.108 97.046 180.804 97.046C181.524 97.046 182.16 97.202 182.712 97.514C183.264 97.826 183.696 98.258 184.008 98.81C184.32 99.362 184.476 99.998 184.476 100.718V107H182.46V101.258C182.46 100.766 182.37 100.352 182.19 100.016C182.01 99.668 181.752 99.404 181.416 99.224C181.092 99.032 180.72 98.936 180.3 98.936C179.88 98.936 179.502 99.032 179.166 99.224C178.842 99.404 178.59 99.668 178.41 100.016C178.23 100.364 178.14 100.778 178.14 101.258V107H176.106ZM186.981 110.96C186.741 110.96 186.501 110.936 186.261 110.888C186.033 110.852 185.823 110.792 185.631 110.708V108.962C185.775 108.998 185.949 109.028 186.153 109.052C186.357 109.088 186.555 109.106 186.747 109.106C187.311 109.106 187.725 108.98 187.989 108.728C188.265 108.488 188.511 108.116 188.727 107.612L189.375 106.136L189.339 107.846L185.127 97.262H187.305L190.419 105.38H189.681L192.777 97.262H194.973L190.671 108.062C190.443 108.638 190.155 109.142 189.807 109.574C189.471 110.018 189.069 110.36 188.601 110.6C188.145 110.84 187.605 110.96 186.981 110.96ZM198.99 107V93.59H203.382C204.774 93.59 205.98 93.872 207 94.436C208.032 94.988 208.83 95.768 209.394 96.776C209.958 97.784 210.24 98.954 210.24 100.286C210.24 101.606 209.958 102.776 209.394 103.796C208.83 104.804 208.032 105.59 207 106.154C205.98 106.718 204.774 107 203.382 107H198.99ZM201.114 105.11H203.418C204.366 105.11 205.188 104.912 205.884 104.516C206.592 104.12 207.138 103.562 207.522 102.842C207.906 102.122 208.098 101.27 208.098 100.286C208.098 99.302 207.9 98.456 207.504 97.748C207.12 97.028 206.58 96.47 205.884 96.074C205.188 95.678 204.366 95.48 203.418 95.48H201.114V105.11ZM216.472 107.216C215.536 107.216 214.678 106.994 213.898 106.55C213.13 106.106 212.518 105.5 212.062 104.732C211.606 103.964 211.378 103.094 211.378 102.122C211.378 101.138 211.606 100.268 212.062 99.512C212.518 98.744 213.13 98.144 213.898 97.712C214.666 97.268 215.524 97.046 216.472 97.046C217.432 97.046 218.29 97.268 219.046 97.712C219.814 98.144 220.42 98.744 220.864 99.512C221.32 100.268 221.548 101.138 221.548 102.122C221.548 103.106 221.32 103.982 220.864 104.75C220.408 105.518 219.796 106.124 219.028 106.568C218.26 107 217.408 107.216 216.472 107.216ZM216.472 105.326C217.048 105.326 217.558 105.188 218.002 104.912C218.446 104.636 218.794 104.258 219.046 103.778C219.31 103.286 219.442 102.734 219.442 102.122C219.442 101.51 219.31 100.964 219.046 100.484C218.794 100.004 218.446 99.626 218.002 99.35C217.558 99.074 217.048 98.936 216.472 98.936C215.908 98.936 215.398 99.074 214.942 99.35C214.498 99.626 214.144 100.004 213.88 100.484C213.628 100.964 213.502 101.51 213.502 102.122C213.502 102.734 213.628 103.286 213.88 103.778C214.144 104.258 214.498 104.636 214.942 104.912C215.398 105.188 215.908 105.326 216.472 105.326ZM227.799 107.216C226.827 107.216 225.963 106.994 225.207 106.55C224.463 106.094 223.869 105.482 223.425 104.714C222.993 103.946 222.777 103.076 222.777 102.104C222.777 101.144 222.993 100.28 223.425 99.512C223.857 98.744 224.451 98.144 225.207 97.712C225.963 97.268 226.827 97.046 227.799 97.046C228.459 97.046 229.077 97.166 229.653 97.406C230.229 97.634 230.727 97.952 231.147 98.36C231.579 98.768 231.897 99.242 232.101 99.782L230.319 100.61C230.115 100.106 229.785 99.704 229.329 99.404C228.885 99.092 228.375 98.936 227.799 98.936C227.247 98.936 226.749 99.074 226.305 99.35C225.873 99.614 225.531 99.992 225.279 100.484C225.027 100.964 224.901 101.51 224.901 102.122C224.901 102.734 225.027 103.286 225.279 103.778C225.531 104.258 225.873 104.636 226.305 104.912C226.749 105.188 227.247 105.326 227.799 105.326C228.387 105.326 228.897 105.176 229.329 104.876C229.773 104.564 230.103 104.15 230.319 103.634L232.101 104.48C231.909 104.996 231.597 105.464 231.165 105.884C230.745 106.292 230.247 106.616 229.671 106.856C229.095 107.096 228.471 107.216 227.799 107.216ZM237.203 107.216C236.471 107.216 235.829 107.054 235.277 106.73C234.725 106.394 234.293 105.932 233.981 105.344C233.681 104.744 233.531 104.054 233.531 103.274V97.262H235.565V103.094C235.565 103.538 235.655 103.928 235.835 104.264C236.015 104.6 236.267 104.864 236.591 105.056C236.915 105.236 237.287 105.326 237.707 105.326C238.139 105.326 238.517 105.23 238.841 105.038C239.165 104.846 239.417 104.576 239.597 104.228C239.789 103.88 239.885 103.472 239.885 103.004V97.262H241.901V107H239.975V105.092L240.191 105.344C239.963 105.944 239.585 106.406 239.057 106.73C238.529 107.054 237.911 107.216 237.203 107.216ZM243.916 107V97.262H245.86V99.368L245.608 99.044C245.812 98.384 246.184 97.886 246.724 97.55C247.264 97.214 247.882 97.046 248.578 97.046C249.358 97.046 250.048 97.256 250.648 97.676C251.26 98.084 251.668 98.63 251.872 99.314L251.296 99.368C251.584 98.588 252.022 98.006 252.61 97.622C253.21 97.238 253.894 97.046 254.662 97.046C255.334 97.046 255.94 97.202 256.48 97.514C257.032 97.826 257.47 98.258 257.794 98.81C258.118 99.362 258.28 99.992 258.28 100.7V107H256.246V101.258C256.246 100.766 256.156 100.352 255.976 100.016C255.808 99.668 255.568 99.404 255.256 99.224C254.956 99.032 254.602 98.936 254.194 98.936C253.786 98.936 253.426 99.032 253.114 99.224C252.802 99.404 252.556 99.668 252.376 100.016C252.196 100.364 252.106 100.778 252.106 101.258V107H250.09V101.258C250.09 100.766 250 100.352 249.82 100.016C249.652 99.668 249.412 99.404 249.1 99.224C248.8 99.032 248.44 98.936 248.02 98.936C247.612 98.936 247.252 99.032 246.94 99.224C246.628 99.404 246.382 99.668 246.202 100.016C246.034 100.364 245.95 100.778 245.95 101.258V107H243.916ZM264.669 107.216C263.697 107.216 262.833 106.994 262.077 106.55C261.333 106.094 260.751 105.482 260.331 104.714C259.911 103.934 259.701 103.064 259.701 102.104C259.701 101.12 259.911 100.25 260.331 99.494C260.763 98.738 261.339 98.144 262.059 97.712C262.779 97.268 263.595 97.046 264.507 97.046C265.239 97.046 265.893 97.172 266.469 97.424C267.045 97.676 267.531 98.024 267.927 98.468C268.323 98.9 268.623 99.398 268.827 99.962C269.043 100.526 269.151 101.126 269.151 101.762C269.151 101.918 269.145 102.08 269.133 102.248C269.121 102.416 269.097 102.572 269.061 102.716H261.303V101.096H267.909L266.937 101.834C267.057 101.246 267.015 100.724 266.811 100.268C266.619 99.8 266.319 99.434 265.911 99.17C265.515 98.894 265.047 98.756 264.507 98.756C263.967 98.756 263.487 98.894 263.067 99.17C262.647 99.434 262.323 99.818 262.095 100.322C261.867 100.814 261.777 101.414 261.825 102.122C261.765 102.782 261.855 103.358 262.095 103.85C262.347 104.342 262.695 104.726 263.139 105.002C263.595 105.278 264.111 105.416 264.687 105.416C265.275 105.416 265.773 105.284 266.181 105.02C266.601 104.756 266.931 104.414 267.171 103.994L268.827 104.804C268.635 105.26 268.335 105.674 267.927 106.046C267.531 106.406 267.051 106.694 266.487 106.91C265.935 107.114 265.329 107.216 264.669 107.216ZM270.776 107V97.262H272.72V99.17L272.486 98.918C272.726 98.306 273.11 97.844 273.638 97.532C274.166 97.208 274.778 97.046 275.474 97.046C276.194 97.046 276.83 97.202 277.382 97.514C277.934 97.826 278.366 98.258 278.678 98.81C278.99 99.362 279.146 99.998 279.146 100.718V107H277.13V101.258C277.13 100.766 277.04 100.352 276.86 100.016C276.68 99.668 276.422 99.404 276.086 99.224C275.762 99.032 275.39 98.936 274.97 98.936C274.55 98.936 274.172 99.032 273.836 99.224C273.512 99.404 273.26 99.668 273.08 100.016C272.9 100.364 272.81 100.778 272.81 101.258V107H270.776ZM285.175 107.108C284.155 107.108 283.363 106.82 282.799 106.244C282.235 105.668 281.953 104.858 281.953 103.814V99.098H280.243V97.262H280.513C280.969 97.262 281.323 97.13 281.575 96.866C281.827 96.602 281.953 96.242 281.953 95.786V95.03H283.987V97.262H286.201V99.098H283.987V103.724C283.987 104.06 284.041 104.348 284.149 104.588C284.257 104.816 284.431 104.996 284.671 105.128C284.911 105.248 285.223 105.308 285.607 105.308C285.703 105.308 285.811 105.302 285.931 105.29C286.051 105.278 286.165 105.266 286.273 105.254V107C286.105 107.024 285.919 107.048 285.715 107.072C285.511 107.096 285.331 107.108 285.175 107.108ZM291.498 107.216C290.502 107.216 289.626 106.97 288.87 106.478C288.126 105.986 287.604 105.326 287.304 104.498L288.87 103.76C289.134 104.312 289.494 104.75 289.95 105.074C290.418 105.398 290.934 105.56 291.498 105.56C291.978 105.56 292.368 105.452 292.668 105.236C292.968 105.02 293.118 104.726 293.118 104.354C293.118 104.114 293.052 103.922 292.92 103.778C292.788 103.622 292.62 103.496 292.416 103.4C292.224 103.304 292.026 103.232 291.822 103.184L290.292 102.752C289.452 102.512 288.822 102.152 288.402 101.672C287.994 101.18 287.79 100.61 287.79 99.962C287.79 99.374 287.94 98.864 288.24 98.432C288.54 97.988 288.954 97.646 289.482 97.406C290.01 97.166 290.604 97.046 291.264 97.046C292.152 97.046 292.944 97.268 293.64 97.712C294.336 98.144 294.828 98.75 295.116 99.53L293.55 100.268C293.358 99.8 293.052 99.428 292.632 99.152C292.224 98.876 291.762 98.738 291.246 98.738C290.802 98.738 290.448 98.846 290.184 99.062C289.92 99.266 289.788 99.536 289.788 99.872C289.788 100.1 289.848 100.292 289.968 100.448C290.088 100.592 290.244 100.712 290.436 100.808C290.628 100.892 290.826 100.964 291.03 101.024L292.614 101.492C293.418 101.72 294.036 102.08 294.468 102.572C294.9 103.052 295.116 103.628 295.116 104.3C295.116 104.876 294.96 105.386 294.648 105.83C294.348 106.262 293.928 106.604 293.388 106.856C292.848 107.096 292.218 107.216 291.498 107.216Z" fill="white"/>
</g>
<g opacity="0.3">
<path d="M20 160.25C30.9076 160.25 39.75 169.092 39.75 180C39.75 190.908 30.9076 199.75 20 199.75C9.09238 199.75 0.25 190.908 0.25 180C0.25 169.092 9.09238 160.25 20 160.25Z" stroke="white" stroke-opacity="0.5" stroke-width="0.5"/>
<path d="M19.274 187.216C18.542 187.216 17.846 187.084 17.186 186.82C16.538 186.544 15.98 186.16 15.512 185.668C15.056 185.164 14.744 184.57 14.576 183.886L16.718 183.13C16.934 183.742 17.264 184.21 17.708 184.534C18.152 184.846 18.674 185.002 19.274 185.002C19.754 185.002 20.168 184.912 20.516 184.732C20.876 184.552 21.158 184.294 21.362 183.958C21.566 183.61 21.668 183.202 21.668 182.734C21.668 182.266 21.566 181.87 21.362 181.546C21.17 181.21 20.894 180.952 20.534 180.772C20.174 180.592 19.748 180.502 19.256 180.502C19.028 180.502 18.788 180.526 18.536 180.574C18.296 180.622 18.08 180.694 17.888 180.79L17.33 179.62L20.804 175.66H15.332V173.59H23.558V175.516L20.066 179.602L20.102 178.684C20.906 178.696 21.608 178.87 22.208 179.206C22.808 179.542 23.276 180.004 23.612 180.592C23.948 181.18 24.116 181.87 24.116 182.662C24.116 183.526 23.906 184.306 23.486 185.002C23.066 185.686 22.49 186.226 21.758 186.622C21.026 187.018 20.198 187.216 19.274 187.216Z" fill="white"/>
<path d="M49.386 187V173.59H53.778C55.17 173.59 56.376 173.872 57.396 174.436C58.428 174.988 59.226 175.768 59.79 176.776C60.354 177.784 60.636 178.954 60.636 180.286C60.636 181.606 60.354 182.776 59.79 183.796C59.226 184.804 58.428 185.59 57.396 186.154C56.376 186.718 55.17 187 53.778 187H49.386ZM51.51 185.11H53.814C54.762 185.11 55.584 184.912 56.28 184.516C56.988 184.12 57.534 183.562 57.918 182.842C58.302 182.122 58.494 181.27 58.494 180.286C58.494 179.302 58.296 178.456 57.9 177.748C57.516 177.028 56.976 176.47 56.28 176.074C55.584 175.678 54.762 175.48 53.814 175.48H51.51V185.11ZM62.1698 187V177.262H64.2038V187H62.1698ZM62.1698 175.93V173.59H64.2038V175.93H62.1698ZM66.2219 187V177.262H68.1659V179.224L67.9859 178.936C68.2019 178.3 68.5499 177.844 69.0299 177.568C69.5099 177.28 70.0859 177.136 70.7579 177.136H71.3519V178.99H70.5059C69.8339 178.99 69.2879 179.2 68.8679 179.62C68.4599 180.028 68.2559 180.616 68.2559 181.384V187H66.2219ZM76.9554 187.216C75.9834 187.216 75.1194 186.994 74.3634 186.55C73.6194 186.094 73.0374 185.482 72.6174 184.714C72.1974 183.934 71.9874 183.064 71.9874 182.104C71.9874 181.12 72.1974 180.25 72.6174 179.494C73.0494 178.738 73.6254 178.144 74.3454 177.712C75.0654 177.268 75.8814 177.046 76.7934 177.046C77.5254 177.046 78.1794 177.172 78.7554 177.424C79.3314 177.676 79.8174 178.024 80.2134 178.468C80.6094 178.9 80.9094 179.398 81.1134 179.962C81.3294 180.526 81.4374 181.126 81.4374 181.762C81.4374 181.918 81.4314 182.08 81.4194 182.248C81.4074 182.416 81.3834 182.572 81.3474 182.716H73.5894V181.096H80.1954L79.2234 181.834C79.3434 181.246 79.3014 180.724 79.0974 180.268C78.9054 179.8 78.6054 179.434 78.1974 179.17C77.8014 178.894 77.3334 178.756 76.7934 178.756C76.2534 178.756 75.7734 178.894 75.3534 179.17C74.9334 179.434 74.6094 179.818 74.3814 180.322C74.1534 180.814 74.0634 181.414 74.1114 182.122C74.0514 182.782 74.1414 183.358 74.3814 183.85C74.6334 184.342 74.9814 184.726 75.4254 185.002C75.8814 185.278 76.3974 185.416 76.9734 185.416C77.5614 185.416 78.0594 185.284 78.4674 185.02C78.8874 184.756 79.2174 184.414 79.4574 183.994L81.1134 184.804C80.9214 185.26 80.6214 185.674 80.2134 186.046C79.8174 186.406 79.3374 186.694 78.7734 186.91C78.2214 187.114 77.6154 187.216 76.9554 187.216ZM87.6885 187.216C86.7165 187.216 85.8525 186.994 85.0965 186.55C84.3525 186.094 83.7585 185.482 83.3145 184.714C82.8825 183.946 82.6665 183.076 82.6665 182.104C82.6665 181.144 82.8825 180.28 83.3145 179.512C83.7465 178.744 84.3405 178.144 85.0965 177.712C85.8525 177.268 86.7165 177.046 87.6885 177.046C88.3485 177.046 88.9665 177.166 89.5425 177.406C90.1185 177.634 90.6165 177.952 91.0365 178.36C91.4685 178.768 91.7865 179.242 91.9905 179.782L90.2085 180.61C90.0045 180.106 89.6745 179.704 89.2185 179.404C88.7745 179.092 88.2645 178.936 87.6885 178.936C87.1365 178.936 86.6385 179.074 86.1945 179.35C85.7625 179.614 85.4205 179.992 85.1685 180.484C84.9165 180.964 84.7905 181.51 84.7905 182.122C84.7905 182.734 84.9165 183.286 85.1685 183.778C85.4205 184.258 85.7625 184.636 86.1945 184.912C86.6385 185.188 87.1365 185.326 87.6885 185.326C88.2765 185.326 88.7865 185.176 89.2185 184.876C89.6625 184.564 89.9925 184.15 90.2085 183.634L91.9905 184.48C91.7985 184.996 91.4865 185.464 91.0545 185.884C90.6345 186.292 90.1365 186.616 89.5605 186.856C88.9845 187.096 88.3605 187.216 87.6885 187.216ZM97.8305 187.108C96.8105 187.108 96.0185 186.82 95.4545 186.244C94.8905 185.668 94.6085 184.858 94.6085 183.814V179.098H92.8985V177.262H93.1685C93.6245 177.262 93.9785 177.13 94.2305 176.866C94.4825 176.602 94.6085 176.242 94.6085 175.786V175.03H96.6425V177.262H98.8565V179.098H96.6425V183.724C96.6425 184.06 96.6965 184.348 96.8045 184.588C96.9125 184.816 97.0865 184.996 97.3265 185.128C97.5665 185.248 97.8785 185.308 98.2625 185.308C98.3585 185.308 98.4665 185.302 98.5865 185.29C98.7065 185.278 98.8205 185.266 98.9285 185.254V187C98.7605 187.024 98.5745 187.048 98.3705 187.072C98.1665 187.096 97.9865 187.108 97.8305 187.108ZM105.076 187.216C104.14 187.216 103.282 186.994 102.502 186.55C101.734 186.106 101.122 185.5 100.666 184.732C100.21 183.964 99.9816 183.094 99.9816 182.122C99.9816 181.138 100.21 180.268 100.666 179.512C101.122 178.744 101.734 178.144 102.502 177.712C103.27 177.268 104.128 177.046 105.076 177.046C106.036 177.046 106.894 177.268 107.65 177.712C108.418 178.144 109.024 178.744 109.468 179.512C109.924 180.268 110.152 181.138 110.152 182.122C110.152 183.106 109.924 183.982 109.468 184.75C109.012 185.518 108.4 186.124 107.632 186.568C106.864 187 106.012 187.216 105.076 187.216ZM105.076 185.326C105.652 185.326 106.162 185.188 106.606 184.912C107.05 184.636 107.398 184.258 107.65 183.778C107.914 183.286 108.046 182.734 108.046 182.122C108.046 181.51 107.914 180.964 107.65 180.484C107.398 180.004 107.05 179.626 106.606 179.35C106.162 179.074 105.652 178.936 105.076 178.936C104.512 178.936 104.002 179.074 103.546 179.35C103.102 179.626 102.748 180.004 102.484 180.484C102.232 180.964 102.106 181.51 102.106 182.122C102.106 182.734 102.232 183.286 102.484 183.778C102.748 184.258 103.102 184.636 103.546 184.912C104.002 185.188 104.512 185.326 105.076 185.326ZM111.777 187V177.262H113.721V179.224L113.541 178.936C113.757 178.3 114.105 177.844 114.585 177.568C115.065 177.28 115.641 177.136 116.313 177.136H116.907V178.99H116.061C115.389 178.99 114.843 179.2 114.423 179.62C114.015 180.028 113.811 180.616 113.811 181.384V187H111.777ZM118.461 178.396V177.406C118.857 177.31 119.163 177.136 119.379 176.884C119.595 176.62 119.727 176.302 119.775 175.93H118.821V173.59H120.891V175.12C120.891 175.996 120.687 176.722 120.279 177.298C119.871 177.862 119.265 178.228 118.461 178.396ZM127.085 187.216C126.089 187.216 125.213 186.97 124.457 186.478C123.713 185.986 123.191 185.326 122.891 184.498L124.457 183.76C124.721 184.312 125.081 184.75 125.537 185.074C126.005 185.398 126.521 185.56 127.085 185.56C127.565 185.56 127.955 185.452 128.255 185.236C128.555 185.02 128.705 184.726 128.705 184.354C128.705 184.114 128.639 183.922 128.507 183.778C128.375 183.622 128.207 183.496 128.003 183.4C127.811 183.304 127.613 183.232 127.409 183.184L125.879 182.752C125.039 182.512 124.409 182.152 123.989 181.672C123.581 181.18 123.377 180.61 123.377 179.962C123.377 179.374 123.527 178.864 123.827 178.432C124.127 177.988 124.541 177.646 125.069 177.406C125.597 177.166 126.191 177.046 126.851 177.046C127.739 177.046 128.531 177.268 129.227 177.712C129.923 178.144 130.415 178.75 130.703 179.53L129.137 180.268C128.945 179.8 128.639 179.428 128.219 179.152C127.811 178.876 127.349 178.738 126.833 178.738C126.389 178.738 126.035 178.846 125.771 179.062C125.507 179.266 125.375 179.536 125.375 179.872C125.375 180.1 125.435 180.292 125.555 180.448C125.675 180.592 125.831 180.712 126.023 180.808C126.215 180.892 126.413 180.964 126.617 181.024L128.201 181.492C129.005 181.72 129.623 182.08 130.055 182.572C130.487 183.052 130.703 183.628 130.703 184.3C130.703 184.876 130.547 185.386 130.235 185.83C129.935 186.262 129.515 186.604 128.975 186.856C128.435 187.096 127.805 187.216 127.085 187.216ZM135.321 187V173.59H137.445V187H135.321ZM139.667 187V177.262H141.611V179.17L141.377 178.918C141.617 178.306 142.001 177.844 142.529 177.532C143.057 177.208 143.669 177.046 144.365 177.046C145.085 177.046 145.721 177.202 146.273 177.514C146.825 177.826 147.257 178.258 147.569 178.81C147.881 179.362 148.037 179.998 148.037 180.718V187H146.021V181.258C146.021 180.766 145.931 180.352 145.751 180.016C145.571 179.668 145.313 179.404 144.977 179.224C144.653 179.032 144.281 178.936 143.861 178.936C143.441 178.936 143.063 179.032 142.727 179.224C142.403 179.404 142.151 179.668 141.971 180.016C141.791 180.364 141.701 180.778 141.701 181.258V187H139.667ZM150.952 187V179.098H149.152V177.262H150.952V176.758C150.952 176.026 151.102 175.414 151.402 174.922C151.702 174.418 152.116 174.034 152.644 173.77C153.184 173.506 153.802 173.374 154.498 173.374C154.63 173.374 154.78 173.386 154.948 173.41C155.116 173.422 155.254 173.44 155.362 173.464V175.228C155.266 175.204 155.158 175.192 155.038 175.192C154.918 175.18 154.822 175.174 154.75 175.174C154.21 175.174 153.778 175.3 153.454 175.552C153.13 175.792 152.968 176.194 152.968 176.758V177.262H155.2V179.098H152.968V187H150.952ZM161.065 187.216C160.129 187.216 159.271 186.994 158.491 186.55C157.723 186.106 157.111 185.5 156.655 184.732C156.199 183.964 155.971 183.094 155.971 182.122C155.971 181.138 156.199 180.268 156.655 179.512C157.111 178.744 157.723 178.144 158.491 177.712C159.259 177.268 160.117 177.046 161.065 177.046C162.025 177.046 162.883 177.268 163.639 177.712C164.407 178.144 165.013 178.744 165.457 179.512C165.913 180.268 166.141 181.138 166.141 182.122C166.141 183.106 165.913 183.982 165.457 184.75C165.001 185.518 164.389 186.124 163.621 186.568C162.853 187 162.001 187.216 161.065 187.216ZM161.065 185.326C161.641 185.326 162.151 185.188 162.595 184.912C163.039 184.636 163.387 184.258 163.639 183.778C163.903 183.286 164.035 182.734 164.035 182.122C164.035 181.51 163.903 180.964 163.639 180.484C163.387 180.004 163.039 179.626 162.595 179.35C162.151 179.074 161.641 178.936 161.065 178.936C160.501 178.936 159.991 179.074 159.535 179.35C159.091 179.626 158.737 180.004 158.473 180.484C158.221 180.964 158.095 181.51 158.095 182.122C158.095 182.734 158.221 183.286 158.473 183.778C158.737 184.258 159.091 184.636 159.535 184.912C159.991 185.188 160.501 185.326 161.065 185.326ZM167.767 187V177.262H169.711V179.224L169.531 178.936C169.747 178.3 170.095 177.844 170.575 177.568C171.055 177.28 171.631 177.136 172.303 177.136H172.897V178.99H172.051C171.379 178.99 170.833 179.2 170.413 179.62C170.005 180.028 169.801 180.616 169.801 181.384V187H167.767ZM173.928 187V177.262H175.872V179.368L175.62 179.044C175.824 178.384 176.196 177.886 176.736 177.55C177.276 177.214 177.894 177.046 178.59 177.046C179.37 177.046 180.06 177.256 180.66 177.676C181.272 178.084 181.68 178.63 181.884 179.314L181.308 179.368C181.596 178.588 182.034 178.006 182.622 177.622C183.222 177.238 183.906 177.046 184.674 177.046C185.346 177.046 185.952 177.202 186.492 177.514C187.044 177.826 187.482 178.258 187.806 178.81C188.13 179.362 188.292 179.992 188.292 180.7V187H186.258V181.258C186.258 180.766 186.168 180.352 185.988 180.016C185.82 179.668 185.58 179.404 185.268 179.224C184.968 179.032 184.614 178.936 184.206 178.936C183.798 178.936 183.438 179.032 183.126 179.224C182.814 179.404 182.568 179.668 182.388 180.016C182.208 180.364 182.118 180.778 182.118 181.258V187H180.102V181.258C180.102 180.766 180.012 180.352 179.832 180.016C179.664 179.668 179.424 179.404 179.112 179.224C178.812 179.032 178.452 178.936 178.032 178.936C177.624 178.936 177.264 179.032 176.952 179.224C176.64 179.404 176.394 179.668 176.214 180.016C176.046 180.364 175.962 180.778 175.962 181.258V187H173.928ZM193.025 187.216C192.365 187.216 191.783 187.102 191.279 186.874C190.787 186.634 190.403 186.31 190.127 185.902C189.851 185.482 189.713 184.99 189.713 184.426C189.713 183.898 189.827 183.424 190.055 183.004C190.295 182.584 190.661 182.23 191.153 181.942C191.645 181.654 192.263 181.45 193.007 181.33L196.391 180.772V182.374L193.403 182.896C192.863 182.992 192.467 183.166 192.215 183.418C191.963 183.658 191.837 183.97 191.837 184.354C191.837 184.726 191.975 185.032 192.251 185.272C192.539 185.5 192.905 185.614 193.349 185.614C193.901 185.614 194.381 185.494 194.789 185.254C195.209 185.014 195.533 184.696 195.761 184.3C195.989 183.892 196.103 183.442 196.103 182.95V180.448C196.103 179.968 195.923 179.578 195.563 179.278C195.215 178.966 194.747 178.81 194.159 178.81C193.619 178.81 193.145 178.954 192.737 179.242C192.341 179.518 192.047 179.878 191.855 180.322L190.163 179.476C190.343 178.996 190.637 178.576 191.045 178.216C191.453 177.844 191.927 177.556 192.467 177.352C193.019 177.148 193.601 177.046 194.213 177.046C194.981 177.046 195.659 177.19 196.247 177.478C196.847 177.766 197.309 178.168 197.633 178.684C197.969 179.188 198.137 179.776 198.137 180.448V187H196.193V185.236L196.607 185.29C196.379 185.686 196.085 186.028 195.725 186.316C195.377 186.604 194.975 186.826 194.519 186.982C194.075 187.138 193.577 187.216 193.025 187.216ZM204.191 187.108C203.171 187.108 202.379 186.82 201.815 186.244C201.251 185.668 200.969 184.858 200.969 183.814V179.098H199.259V177.262H199.529C199.985 177.262 200.339 177.13 200.591 176.866C200.843 176.602 200.969 176.242 200.969 175.786V175.03H203.003V177.262H205.217V179.098H203.003V183.724C203.003 184.06 203.057 184.348 203.165 184.588C203.273 184.816 203.447 184.996 203.687 185.128C203.927 185.248 204.239 185.308 204.623 185.308C204.719 185.308 204.827 185.302 204.947 185.29C205.067 185.278 205.181 185.266 205.289 185.254V187C205.121 187.024 204.935 187.048 204.731 187.072C204.527 187.096 204.347 187.108 204.191 187.108ZM206.914 187V177.262H208.948V187H206.914ZM206.914 175.93V173.59H208.948V175.93H206.914ZM215.665 187.216C214.729 187.216 213.871 186.994 213.091 186.55C212.323 186.106 211.711 185.5 211.255 184.732C210.799 183.964 210.571 183.094 210.571 182.122C210.571 181.138 210.799 180.268 211.255 179.512C211.711 178.744 212.323 178.144 213.091 177.712C213.859 177.268 214.717 177.046 215.665 177.046C216.625 177.046 217.483 177.268 218.239 177.712C219.007 178.144 219.613 178.744 220.057 179.512C220.513 180.268 220.741 181.138 220.741 182.122C220.741 183.106 220.513 183.982 220.057 184.75C219.601 185.518 218.989 186.124 218.221 186.568C217.453 187 216.601 187.216 215.665 187.216ZM215.665 185.326C216.241 185.326 216.751 185.188 217.195 184.912C217.639 184.636 217.987 184.258 218.239 183.778C218.503 183.286 218.635 182.734 218.635 182.122C218.635 181.51 218.503 180.964 218.239 180.484C217.987 180.004 217.639 179.626 217.195 179.35C216.751 179.074 216.241 178.936 215.665 178.936C215.101 178.936 214.591 179.074 214.135 179.35C213.691 179.626 213.337 180.004 213.073 180.484C212.821 180.964 212.695 181.51 212.695 182.122C212.695 182.734 212.821 183.286 213.073 183.778C213.337 184.258 213.691 184.636 214.135 184.912C214.591 185.188 215.101 185.326 215.665 185.326ZM222.366 187V177.262H224.31V179.17L224.076 178.918C224.316 178.306 224.7 177.844 225.228 177.532C225.756 177.208 226.368 177.046 227.064 177.046C227.784 177.046 228.42 177.202 228.972 177.514C229.524 177.826 229.956 178.258 230.268 178.81C230.58 179.362 230.736 179.998 230.736 180.718V187H228.72V181.258C228.72 180.766 228.63 180.352 228.45 180.016C228.27 179.668 228.012 179.404 227.676 179.224C227.352 179.032 226.98 178.936 226.56 178.936C226.14 178.936 225.762 179.032 225.426 179.224C225.102 179.404 224.85 179.668 224.67 180.016C224.49 180.364 224.4 180.778 224.4 181.258V187H222.366Z" fill="white"/>
</g>
<g opacity="0.3">
<path d="M20 240.25C30.9076 240.25 39.75 249.092 39.75 260C39.75 270.908 30.9076 279.75 20 279.75C9.09238 279.75 0.25 270.908 0.25 260C0.25 249.092 9.09238 240.25 20 240.25Z" stroke="white" stroke-opacity="0.5" stroke-width="0.5"/>
<path d="M20.804 267V264.048H14.648V261.996L20.66 253.59H23.216V261.996H25.178V264.048H23.216V267H20.804ZM16.448 262.878L16.016 261.996H20.804V255.516L21.434 255.714L16.448 262.878Z" fill="white"/>
<path d="M54.084 267.216C53.244 267.216 52.464 267.06 51.744 266.748C51.024 266.424 50.412 265.986 49.908 265.434C49.404 264.882 49.032 264.246 48.792 263.526L50.592 262.77C50.916 263.598 51.39 264.234 52.014 264.678C52.638 265.122 53.358 265.344 54.174 265.344C54.654 265.344 55.074 265.272 55.434 265.128C55.794 264.972 56.07 264.756 56.262 264.48C56.466 264.204 56.568 263.886 56.568 263.526C56.568 263.034 56.43 262.644 56.154 262.356C55.878 262.068 55.47 261.84 54.93 261.672L52.41 260.88C51.402 260.568 50.634 260.094 50.106 259.458C49.578 258.81 49.314 258.054 49.314 257.19C49.314 256.434 49.5 255.774 49.872 255.21C50.244 254.634 50.754 254.184 51.402 253.86C52.062 253.536 52.812 253.374 53.652 253.374C54.456 253.374 55.188 253.518 55.848 253.806C56.508 254.082 57.072 254.466 57.54 254.958C58.02 255.45 58.368 256.02 58.584 256.668L56.82 257.442C56.556 256.734 56.142 256.188 55.578 255.804C55.026 255.42 54.384 255.228 53.652 255.228C53.208 255.228 52.818 255.306 52.482 255.462C52.146 255.606 51.882 255.822 51.69 256.11C51.51 256.386 51.42 256.71 51.42 257.082C51.42 257.514 51.558 257.898 51.834 258.234C52.11 258.57 52.53 258.822 53.094 258.99L55.434 259.728C56.502 260.052 57.306 260.52 57.846 261.132C58.386 261.732 58.656 262.482 58.656 263.382C58.656 264.126 58.458 264.786 58.062 265.362C57.678 265.938 57.144 266.394 56.46 266.73C55.776 267.054 54.984 267.216 54.084 267.216ZM65.0543 267.216C64.0823 267.216 63.2183 266.994 62.4623 266.55C61.7183 266.094 61.1363 265.482 60.7163 264.714C60.2963 263.934 60.0863 263.064 60.0863 262.104C60.0863 261.12 60.2963 260.25 60.7163 259.494C61.1483 258.738 61.7243 258.144 62.4443 257.712C63.1643 257.268 63.9803 257.046 64.8923 257.046C65.6243 257.046 66.2783 257.172 66.8543 257.424C67.4303 257.676 67.9163 258.024 68.3123 258.468C68.7083 258.9 69.0083 259.398 69.2123 259.962C69.4283 260.526 69.5363 261.126 69.5363 261.762C69.5363 261.918 69.5303 262.08 69.5183 262.248C69.5063 262.416 69.4823 262.572 69.4463 262.716H61.6883V261.096H68.2943L67.3223 261.834C67.4423 261.246 67.4003 260.724 67.1963 260.268C67.0043 259.8 66.7043 259.434 66.2963 259.17C65.9003 258.894 65.4323 258.756 64.8923 258.756C64.3523 258.756 63.8723 258.894 63.4523 259.17C63.0323 259.434 62.7083 259.818 62.4803 260.322C62.2523 260.814 62.1623 261.414 62.2103 262.122C62.1503 262.782 62.2403 263.358 62.4803 263.85C62.7323 264.342 63.0803 264.726 63.5243 265.002C63.9803 265.278 64.4963 265.416 65.0723 265.416C65.6603 265.416 66.1583 265.284 66.5663 265.02C66.9863 264.756 67.3163 264.414 67.5563 263.994L69.2123 264.804C69.0203 265.26 68.7203 265.674 68.3123 266.046C67.9163 266.406 67.4363 266.694 66.8723 266.91C66.3203 267.114 65.7143 267.216 65.0543 267.216ZM71.1614 267V253.374H73.1954V267H71.1614ZM79.7855 267.216C78.8135 267.216 77.9495 266.994 77.1935 266.55C76.4495 266.094 75.8675 265.482 75.4475 264.714C75.0275 263.934 74.8175 263.064 74.8175 262.104C74.8175 261.12 75.0275 260.25 75.4475 259.494C75.8795 258.738 76.4555 258.144 77.1755 257.712C77.8955 257.268 78.7115 257.046 79.6235 257.046C80.3555 257.046 81.0095 257.172 81.5855 257.424C82.1615 257.676 82.6475 258.024 83.0435 258.468C83.4395 258.9 83.7395 259.398 83.9435 259.962C84.1595 260.526 84.2675 261.126 84.2675 261.762C84.2675 261.918 84.2615 262.08 84.2495 262.248C84.2375 262.416 84.2135 262.572 84.1775 262.716H76.4195V261.096H83.0255L82.0535 261.834C82.1735 261.246 82.1315 260.724 81.9275 260.268C81.7355 259.8 81.4355 259.434 81.0275 259.17C80.6315 258.894 80.1635 258.756 79.6235 258.756C79.0835 258.756 78.6035 258.894 78.1835 259.17C77.7635 259.434 77.4395 259.818 77.2115 260.322C76.9835 260.814 76.8935 261.414 76.9415 262.122C76.8815 262.782 76.9715 263.358 77.2115 263.85C77.4635 264.342 77.8115 264.726 78.2555 265.002C78.7115 265.278 79.2275 265.416 79.8035 265.416C80.3915 265.416 80.8895 265.284 81.2975 265.02C81.7175 264.756 82.0475 264.414 82.2875 263.994L83.9435 264.804C83.7515 265.26 83.4515 265.674 83.0435 266.046C82.6475 266.406 82.1675 266.694 81.6035 266.91C81.0515 267.114 80.4455 267.216 79.7855 267.216ZM90.5185 267.216C89.5465 267.216 88.6825 266.994 87.9265 266.55C87.1825 266.094 86.5885 265.482 86.1445 264.714C85.7125 263.946 85.4965 263.076 85.4965 262.104C85.4965 261.144 85.7125 260.28 86.1445 259.512C86.5765 258.744 87.1705 258.144 87.9265 257.712C88.6825 257.268 89.5465 257.046 90.5185 257.046C91.1785 257.046 91.7965 257.166 92.3725 257.406C92.9485 257.634 93.4465 257.952 93.8665 258.36C94.2985 258.768 94.6165 259.242 94.8205 259.782L93.0385 260.61C92.8345 260.106 92.5045 259.704 92.0485 259.404C91.6045 259.092 91.0945 258.936 90.5185 258.936C89.9665 258.936 89.4685 259.074 89.0245 259.35C88.5925 259.614 88.2505 259.992 87.9985 260.484C87.7465 260.964 87.6205 261.51 87.6205 262.122C87.6205 262.734 87.7465 263.286 87.9985 263.778C88.2505 264.258 88.5925 264.636 89.0245 264.912C89.4685 265.188 89.9665 265.326 90.5185 265.326C91.1065 265.326 91.6165 265.176 92.0485 264.876C92.4925 264.564 92.8225 264.15 93.0385 263.634L94.8205 264.48C94.6285 264.996 94.3165 265.464 93.8845 265.884C93.4645 266.292 92.9665 266.616 92.3905 266.856C91.8145 267.096 91.1905 267.216 90.5185 267.216ZM100.661 267.108C99.6405 267.108 98.8485 266.82 98.2845 266.244C97.7205 265.668 97.4385 264.858 97.4385 263.814V259.098H95.7285V257.262H95.9985C96.4545 257.262 96.8085 257.13 97.0605 256.866C97.3125 256.602 97.4385 256.242 97.4385 255.786V255.03H99.4725V257.262H101.687V259.098H99.4725V263.724C99.4725 264.06 99.5265 264.348 99.6345 264.588C99.7425 264.816 99.9165 264.996 100.157 265.128C100.397 265.248 100.709 265.308 101.093 265.308C101.189 265.308 101.297 265.302 101.417 265.29C101.537 265.278 101.651 265.266 101.759 265.254V267C101.591 267.024 101.405 267.048 101.201 267.072C100.997 267.096 100.817 267.108 100.661 267.108ZM105.18 267L109.896 253.59H112.524L117.24 267H114.972L113.946 263.994H108.492L107.448 267H105.18ZM109.104 262.104H113.298L110.922 255.084H111.516L109.104 262.104ZM118.273 267V257.262H120.217V259.17L119.983 258.918C120.223 258.306 120.607 257.844 121.135 257.532C121.663 257.208 122.275 257.046 122.971 257.046C123.691 257.046 124.327 257.202 124.879 257.514C125.431 257.826 125.863 258.258 126.175 258.81C126.487 259.362 126.643 259.998 126.643 260.718V267H124.627V261.258C124.627 260.766 124.537 260.352 124.357 260.016C124.177 259.668 123.919 259.404 123.583 259.224C123.259 259.032 122.887 258.936 122.467 258.936C122.047 258.936 121.669 259.032 121.333 259.224C121.009 259.404 120.757 259.668 120.577 260.016C120.397 260.364 120.307 260.778 120.307 261.258V267H118.273ZM133.086 267.216C132.114 267.216 131.25 266.994 130.494 266.55C129.75 266.094 129.156 265.482 128.712 264.714C128.28 263.946 128.064 263.076 128.064 262.104C128.064 261.144 128.28 260.28 128.712 259.512C129.144 258.744 129.738 258.144 130.494 257.712C131.25 257.268 132.114 257.046 133.086 257.046C133.746 257.046 134.364 257.166 134.94 257.406C135.516 257.634 136.014 257.952 136.434 258.36C136.866 258.768 137.184 259.242 137.388 259.782L135.606 260.61C135.402 260.106 135.072 259.704 134.616 259.404C134.172 259.092 133.662 258.936 133.086 258.936C132.534 258.936 132.036 259.074 131.592 259.35C131.16 259.614 130.818 259.992 130.566 260.484C130.314 260.964 130.188 261.51 130.188 262.122C130.188 262.734 130.314 263.286 130.566 263.778C130.818 264.258 131.16 264.636 131.592 264.912C132.036 265.188 132.534 265.326 133.086 265.326C133.674 265.326 134.184 265.176 134.616 264.876C135.06 264.564 135.39 264.15 135.606 263.634L137.388 264.48C137.196 264.996 136.884 265.464 136.452 265.884C136.032 266.292 135.534 266.616 134.958 266.856C134.382 267.096 133.758 267.216 133.086 267.216ZM139.016 267V253.374H141.05V259.17L140.726 258.918C140.966 258.306 141.35 257.844 141.878 257.532C142.406 257.208 143.018 257.046 143.714 257.046C144.434 257.046 145.07 257.202 145.622 257.514C146.174 257.826 146.606 258.258 146.918 258.81C147.23 259.362 147.386 259.992 147.386 260.7V267H145.37V261.258C145.37 260.766 145.274 260.352 145.082 260.016C144.902 259.668 144.65 259.404 144.326 259.224C144.002 259.032 143.63 258.936 143.21 258.936C142.802 258.936 142.43 259.032 142.094 259.224C141.77 259.404 141.512 259.668 141.32 260.016C141.14 260.364 141.05 260.778 141.05 261.258V267H139.016ZM153.901 267.216C152.965 267.216 152.107 266.994 151.327 266.55C150.559 266.106 149.947 265.5 149.491 264.732C149.035 263.964 148.807 263.094 148.807 262.122C148.807 261.138 149.035 260.268 149.491 259.512C149.947 258.744 150.559 258.144 151.327 257.712C152.095 257.268 152.953 257.046 153.901 257.046C154.861 257.046 155.719 257.268 156.475 257.712C157.243 258.144 157.849 258.744 158.293 259.512C158.749 260.268 158.977 261.138 158.977 262.122C158.977 263.106 158.749 263.982 158.293 264.75C157.837 265.518 157.225 266.124 156.457 266.568C155.689 267 154.837 267.216 153.901 267.216ZM153.901 265.326C154.477 265.326 154.987 265.188 155.431 264.912C155.875 264.636 156.223 264.258 156.475 263.778C156.739 263.286 156.871 262.734 156.871 262.122C156.871 261.51 156.739 260.964 156.475 260.484C156.223 260.004 155.875 259.626 155.431 259.35C154.987 259.074 154.477 258.936 153.901 258.936C153.337 258.936 152.827 259.074 152.371 259.35C151.927 259.626 151.573 260.004 151.309 260.484C151.057 260.964 150.931 261.51 150.931 262.122C150.931 262.734 151.057 263.286 151.309 263.778C151.573 264.258 151.927 264.636 152.371 264.912C152.827 265.188 153.337 265.326 153.901 265.326ZM160.602 267V257.262H162.546V259.224L162.366 258.936C162.582 258.3 162.93 257.844 163.41 257.568C163.89 257.28 164.466 257.136 165.138 257.136H165.732V258.99H164.886C164.214 258.99 163.668 259.2 163.248 259.62C162.84 260.028 162.636 260.616 162.636 261.384V267H160.602Z" fill="white"/>
</g>
<line x1="20.25" y1="48" x2="20.25" y2="72" stroke="white" stroke-opacity="0.5" stroke-width="0.5"/>
<line x1="20.25" y1="128" x2="20.25" y2="152" stroke="white" stroke-opacity="0.5" stroke-width="0.5"/>
<line x1="20.25" y1="208" x2="20.25" y2="232" stroke="white" stroke-opacity="0.5" stroke-width="0.5"/>
</svg>
