<svg width="364" height="33" viewBox="0 0 364 33" fill="none" xmlns="http://www.w3.org/2000/svg">
<rect x="0.5" y="0.5" width="363" height="7" rx="3.5" fill="#FAFAFA"/>
<rect x="0.5" y="0.5" width="363" height="7" rx="3.5" stroke="#E9EAEB"/>
<rect width="364" height="8" rx="4" fill="#0098DB"/>
<path d="M0.504 22.664C0.504 21.176 1.704 20.168 3.492 20.168C5.148 20.168 6.216 21.092 6.312 22.592H5.124C5.064 21.728 4.452 21.224 3.48 21.224C2.388 21.224 1.68 21.776 1.68 22.628C1.68 23.324 2.076 23.744 2.892 23.936L4.32 24.272C5.736 24.596 6.456 25.364 6.456 26.588C6.456 28.148 5.244 29.144 3.396 29.144C1.632 29.144 0.456 28.22 0.384 26.732H1.584C1.608 27.56 2.304 28.088 3.396 28.088C4.548 28.088 5.28 27.548 5.28 26.684C5.28 26 4.908 25.568 4.08 25.376L2.652 25.052C1.236 24.728 0.504 23.912 0.504 22.664ZM9.39778 29H8.26978V24.08H7.11778V23.132H8.26978V21.296H9.39778V23.132H10.5498V24.08H9.39778V29ZM14.0355 29.144C12.3075 29.144 11.1195 27.896 11.1195 26.072C11.1195 24.236 12.2835 22.964 13.9875 22.964C15.6555 22.964 16.7475 24.116 16.7475 25.856V26.276L12.2115 26.288C12.2955 27.524 12.9435 28.208 14.0595 28.208C14.9355 28.208 15.5115 27.848 15.7035 27.176H16.7595C16.4715 28.436 15.4875 29.144 14.0355 29.144ZM13.9875 23.912C13.0035 23.912 12.3795 24.5 12.2355 25.532H15.6195C15.6195 24.56 14.9835 23.912 13.9875 23.912ZM18.0074 31.628V23.132H19.0274L19.1114 24.188C19.5074 23.384 20.2994 22.964 21.2354 22.964C22.9154 22.964 23.9594 24.224 23.9594 26.024C23.9594 27.812 22.9754 29.156 21.2354 29.156C20.2994 29.156 19.5194 28.76 19.1354 28.04V31.628H18.0074ZM19.1474 26.072C19.1474 27.272 19.8434 28.136 20.9954 28.136C22.1474 28.136 22.8314 27.272 22.8314 26.072C22.8314 24.86 22.1474 23.996 20.9954 23.996C19.8434 23.996 19.1474 24.848 19.1474 26.072ZM34.724 27.248H33.692V29H32.564V27.248H28.076V26.204L32.168 20.324H33.692V26.204H34.724V27.248ZM29.348 26.204H32.564V21.572L29.348 26.204ZM39.0101 26.06C39.0101 24.248 40.3061 22.976 42.0701 22.976C43.8221 22.976 45.1181 24.248 45.1181 26.06C45.1181 27.872 43.8221 29.144 42.0701 29.144C40.3061 29.144 39.0101 27.872 39.0101 26.06ZM40.1501 26.06C40.1501 27.284 40.9301 28.136 42.0701 28.136C43.1981 28.136 43.9901 27.284 43.9901 26.06C43.9901 24.836 43.1981 23.984 42.0701 23.984C40.9301 23.984 40.1501 24.836 40.1501 26.06ZM45.7076 23.132H46.5716V22.196C46.5716 20.756 47.3636 20.168 48.4316 20.168C48.6476 20.168 48.8996 20.18 49.1276 20.216V21.188H48.6236C47.8916 21.188 47.6996 21.56 47.6996 22.196V23.132H49.0916V24.08H47.6996V29H46.5716V24.08H45.7076V23.132ZM59.6615 27.248H58.6295V29H57.5015V27.248H53.0135V26.204L57.1055 20.324H58.6295V26.204H59.6615V27.248ZM54.2855 26.204H57.5015V21.572L54.2855 26.204Z" fill="#09090B"/>
</svg>
