<svg width="364" height="33" viewBox="0 0 364 33" fill="none" xmlns="http://www.w3.org/2000/svg">
<rect x="0.5" y="0.5" width="363" height="7" rx="3.5" fill="#FAFAFA"/>
<rect x="0.5" y="0.5" width="363" height="7" rx="3.5" stroke="#E9EAEB"/>
<rect width="182" height="8" rx="4" fill="#0098DB"/>
<path d="M0.504 22.664C0.504 21.176 1.704 20.168 3.492 20.168C5.148 20.168 6.216 21.092 6.312 22.592H5.124C5.064 21.728 4.452 21.224 3.48 21.224C2.388 21.224 1.68 21.776 1.68 22.628C1.68 23.324 2.076 23.744 2.892 23.936L4.32 24.272C5.736 24.596 6.456 25.364 6.456 26.588C6.456 28.148 5.244 29.144 3.396 29.144C1.632 29.144 0.456 28.22 0.384 26.732H1.584C1.608 27.56 2.304 28.088 3.396 28.088C4.548 28.088 5.28 27.548 5.28 26.684C5.28 26 4.908 25.568 4.08 25.376L2.652 25.052C1.236 24.728 0.504 23.912 0.504 22.664ZM9.39778 29H8.26978V24.08H7.11778V23.132H8.26978V21.296H9.39778V23.132H10.5498V24.08H9.39778V29ZM14.0355 29.144C12.3075 29.144 11.1195 27.896 11.1195 26.072C11.1195 24.236 12.2835 22.964 13.9875 22.964C15.6555 22.964 16.7475 24.116 16.7475 25.856V26.276L12.2115 26.288C12.2955 27.524 12.9435 28.208 14.0595 28.208C14.9355 28.208 15.5115 27.848 15.7035 27.176H16.7595C16.4715 28.436 15.4875 29.144 14.0355 29.144ZM13.9875 23.912C13.0035 23.912 12.3795 24.5 12.2355 25.532H15.6195C15.6195 24.56 14.9835 23.912 13.9875 23.912ZM18.0074 31.628V23.132H19.0274L19.1114 24.188C19.5074 23.384 20.2994 22.964 21.2354 22.964C22.9154 22.964 23.9594 24.224 23.9594 26.024C23.9594 27.812 22.9754 29.156 21.2354 29.156C20.2994 29.156 19.5194 28.76 19.1354 28.04V31.628H18.0074ZM19.1474 26.072C19.1474 27.272 19.8434 28.136 20.9954 28.136C22.1474 28.136 22.8314 27.272 22.8314 26.072C22.8314 24.86 22.1474 23.996 20.9954 23.996C19.8434 23.996 19.1474 24.848 19.1474 26.072ZM34.076 28.988L28.22 29V28.1L31.016 25.688C32.42 24.476 32.816 23.888 32.816 22.964C32.816 21.872 32.192 21.224 31.148 21.224C30.08 21.224 29.384 22.004 29.36 23.24H28.184C28.22 21.38 29.396 20.168 31.16 20.168C32.9 20.168 34.016 21.224 34.016 22.892C34.016 24.128 33.404 25.004 31.868 26.336L30.068 27.896H34.076V28.988ZM38.2836 26.06C38.2836 24.248 39.5796 22.976 41.3436 22.976C43.0956 22.976 44.3916 24.248 44.3916 26.06C44.3916 27.872 43.0956 29.144 41.3436 29.144C39.5796 29.144 38.2836 27.872 38.2836 26.06ZM39.4236 26.06C39.4236 27.284 40.2036 28.136 41.3436 28.136C42.4716 28.136 43.2636 27.284 43.2636 26.06C43.2636 24.836 42.4716 23.984 41.3436 23.984C40.2036 23.984 39.4236 24.836 39.4236 26.06ZM44.9811 23.132H45.8451V22.196C45.8451 20.756 46.6371 20.168 47.7051 20.168C47.9211 20.168 48.1731 20.18 48.4011 20.216V21.188H47.8971C47.1651 21.188 46.9731 21.56 46.9731 22.196V23.132H48.3651V24.08H46.9731V29H45.8451V24.08H44.9811V23.132ZM58.9349 27.248H57.9029V29H56.7749V27.248H52.2869V26.204L56.3789 20.324H57.9029V26.204H58.9349V27.248ZM53.5589 26.204H56.7749V21.572L53.5589 26.204Z" fill="#09090B"/>
</svg>
