<svg width="20" height="20" viewBox="0 0 20 20" fill="none" xmlns="http://www.w3.org/2000/svg">
<path d="M1.66667 10C1.66667 7.05214 1.66667 5.57818 2.544 4.59412C2.68432 4.43673 2.83898 4.29117 3.00621 4.1591C4.05178 3.33337 5.61785 3.33337 8.75 3.33337H11.25C14.3821 3.33337 15.9482 3.33337 16.9938 4.1591C17.161 4.29117 17.3157 4.43673 17.456 4.59412C18.3333 5.57818 18.3333 7.05214 18.3333 10C18.3333 12.9479 18.3333 14.4219 17.456 15.406C17.3157 15.5634 17.161 15.7089 16.9938 15.841C15.9482 16.6667 14.3821 16.6667 11.25 16.6667H8.75C5.61785 16.6667 4.05178 16.6667 3.00621 15.841C2.83898 15.7089 2.68432 15.5634 2.544 15.406C1.66667 14.4219 1.66667 12.9479 1.66667 10Z" stroke="#141B34" stroke-width="1.5" stroke-linecap="round" stroke-linejoin="round"/>
<path d="M8.33333 13.3334H9.58333" stroke="#141B34" stroke-width="1.5" stroke-miterlimit="10" stroke-linecap="round" stroke-linejoin="round"/>
<path d="M12.0833 13.3334L15 13.3334" stroke="#141B34" stroke-width="1.5" stroke-miterlimit="10" stroke-linecap="round" stroke-linejoin="round"/>
<path d="M1.66667 7.5H18.3333" stroke="#141B34" stroke-width="1.5" stroke-linejoin="round"/>
</svg>
