<svg width="20" height="20" viewBox="0 0 20 20" fill="none" xmlns="http://www.w3.org/2000/svg">
<path d="M16.6667 9.16665V6.51513C16.6667 5.1041 16.6667 4.39858 16.4434 3.8351C16.0844 2.92923 15.3252 2.21469 14.3627 1.87682C13.764 1.66665 13.0144 1.66665 11.5152 1.66665C8.89151 1.66665 7.57969 1.66665 6.53197 2.03444C4.84761 2.62572 3.51901 3.87617 2.89078 5.46144C2.5 6.44753 2.5 7.68219 2.5 10.1515V12.2727C2.5 14.8305 2.5 16.1094 3.20642 16.9976C3.40882 17.252 3.64885 17.478 3.91922 17.6685C4.78997 18.2819 6.01421 18.3293 8.33333 18.333" stroke="#141B34" stroke-width="1.5" stroke-linecap="round" stroke-linejoin="round"/>
<path d="M2.5 10C2.5 8.46588 3.74365 7.22222 5.27778 7.22222C5.8326 7.22222 6.4867 7.31944 7.02614 7.1749C7.50543 7.04647 7.8798 6.6721 8.00823 6.1928C8.15277 5.65336 8.05556 4.99926 8.05556 4.44444C8.05556 2.91032 9.29921 1.66667 10.8333 1.66667" stroke="#141B34" stroke-width="1.5" stroke-linecap="round" stroke-linejoin="round"/>
<path d="M11.9564 18.2131L11.7996 17.4796H11.7996L11.9564 18.2131ZM10.9536 17.2102L11.687 17.367L10.9536 17.2102ZM11.6839 15.0931L11.1536 14.5627H11.1536L11.6839 15.0931ZM17.3302 12.8977L17.9797 12.5227V12.5227L17.3302 12.8977ZM17.3302 14.165L17.9797 14.54V14.54L17.3302 14.165ZM16.2689 11.8364L16.6439 11.1869V11.1869L16.2689 11.8364ZM14.4404 12.3365L14.9708 12.8669V12.8669L14.4404 12.3365ZM15.0016 11.8364L14.6266 11.1869V11.1869L15.0016 11.8364ZM16.8301 14.7262L16.2998 14.1959L13.5432 16.9524L14.0736 17.4827L14.6039 18.0131L17.3604 15.2565L16.8301 14.7262ZM11.6839 15.0931L12.2142 15.6234L14.9708 12.8669L14.4404 12.3365L13.9101 11.8062L11.1536 14.5627L11.6839 15.0931ZM11.9564 18.2131L11.7996 17.4796C11.6529 17.511 11.5379 17.5355 11.4395 17.5538C11.34 17.5723 11.2793 17.5802 11.2417 17.5826C11.2026 17.5851 11.2203 17.5792 11.2667 17.5912C11.3255 17.6064 11.3992 17.642 11.4619 17.7047L10.9316 18.235L10.4012 18.7654C10.7088 19.0729 11.0908 19.0952 11.3369 19.0796C11.5696 19.0648 11.8501 19.0027 12.1133 18.9465L11.9564 18.2131ZM10.9536 17.2102L10.2201 17.0534C10.1639 17.3165 10.1019 17.597 10.0871 17.8297C10.0714 18.0759 10.0937 18.4578 10.4012 18.7654L10.9316 18.235L11.4619 17.7047C11.5246 17.7674 11.5603 17.8411 11.5754 17.9C11.5874 17.9463 11.5816 17.964 11.5841 17.9249C11.5864 17.8873 11.5943 17.8266 11.6128 17.7271C11.6311 17.6287 11.6556 17.5137 11.687 17.367L10.9536 17.2102ZM16.8301 12.3365L16.2998 12.8669C16.6117 13.1788 16.6591 13.2353 16.6807 13.2727L17.3302 12.8977L17.9797 12.5227C17.8345 12.2711 17.6041 12.0498 17.3604 11.8062L16.8301 12.3365ZM16.8301 14.7262L17.3604 15.2565C17.6041 15.0129 17.8345 14.7916 17.9797 14.54L17.3302 14.165L16.6807 13.79C16.6591 13.8274 16.6117 13.8839 16.2998 14.1959L16.8301 14.7262ZM17.3302 12.8977L16.6807 13.2727C16.7731 13.4328 16.7731 13.63 16.6807 13.79L17.3302 14.165L17.9797 14.54C18.3401 13.9159 18.3401 13.1469 17.9797 12.5227L17.3302 12.8977ZM16.8301 12.3365L17.3604 11.8062C17.1168 11.5625 16.8955 11.3321 16.6439 11.1869L16.2689 11.8364L15.8939 12.4859C15.9313 12.5075 15.9878 12.5549 16.2998 12.8669L16.8301 12.3365ZM14.4404 12.3365L14.9708 12.8669C15.2827 12.5549 15.3392 12.5075 15.3766 12.4859L15.0016 11.8364L14.6266 11.1869C14.375 11.3321 14.1537 11.5625 13.9101 11.8062L14.4404 12.3365ZM16.2689 11.8364L16.6439 11.1869C16.0198 10.8265 15.2508 10.8265 14.6266 11.1869L15.0016 11.8364L15.3766 12.4859C15.5367 12.3935 15.7339 12.3935 15.8939 12.4859L16.2689 11.8364ZM14.0736 17.4827L13.5432 16.9524C13.4028 17.0929 13.2047 17.1906 12.8987 17.2688C12.7453 17.3079 12.5804 17.3385 12.3923 17.371C12.213 17.402 12.0022 17.4363 11.7996 17.4796L11.9564 18.2131L12.1133 18.9465C12.2783 18.9112 12.4471 18.8838 12.6477 18.8491C12.8394 18.816 13.0546 18.7771 13.2697 18.7221C13.7008 18.6121 14.1937 18.4233 14.6039 18.0131L14.0736 17.4827ZM10.9536 17.2102L11.687 17.367C11.7303 17.1644 11.7646 16.9536 11.7956 16.7743C11.8281 16.5862 11.8587 16.4213 11.8979 16.2679C11.976 15.9619 12.0738 15.7638 12.2142 15.6234L11.6839 15.0931L11.1536 14.5627C10.7433 14.973 10.5545 15.4658 10.4445 15.8969C10.3895 16.1121 10.3506 16.3272 10.3175 16.5189C10.2829 16.7195 10.2554 16.8883 10.2201 17.0534L10.9536 17.2102Z" fill="#141B34"/>
</svg>
