<svg width="20" height="20" viewBox="0 0 20 20" fill="none" xmlns="http://www.w3.org/2000/svg">
<g clip-path="url(#clip0_12279_307)">
<path d="M12.5001 14.1667C11.8339 14.6854 10.9587 15.0001 10.0001 15.0001C9.0416 15.0001 8.1664 14.6854 7.50013 14.1667" stroke="#004C6E" stroke-width="1.5" stroke-linecap="round"/>
<path d="M1.95962 11.0113C1.66544 9.09695 1.51835 8.13978 1.88027 7.29123C2.24219 6.44268 3.04515 5.86211 4.65108 4.70097L5.85095 3.83341C7.84871 2.38897 8.84758 1.66675 10.0001 1.66675C11.1527 1.66675 12.1516 2.38897 14.1493 3.83341L15.3492 4.70097C16.9551 5.86211 17.7581 6.44268 18.12 7.29123C18.4819 8.13978 18.3348 9.09695 18.0406 11.0113L17.7898 12.6437C17.3727 15.3575 17.1642 16.7144 16.191 17.5239C15.2177 18.3334 13.7949 18.3334 10.9491 18.3334H9.05112C6.20541 18.3334 4.78255 18.3334 3.8093 17.5239C2.83604 16.7144 2.62752 15.3575 2.21049 12.6437L1.95962 11.0113Z" stroke="#004C6E" stroke-width="1.5" stroke-linejoin="round"/>
</g>
<defs>
<clipPath id="clip0_12279_307">
<rect width="20" height="20" fill="white"/>
</clipPath>
</defs>
</svg>
