<svg width="20" height="20" viewBox="0 0 20 20" fill="none" xmlns="http://www.w3.org/2000/svg">
<path d="M3.33333 15.5382V6.71196C3.33333 4.33363 3.33333 3.14446 4.06557 2.4056C4.7978 1.66675 5.97631 1.66675 8.33333 1.66675H11.6667C14.0237 1.66675 15.2022 1.66675 15.9344 2.4056C16.6667 3.14446 16.6667 4.33363 16.6667 6.71196V15.5382C16.6667 16.798 16.6667 17.4278 16.2817 17.6758C15.6526 18.081 14.68 17.2313 14.1909 16.9228C13.7868 16.6679 13.5847 16.5405 13.3604 16.5331C13.1181 16.5252 12.9124 16.6474 12.4757 16.9228L10.8833 17.9271C10.4538 18.198 10.239 18.3334 10 18.3334C9.76101 18.3334 9.54622 18.198 9.11667 17.9271L7.52427 16.9228C7.12012 16.6679 6.91805 16.5405 6.69378 16.5331C6.45143 16.5252 6.24577 16.6474 5.80906 16.9228C5.31996 17.2313 4.34739 18.081 3.71829 17.6758C3.33333 17.4278 3.33333 16.798 3.33333 15.5382Z" stroke="#141B34" stroke-width="1.5" stroke-linecap="round" stroke-linejoin="round"/>
<path d="M9.16667 9.16675H6.66667" stroke="#141B34" stroke-width="1.5" stroke-linecap="round" stroke-linejoin="round"/>
<path d="M11.6667 5.83325L6.66667 5.83325" stroke="#141B34" stroke-width="1.5" stroke-linecap="round" stroke-linejoin="round"/>
</svg>
