<svg width="20" height="20" viewBox="0 0 20 20" fill="none" xmlns="http://www.w3.org/2000/svg">
<g clip-path="url(#clip0_12279_401)">
<path d="M13.7005 17.7898L14.1608 17.2146C14.5651 16.7093 15.4237 16.75 15.7653 17.2907C16.1762 17.9412 17.191 17.8119 17.4724 17.2135C17.4871 17.1824 17.4505 17.2602 17.4817 16.991C17.513 16.7218 17.5 16.6603 17.4739 16.5373L15.8713 8.9701C15.4686 7.06829 15.2672 6.11738 14.5745 5.55869C13.8817 5 12.904 5 10.9487 5H9.05134C7.09597 5 6.11829 5 5.42555 5.55869C4.73281 6.11738 4.53142 7.06829 4.12866 8.9701L2.52608 16.5373C2.50003 16.6603 2.48701 16.7218 2.51828 16.991C2.54955 17.2602 2.51295 17.1824 2.52758 17.2135C2.80903 17.8119 3.8238 17.9412 4.23471 17.2907C4.57627 16.75 5.43489 16.7093 5.83924 17.2146L6.29945 17.7898C6.87928 18.5145 8.09016 18.5145 8.66999 17.7898L8.74236 17.6994C9.35759 16.9304 10.6424 16.9304 11.2576 17.6994L11.33 17.7898C11.9098 18.5145 13.1207 18.5145 13.7005 17.7898Z" stroke="#141B34" stroke-width="1.5" stroke-linejoin="round"/>
<path d="M2.06947 7.91675C1.58171 7.41007 1.67354 6.75752 1.67354 5.12655C1.67354 3.49558 1.67354 2.6801 2.16129 2.17342C2.64905 1.66675 3.43408 1.66675 5.00414 1.66675L14.996 1.66675C16.566 1.66675 17.3511 1.66675 17.8388 2.17343C18.3266 2.6801 18.3266 3.49558 18.3266 5.12655C18.3266 6.75752 18.4178 7.41007 17.9301 7.91675" stroke="#141B34" stroke-width="1.5" stroke-linecap="round"/>
<path d="M10 8.33325H7.5" stroke="#141B34" stroke-width="1.5" stroke-linecap="round" stroke-linejoin="round"/>
<path d="M11.6667 11.6667L6.66667 11.6667" stroke="#141B34" stroke-width="1.5" stroke-linecap="round" stroke-linejoin="round"/>
</g>
<defs>
<clipPath id="clip0_12279_401">
<rect width="20" height="20" fill="white"/>
</clipPath>
</defs>
</svg>
