<svg width="20" height="20" viewBox="0 0 20 20" fill="none" xmlns="http://www.w3.org/2000/svg">
<path d="M13.75 16.5477V17.5M13.75 16.5477C12.9065 16.5477 12.1634 16.1268 11.7275 15.4877M15.7726 12.8459C16.0303 13.2238 16.1806 13.6781 16.1806 14.1667C16.1806 14.6554 16.0303 15.1097 15.7725 15.4877C15.3366 16.1268 14.5935 16.5477 13.75 16.5477M13.75 11.7858C14.5935 11.7858 15.3367 12.2067 15.7726 12.8459M13.75 11.7858C12.9065 11.7858 12.1633 12.2067 11.7274 12.8459M13.75 11.7858V10.8334M16.6667 12.2619L15.7726 12.8459M10.8336 16.0715L11.7275 15.4877M10.8333 12.2619L11.7274 12.8459M16.6664 16.0715L15.7725 15.4877M11.7274 12.8459C11.4697 13.2238 11.3194 13.6781 11.3194 14.1667C11.3194 14.6554 11.4697 15.1097 11.7275 15.4877" stroke="#141B34" stroke-width="1.5" stroke-linecap="round"/>
<path d="M3.33333 2.5L16.6667 2.5" stroke="#141B34" stroke-width="1.5" stroke-linecap="round"/>
<path d="M3.33333 7.5L16.6667 7.5" stroke="#141B34" stroke-width="1.5" stroke-linecap="round"/>
<path d="M3.33333 12.5L7.5 12.5" stroke="#141B34" stroke-width="1.5" stroke-linecap="round"/>
</svg>
