<svg width="20" height="20" viewBox="0 0 20 20" fill="none" xmlns="http://www.w3.org/2000/svg">
<g clip-path="url(#clip0_12279_549)">
<path d="M18.2998 9.14227C18.3445 9.8341 18.3445 10.5506 18.2998 11.2424C18.0713 14.7777 15.2947 17.5937 11.8088 17.8254C10.6196 17.9045 9.37797 17.9043 8.19116 17.8254C7.78247 17.7983 7.337 17.7008 6.95334 17.5427C6.52647 17.3669 6.313 17.279 6.20453 17.2923C6.09606 17.3057 5.93867 17.4217 5.6239 17.6539C5.0689 18.0631 4.36972 18.3571 3.33285 18.3318C2.80855 18.3191 2.5464 18.3127 2.42904 18.1126C2.31167 17.9125 2.45784 17.6355 2.75018 17.0815C3.15562 16.3132 3.41251 15.4336 3.02326 14.7288C2.35286 13.7222 1.78341 12.53 1.7002 11.2424C1.65549 10.5506 1.65549 9.8341 1.7002 9.14227C1.92867 5.60698 4.70532 2.79094 8.19116 2.55923C9.19321 2.49262 9.401 2.48213 10.4167 2.52807" stroke="#141B34" stroke-width="1.5" stroke-linecap="round" stroke-linejoin="round"/>
<path d="M9.99611 10.4166H10.0036M13.3257 10.4166H13.3332M6.66651 10.4166H6.67399" stroke="#141B34" stroke-width="2" stroke-linecap="round" stroke-linejoin="round"/>
<path d="M18.3333 4.58329C18.3333 6.19412 17.0275 7.49996 15.4167 7.49996C13.8058 7.49996 12.5 6.19412 12.5 4.58329C12.5 2.97246 13.8058 1.66663 15.4167 1.66663C17.0275 1.66663 18.3333 2.97246 18.3333 4.58329Z" stroke="#141B34" stroke-width="1.5"/>
</g>
<defs>
<clipPath id="clip0_12279_549">
<rect width="20" height="20" fill="white"/>
</clipPath>
</defs>
</svg>
