<svg width="20" height="20" viewBox="0 0 20 20" fill="none" xmlns="http://www.w3.org/2000/svg">
<g clip-path="url(#clip0_12279_579)">
<path d="M10 1.66663V4.99996M6.66667 3.33329L6.66667 4.99996M13.3333 3.33329V4.99996" stroke="#141B34" stroke-width="1.5" stroke-linecap="round"/>
<path d="M15.8333 5.41663C16.4787 5.5549 16.9657 5.78569 17.357 6.17086C18.3333 7.1318 18.3333 8.6784 18.3333 11.7716C18.3333 14.8648 18.3333 16.4114 17.357 17.3724C16.3807 18.3333 14.8094 18.3333 11.6667 18.3333H8.33333C5.19064 18.3333 3.61929 18.3333 2.64298 17.3724C1.66667 16.4114 1.66667 14.8648 1.66667 11.7716C1.66667 8.6784 1.66667 7.1318 2.64298 6.17086C3.03431 5.78569 3.52125 5.5549 4.16667 5.41663" stroke="#141B34" stroke-width="1.5" stroke-linecap="round"/>
<path d="M15.4167 11.6666H15.4092" stroke="#141B34" stroke-width="2" stroke-linecap="round" stroke-linejoin="round"/>
<path d="M4.59163 11.6666H4.58415" stroke="#141B34" stroke-width="2" stroke-linecap="round" stroke-linejoin="round"/>
<path d="M12.0833 11.6667C12.0833 12.8173 11.1506 13.75 10 13.75C8.84941 13.75 7.91667 12.8173 7.91667 11.6667C7.91667 10.5161 8.84941 9.58337 10 9.58337C11.1506 9.58337 12.0833 10.5161 12.0833 11.6667Z" stroke="#141B34" stroke-width="1.5"/>
</g>
<defs>
<clipPath id="clip0_12279_579">
<rect width="20" height="20" fill="white"/>
</clipPath>
</defs>
</svg>
