<svg width="20" height="20" viewBox="0 0 20 20" fill="none" xmlns="http://www.w3.org/2000/svg">
<g clip-path="url(#clip0_12279_596)">
<path d="M15 5C16.0834 5.10725 16.8127 5.34963 17.357 5.89743C18.3333 6.87997 18.3333 8.46135 18.3333 11.6241C18.3333 14.7869 18.3333 16.3682 17.357 17.3508C16.3807 18.3333 14.8094 18.3333 11.6667 18.3333H8.33333C5.19064 18.3333 3.61929 18.3333 2.64298 17.3508C1.66667 16.3682 1.66667 14.7869 1.66667 11.6241C1.66667 8.46135 1.66667 6.87997 2.64298 5.89743C3.1873 5.34963 3.91657 5.10725 5 5" stroke="#141B34" stroke-width="1.5" stroke-linecap="round"/>
<path d="M7.91667 4.58329C8.32627 5.00471 9.41648 6.66663 10 6.66663M12.0833 4.58329C11.6737 5.00471 10.5835 6.66663 10 6.66663M10 6.66663V1.66663" stroke="#141B34" stroke-width="1.5" stroke-linecap="round" stroke-linejoin="round"/>
<path d="M15.4232 11.6666H15.4157" stroke="#141B34" stroke-width="2" stroke-linecap="round" stroke-linejoin="round"/>
<path d="M4.58984 11.6666H4.58236" stroke="#141B34" stroke-width="2" stroke-linecap="round" stroke-linejoin="round"/>
<path d="M12.0833 11.6667C12.0833 12.8173 11.1506 13.75 10 13.75C8.84941 13.75 7.91667 12.8173 7.91667 11.6667C7.91667 10.5161 8.84941 9.58337 10 9.58337C11.1506 9.58337 12.0833 10.5161 12.0833 11.6667Z" stroke="#141B34" stroke-width="1.5"/>
</g>
<defs>
<clipPath id="clip0_12279_596">
<rect width="20" height="20" fill="white"/>
</clipPath>
</defs>
</svg>
