<svg width="20" height="20" viewBox="0 0 20 20" fill="none" xmlns="http://www.w3.org/2000/svg">
<g clip-path="url(#clip0_12279_630)">
<path d="M3.71945 3.75C3.45416 3.8567 3.21937 3.99072 3.00621 4.15906C2.83898 4.29113 2.68432 4.43669 2.544 4.59408C1.66667 5.57814 1.66667 7.0521 1.66667 10C1.66667 12.9479 1.66667 14.4219 2.544 15.4059C2.68432 15.5633 2.83898 15.7089 3.00621 15.8409C4.05178 16.6667 5.61785 16.6667 8.75 16.6667H11.25C13.7436 16.6667 15.214 16.6667 16.25 16.25" stroke="#141B34" stroke-width="1.5" stroke-linecap="round" stroke-linejoin="round"/>
<path d="M6.66667 3.34652C7.27308 3.33337 7.96198 3.33337 8.75 3.33337H11.25C14.3821 3.33337 15.9482 3.33337 16.9938 4.1591C17.161 4.29117 17.3157 4.43673 17.456 4.59412C18.3333 5.57818 18.3333 7.05214 18.3333 10C18.3333 11.9272 18.3333 13.2245 18.0882 14.1667" stroke="#141B34" stroke-width="1.5" stroke-linecap="round" stroke-linejoin="round"/>
<path d="M1.66667 1.66663L18.3333 18.3333" stroke="#141B34" stroke-width="1.5" stroke-linecap="round"/>
<path d="M11.4515 11.4518C11.073 11.8412 10.5436 12.083 9.95768 12.083C8.80709 12.083 7.87435 11.1503 7.87435 9.99969C7.87435 9.41379 8.11621 8.88439 8.50553 8.50586" stroke="#141B34" stroke-width="1.5" stroke-linecap="round"/>
<path d="M4.16667 10L5 10" stroke="#141B34" stroke-width="1.5" stroke-linecap="round"/>
<path d="M15 10L15.8333 10" stroke="#141B34" stroke-width="1.5" stroke-linecap="round"/>
</g>
<defs>
<clipPath id="clip0_12279_630">
<rect width="20" height="20" fill="white"/>
</clipPath>
</defs>
</svg>
