<svg width="20" height="20" viewBox="0 0 20 20" fill="none" xmlns="http://www.w3.org/2000/svg">
<g clip-path="url(#clip0_12279_562)">
<path d="M18.3333 9.58329V4.2616C18.3333 3.60245 18.3333 3.27288 18.1716 2.93301C18.0793 2.73917 17.8692 2.47549 17.7008 2.34228C17.4057 2.10872 17.1593 2.0523 16.6667 1.93946C15.9003 1.76392 15.0549 1.66663 14.1667 1.66663C12.5691 1.66663 11.1104 1.98132 10 2.49996C8.88955 3.0186 7.43089 3.33329 5.83333 3.33329C4.94507 3.33329 4.09974 3.236 3.33333 3.06046C2.53336 2.87723 1.66667 3.44091 1.66667 4.2616V13.2383C1.66667 13.8975 1.66667 14.227 1.82843 14.5669C1.92069 14.7607 2.1308 15.0244 2.29915 15.1576C2.59433 15.3912 2.84066 15.4476 3.33333 15.5605C4.09974 15.736 4.94507 15.8333 5.83333 15.8333C7.05737 15.8333 8.19986 15.6486 9.16667 15.3289" stroke="#141B34" stroke-width="1.5" stroke-linecap="round"/>
<path d="M12.0833 8.74996C12.0833 9.90055 11.1506 10.8333 10 10.8333C8.84941 10.8333 7.91667 9.90055 7.91667 8.74996C7.91667 7.59937 8.84941 6.66663 10 6.66663C11.1506 6.66663 12.0833 7.59937 12.0833 8.74996Z" stroke="#141B34" stroke-width="1.5"/>
<path d="M4.58333 9.58337L4.58333 9.59086" stroke="#141B34" stroke-width="2" stroke-linecap="round" stroke-linejoin="round"/>
<path d="M15.4167 7.91016L15.4167 7.91764" stroke="#141B34" stroke-width="2" stroke-linecap="round" stroke-linejoin="round"/>
<path d="M16.1111 11.6666L16.7971 12.2982C16.9464 12.445 17.0211 12.5183 16.9948 12.5807C16.9685 12.6431 16.8629 12.6431 16.6517 12.6431H14.0647C12.7403 12.6431 11.6667 13.6983 11.6667 15C11.6667 15.2933 11.7212 15.5742 11.8209 15.8333M13.8889 18.3333L13.2029 17.7017C13.0536 17.555 12.9789 17.4816 13.0052 17.4192C13.0315 17.3569 13.1371 17.3569 13.3483 17.3569H15.9353C17.2597 17.3569 18.3333 16.3016 18.3333 15C18.3333 14.7066 18.2788 14.4257 18.1791 14.1666" stroke="#141B34" stroke-width="1.5" stroke-linecap="round" stroke-linejoin="round"/>
</g>
<defs>
<clipPath id="clip0_12279_562">
<rect width="20" height="20" fill="white"/>
</clipPath>
</defs>
</svg>
