<svg width="20" height="20" viewBox="0 0 20 20" fill="none" xmlns="http://www.w3.org/2000/svg">
<g clip-path="url(#clip0_12279_613)">
<path d="M15 4.53523C15 4.53523 16.6667 3.69897 17.7008 4.54566C17.8692 4.68179 18.0793 4.95127 18.1716 5.14938C18.3333 5.49672 18.3333 5.83354 18.3333 6.50719V15.6813C18.3333 16.5201 17.4666 17.0961 16.6667 16.9089C15.9003 16.7295 15.0549 16.63 14.1667 16.63C12.5691 16.63 11.1104 16.9517 10 17.4817C8.88955 18.0117 7.43089 18.3334 5.83333 18.3334C4.94507 18.3334 4.09974 18.2339 3.33333 18.0545C2.84066 17.9392 2.59433 17.8815 2.29915 17.6428C2.1308 17.5067 1.92069 17.2372 1.82843 17.0391C1.66667 16.6918 1.66667 16.355 1.66667 15.6813V6.50719C1.66667 5.66845 2.53336 5.09237 3.33333 5.27963C3.97894 5.43076 4.68056 5.52513 5.41667 5.55113" stroke="#141B34" stroke-width="1.5" stroke-linecap="round"/>
<path d="M12.0833 11.25C12.0833 12.4006 11.1506 13.3333 10 13.3333C8.84941 13.3333 7.91667 12.4006 7.91667 11.25C7.91667 10.0994 8.84941 9.16663 10 9.16663C11.1506 9.16663 12.0833 10.0994 12.0833 11.25Z" stroke="#141B34" stroke-width="1.5"/>
<path d="M4.58333 12.0834L4.58333 12.0909" stroke="#141B34" stroke-width="2" stroke-linecap="round" stroke-linejoin="round"/>
<path d="M15.4167 10.4102L15.4167 10.4176" stroke="#141B34" stroke-width="2" stroke-linecap="round" stroke-linejoin="round"/>
<path d="M7.91667 4.58329C8.32627 5.00471 9.41648 6.66663 10 6.66663M12.0833 4.58329C11.6737 5.00471 10.5835 6.66663 10 6.66663M10 6.66663V1.66663" stroke="#141B34" stroke-width="1.5" stroke-linecap="round" stroke-linejoin="round"/>
</g>
<defs>
<clipPath id="clip0_12279_613">
<rect width="20" height="20" fill="white"/>
</clipPath>
</defs>
</svg>
