<svg width="20" height="20" viewBox="0 0 20 20" fill="none" xmlns="http://www.w3.org/2000/svg">
<g clip-path="url(#clip0_12279_416)">
<path d="M10.7341 5.84721L14.7115 6.90695M9.88147 9.01121L11.8702 9.54108M9.98039 14.9721L10.7759 15.1841C13.0259 15.7835 14.1508 16.0833 15.0371 15.5745C15.9234 15.0657 16.2248 13.947 16.8277 11.7097L17.6803 8.54574C18.2832 6.30846 18.5846 5.18982 18.0729 4.30855C17.5612 3.42728 16.4362 3.12754 14.1863 2.52806L13.3908 2.31611C11.1408 1.71664 10.0158 1.4169 9.12956 1.9257C8.2433 2.4345 7.94186 3.55314 7.33898 5.79042L6.48638 8.95442C5.8835 11.1917 5.58206 12.3103 6.09375 13.1916C6.60544 14.0729 7.73042 14.3726 9.98039 14.9721Z" stroke="#141B34" stroke-width="1.5" stroke-linecap="round"/>
<path d="M10 17.4552L9.20638 17.6713C6.96169 18.2825 5.83935 18.5881 4.95516 18.0694C4.07097 17.5506 3.77024 16.41 3.16878 14.1288L2.31818 10.9028C1.71672 8.62159 1.41599 7.48101 1.92647 6.58245C2.36806 5.80518 3.33333 5.83348 4.58333 5.83338" stroke="#141B34" stroke-width="1.5" stroke-linecap="round"/>
</g>
<defs>
<clipPath id="clip0_12279_416">
<rect width="20" height="20" fill="white"/>
</clipPath>
</defs>
</svg>
