<svg width="20" height="20" viewBox="0 0 20 20" fill="none" xmlns="http://www.w3.org/2000/svg">
<path d="M16.25 10.8333V7.80698C16.25 4.91239 16.25 3.46509 15.3957 2.56586C14.5415 1.66663 13.1665 1.66663 10.4167 1.66663L7.91667 1.66663C5.16681 1.66663 3.79188 1.66663 2.9376 2.56586C2.08333 3.46509 2.08333 4.91239 2.08333 7.80698L2.08333 12.1929C2.08333 15.0875 2.08333 16.5348 2.9376 17.4341C3.79188 18.3333 5.16681 18.3333 7.91667 18.3333H9.16667" stroke="#141B34" stroke-width="1.5" stroke-linecap="round" stroke-linejoin="round"/>
<path d="M11.25 16.6667C11.25 16.6667 12.0833 16.6667 12.9167 18.3334C12.9167 18.3334 15.5637 14.1667 17.9167 13.3334" stroke="#141B34" stroke-width="1.5" stroke-linecap="round" stroke-linejoin="round"/>
<path d="M5.83333 1.66663L5.90183 2.07762C6.06812 3.07533 6.15126 3.57418 6.50094 3.8704C6.85062 4.16663 7.35635 4.16663 8.36782 4.16663L9.96552 4.16663C10.977 4.16663 11.4827 4.16663 11.8324 3.8704C12.1821 3.57418 12.2652 3.07533 12.4315 2.07762L12.5 1.66663" stroke="#141B34" stroke-width="1.5" stroke-linejoin="round"/>
<path d="M5.83333 13.3333H9.16667M5.83333 9.16663L12.5 9.16663" stroke="#141B34" stroke-width="1.5" stroke-linecap="round"/>
</svg>
