<svg width="20" height="20" viewBox="0 0 20 20" fill="none" xmlns="http://www.w3.org/2000/svg">
<path d="M2.91667 7.80698C2.91667 4.91239 2.91667 3.46509 3.77094 2.56586C4.62521 1.66663 6.00014 1.66663 8.75 1.66663L11.25 1.66663C13.9999 1.66663 15.3748 1.66663 16.2291 2.56586C17.0833 3.46509 17.0833 4.91239 17.0833 7.80698V12.1929C17.0833 15.0875 17.0833 16.5348 16.2291 17.4341C15.3748 18.3333 13.9999 18.3333 11.25 18.3333L8.75 18.3333C6.00014 18.3333 4.62521 18.3333 3.77094 17.4341C2.91667 16.5348 2.91667 15.0875 2.91667 12.1929L2.91667 7.80698Z" stroke="#141B34" stroke-width="1.5" stroke-linecap="round" stroke-linejoin="round"/>
<path d="M11.25 9.16663H14.1667" stroke="#141B34" stroke-width="1.5" stroke-linecap="round"/>
<path d="M5.83333 10C5.83333 10 6.25 10 6.66667 10.8334C6.66667 10.8334 7.9902 8.75004 9.16667 8.33337" stroke="#141B34" stroke-width="1.5" stroke-linecap="round" stroke-linejoin="round"/>
<path d="M11.25 14.1666H14.1667" stroke="#141B34" stroke-width="1.5" stroke-linecap="round"/>
<path d="M6.66667 1.66663L6.73517 2.07762C6.90145 3.07533 6.98459 3.57418 7.33427 3.8704C7.68396 4.16663 8.18969 4.16663 9.20115 4.16663L10.7988 4.16663C11.8103 4.16663 12.316 4.16663 12.6657 3.8704C13.0154 3.57418 13.0986 3.07533 13.2648 2.07762L13.3333 1.66663" stroke="#141B34" stroke-width="1.5" stroke-linecap="round" stroke-linejoin="round"/>
<path d="M6.66667 14.1666H7.5" stroke="#141B34" stroke-width="2" stroke-linecap="round" stroke-linejoin="round"/>
</svg>
