<svg width="20" height="20" viewBox="0 0 20 20" fill="none" xmlns="http://www.w3.org/2000/svg">
<g clip-path="url(#clip0_12279_10)">
<path d="M10.8333 18.2923C10.5592 18.3195 10.2812 18.3334 10 18.3334C5.39763 18.3334 1.66667 14.6025 1.66667 10.0001C1.66667 5.39771 5.39763 1.66675 10 1.66675C14.6024 1.66675 18.3333 5.39771 18.3333 10.0001C18.3333 10.2813 18.3194 10.5593 18.2922 10.8334" stroke="#141B34" stroke-width="1.5" stroke-linecap="round"/>
<path d="M6.25 14.1666C7.41872 12.9425 9.18433 12.42 10.8333 12.6617M12.0792 7.91659C12.0792 9.06718 11.1452 9.99992 9.99294 9.99992C8.84071 9.99992 7.90664 9.06718 7.90664 7.91659C7.90664 6.76599 8.84071 5.83325 9.99294 5.83325C11.1452 5.83325 12.0792 6.76599 12.0792 7.91659Z" stroke="#141B34" stroke-width="1.5" stroke-linecap="round"/>
<circle cx="15.4167" cy="15.4167" r="2.91667" stroke="#141B34" stroke-width="1.5"/>
</g>
<defs>
<clipPath id="clip0_12279_10">
<rect width="20" height="20" fill="white"/>
</clipPath>
</defs>
</svg>
