<svg width="20" height="20" viewBox="0 0 20 20" fill="none" xmlns="http://www.w3.org/2000/svg">
<g clip-path="url(#clip0_12279_371)">
<path d="M10 11.7056C8.16058 11.5337 6.27548 11.9323 4.64798 12.9014C3.469 13.6034 0.377804 15.0368 2.26055 16.8306C3.18026 17.7068 4.20458 18.3334 5.49239 18.3334H10.8333" stroke="#141B34" stroke-width="1.5" stroke-linecap="round" stroke-linejoin="round"/>
<path d="M12.9167 5.41675C12.9167 7.48782 11.2377 9.16675 9.16667 9.16675C7.0956 9.16675 5.41667 7.48782 5.41667 5.41675C5.41667 3.34568 7.0956 1.66675 9.16667 1.66675C11.2377 1.66675 12.9167 3.34568 12.9167 5.41675Z" stroke="#141B34" stroke-width="1.5"/>
<path d="M14.9994 11.6667C13.944 11.6667 13.2597 12.3397 12.4504 12.585C12.1214 12.6848 11.9568 12.7347 11.8902 12.805C11.8237 12.8753 11.8042 12.978 11.7652 13.1835C11.3479 15.3821 12.26 17.4147 14.4352 18.2059C14.6689 18.2909 14.7858 18.3334 15.0005 18.3334C15.2153 18.3334 15.3321 18.2909 15.5658 18.2059C17.7409 17.4147 18.6521 15.3821 18.2347 13.1835C18.1957 12.978 18.1762 12.8752 18.1096 12.8049C18.043 12.7346 17.8785 12.6848 17.5494 12.5851C16.7398 12.3398 16.0548 11.6667 14.9994 11.6667Z" stroke="#141B34" stroke-width="1.5" stroke-linecap="round" stroke-linejoin="round"/>
</g>
<defs>
<clipPath id="clip0_12279_371">
<rect width="20" height="20" fill="white"/>
</clipPath>
</defs>
</svg>
