<svg width="20" height="20" viewBox="0 0 20 20" fill="none" xmlns="http://www.w3.org/2000/svg">
<path d="M4.23391 12.7471C3.21868 13.3613 0.556813 14.6156 2.17807 16.1851C2.97004 16.9518 3.85209 17.5001 4.96104 17.5001H11.289C12.3979 17.5001 13.28 16.9518 14.0719 16.1851C15.6932 14.6156 13.0313 13.3613 12.0161 12.7471C9.6354 11.3066 6.6146 11.3066 4.23391 12.7471Z" stroke="#141B34" stroke-width="1.5" stroke-linecap="round" stroke-linejoin="round"/>
<path d="M11.25 5.83333C11.25 7.67428 9.75762 9.16667 7.91667 9.16667C6.07572 9.16667 4.58333 7.67428 4.58333 5.83333C4.58333 3.99238 6.07572 2.5 7.91667 2.5C9.75762 2.5 11.25 3.99238 11.25 5.83333Z" stroke="#141B34" stroke-width="1.5"/>
<path d="M14.1667 4.16675L18.3333 4.16675" stroke="#141B34" stroke-width="1.5" stroke-linecap="round" stroke-linejoin="round"/>
<path d="M14.1667 6.66675L18.3333 6.66675" stroke="#141B34" stroke-width="1.5" stroke-linecap="round" stroke-linejoin="round"/>
<path d="M16.6667 9.16675L18.3333 9.16675" stroke="#141B34" stroke-width="1.5" stroke-linecap="round" stroke-linejoin="round"/>
</svg>
