<svg width="20" height="20" viewBox="0 0 20 20" fill="none" xmlns="http://www.w3.org/2000/svg">
<path d="M7.61195 2.08337C5.39006 2.134 4.09227 2.34551 3.20555 3.22914C2.42949 4.00252 2.17007 5.08968 2.08335 6.83337M12.3881 2.08337C14.61 2.134 15.9078 2.34551 16.7945 3.22914C17.5705 4.00252 17.83 5.08968 17.9167 6.83337M12.3881 17.9167C14.61 17.8661 15.9078 17.6546 16.7945 16.7709C17.5705 15.9976 17.83 14.9104 17.9167 13.1667M7.61195 17.9167C5.39006 17.8661 4.09227 17.6546 3.20555 16.7709C2.42949 15.9976 2.17007 14.9104 2.08335 13.1667" stroke="#141B34" stroke-width="1.5" stroke-linecap="round" stroke-linejoin="round"/>
<path d="M6.25002 14.1667C8.1931 12.1316 11.786 12.0357 13.75 14.1667M12.0793 7.91671C12.0793 9.0673 11.1452 10 9.99296 10C8.84073 10 7.90666 9.0673 7.90666 7.91671C7.90666 6.76611 8.84073 5.83337 9.99296 5.83337C11.1452 5.83337 12.0793 6.76611 12.0793 7.91671Z" stroke="#141B34" stroke-width="1.5" stroke-linecap="round"/>
</svg>
